<?xml version="1.0" encoding="UTF-8"?>
<svg width="2003px" height="490px" viewBox="0 0 2003 490" version="1.1" xmlns="http://www.w3.org/2000/svg" xmlns:xlink="http://www.w3.org/1999/xlink">
    <title>dotfiles copy 2</title>
    <g id="Page-1" stroke="none" stroke-width="1" fill="none" fill-rule="evenodd">
        <g id="dotfiles-copy" transform="translate(-267.000000, -172.000000)">
            <g id="dotfiles-copy-2" transform="translate(267.363158, 172.807895)">
                <g id="Headers" transform="translate(522.811841, 78.871433)" fill="#2F3A3E" fill-rule="nonzero">
                    <g id="Simply-designed-to-f" transform="translate(0.000000, 308.783044)">
                        <path d="M36.0631643,60.4782826 C36.0631643,58.7488784 35.859705,57.214456 35.4527864,55.8750155 C35.0458677,54.535575 34.3337601,53.3232966 33.3164635,52.2381802 C32.2991669,51.1530638 30.8749517,50.1188123 29.0438178,49.1354256 C27.2126839,48.1520389 24.8898567,47.1516972 22.0753361,46.1344006 C19.0234463,45.0492843 16.2597906,43.8370058 13.7843689,42.4975653 C11.3089472,41.1581248 9.19805672,39.6237024 7.45169756,37.8942982 C5.70533841,36.164894 4.35742042,34.1811656 3.4079436,31.9431131 C2.45846677,29.7050606 1.98372836,27.1448642 1.98372836,24.2625238 C1.98372836,21.3801835 2.48389919,18.7182574 3.48424084,16.2767455 C4.48458249,13.8352337 5.90879773,11.7073883 7.75688654,9.89320939 C9.60497536,8.07903047 11.8345504,6.6632927 14.4456117,5.64599611 C17.0566729,4.62869951 19.9729232,4.12005121 23.1943624,4.12005121 C28.0095663,4.12005121 32.0702752,5.17973517 35.3764891,7.29910307 C38.6827031,9.41847098 41.1835572,12.1821267 42.8790515,15.5900703 C44.5745458,18.9980139 45.422293,22.6348493 45.422293,26.5005763 L36.0631643,26.5005763 C36.0631643,23.7199656 35.6138583,21.2530214 34.7152463,19.0997436 C33.8166343,16.9464658 32.426329,15.2509715 30.5443303,14.0132606 C28.6623316,12.7755497 26.2123423,12.1566943 23.1943624,12.1566943 C20.4815715,12.1566943 18.2519964,12.6822976 16.5056373,13.733504 C14.7592781,14.7847105 13.4707024,16.2089258 12.6399102,18.0061497 C11.809118,19.8033737 11.3937219,21.8549219 11.3937219,24.1607942 C11.3937219,25.7206489 11.665001,27.1363867 12.2075591,28.4080074 C12.7501173,29.6796282 13.589387,30.8579967 14.7253682,31.9431131 C15.8613494,33.0282295 17.2855647,34.0285711 18.9980139,34.9441381 C20.7104632,35.859705 22.7365789,36.7413621 25.0763611,37.5891092 C28.7047189,38.7759552 31.8074736,40.0984408 34.3846249,41.5565659 C36.9617763,43.0146911 39.0641893,44.6508431 40.6918638,46.465022 C42.3195384,48.2792009 43.5148619,50.3307491 44.2778343,52.6196664 C45.0408068,54.9085838 45.422293,57.4942126 45.422293,60.376553 C45.422293,63.3945329 44.9221222,66.1242787 43.9217805,68.5657906 C42.9214389,71.0073024 41.4717912,73.0927604 39.5728376,74.8221646 C37.6738839,76.5515688 35.3849666,77.8825319 32.7060856,78.8150538 C30.0272045,79.7475756 27.0092246,80.2138366 23.6521459,80.2138366 C20.7358956,80.2138366 17.8789877,79.7390982 15.081422,78.7896213 C12.2838564,77.8401445 9.74909238,76.4159293 7.47712998,74.5169756 C5.20516758,72.618022 3.39098865,70.2697624 2.03459319,67.4721967 C0.678197731,64.6746311 0,61.4277594 0,57.7315818 L9.35912868,57.7315818 C9.35912868,60.2748233 9.73213743,62.4535335 10.4781549,64.2677124 C11.2241724,66.0818914 12.258424,67.5824038 13.5809096,68.7692499 C14.9033951,69.9560959 16.4208626,70.8292755 18.1333118,71.3887886 C19.8457611,71.9483017 21.6853724,72.2280583 23.6521459,72.2280583 C26.3649368,72.2280583 28.6453766,71.7533199 30.4934655,70.8038431 C32.3415543,69.8543662 33.7318596,68.4979708 34.6643815,66.7346567 C35.5969034,64.9713426 36.0631643,62.8858846 36.0631643,60.4782826 Z" id="Path"></path>
                        <path d="M66.1242787,24.1607942 L66.1242787,79.19654 L57.1720687,79.19654 L57.1720687,24.1607942 L66.1242787,24.1607942 Z M56.6634204,9.562588 C56.6634204,8.03664311 57.087294,6.74806742 57.9350411,5.69686094 C58.7827883,4.64565445 60.054409,4.12005121 61.7499034,4.12005121 C63.4453977,4.12005121 64.7254959,4.64565445 65.590198,5.69686094 C66.4549001,6.74806742 66.8872512,8.03664311 66.8872512,9.562588 C66.8872512,11.0207131 66.4549001,12.2669015 65.590198,13.301153 C64.7254959,14.3354045 63.4453977,14.8525303 61.7499034,14.8525303 C60.054409,14.8525303 58.7827883,14.3354045 57.9350411,13.301153 C57.087294,12.2669015 56.6634204,11.0207131 56.6634204,9.562588 Z" id="Shape"></path>
                        <path d="M89.3695059,35.0967326 L89.3695059,79.19654 L80.4172959,79.19654 L80.4172959,24.1607942 L88.8608576,24.1607942 L89.3695059,35.0967326 Z M87.5383721,49.593209 L83.367456,49.4406146 C83.3335461,45.6766172 83.7065549,42.1923763 84.4864823,38.987892 C85.2664097,35.7834078 86.4447782,32.9943196 88.021588,30.6206275 C89.5983977,28.2469355 91.582126,26.4073241 93.972773,25.1017935 C96.36342,23.7962629 99.1525082,23.1434976 102.340038,23.1434976 C104.442451,23.1434976 106.400746,23.5080288 108.214925,24.2370914 C110.029104,24.966154 111.614392,26.1106126 112.970787,27.6704674 C114.327182,29.2303222 115.386866,31.2310055 116.149839,33.6725173 C116.912811,36.1140292 117.294297,39.0641893 117.294297,42.5229977 L117.294297,79.19654 L108.291223,79.19654 L108.291223,42.9807812 C108.291223,40.0984408 107.909736,37.7925685 107.146764,36.0631643 C106.383792,34.3337601 105.307153,33.0706168 103.916847,32.2737345 C102.526542,31.4768522 100.864957,31.078411 98.9320939,31.078411 C96.7279513,31.078411 94.88834,31.5701044 93.4132599,32.5534911 C91.9381798,33.5368778 90.7682888,34.8932732 89.9035867,36.6226774 C89.0388845,38.3520817 88.4285066,40.3273326 88.0724528,42.5484301 C87.716399,44.7695277 87.5383721,47.1177873 87.5383721,49.593209 Z M117.192568,44.4049964 L111.190518,46.3378599 C111.156608,43.31988 111.529617,40.4205847 112.309544,37.639974 C113.089472,34.8593634 114.250885,32.3839416 115.793785,30.2137089 C117.336685,28.0434762 119.261071,26.3225494 121.566943,25.0509287 C123.872815,23.7793079 126.551697,23.1434976 129.603586,23.1434976 C132.112918,23.1434976 134.334015,23.5334612 136.266879,24.3133886 C138.199743,25.093316 139.835895,26.2886395 141.175335,27.8993591 C142.514776,29.5100788 143.523595,31.5701044 144.201792,34.079436 C144.87999,36.5887676 145.219089,39.5728376 145.219089,43.031646 L145.219089,79.19654 L136.216014,79.19654 L136.216014,42.9299163 C136.216014,39.8441167 135.834528,37.4449922 135.071556,35.7325429 C134.308583,34.0200937 133.231944,32.8162927 131.841639,32.12114 C130.451333,31.4259873 128.789749,31.078411 126.856885,31.078411 C125.297031,31.078411 123.915203,31.4344648 122.711402,32.1465724 C121.507601,32.85868 120.498782,33.8335893 119.684944,35.0713001 C118.871107,36.309011 118.252252,37.7247488 117.828378,39.3185134 C117.404505,40.9122781 117.192568,42.6077724 117.192568,44.4049964 Z" id="Shape"></path>
                        <path d="M167.803073,34.7406787 L167.803073,100.356309 L158.799999,100.356309 L158.799999,24.1607942 L166.989236,24.1607942 L167.803073,34.7406787 Z M198.576296,49.1862904 L198.576296,54.3236382 C198.576296,58.6641037 198.177854,62.4535335 197.380972,65.6919277 C196.58409,68.9303218 195.414199,71.6261578 193.871299,73.7794356 C192.328399,75.9327134 190.437923,77.543433 188.19987,78.6115944 C185.961818,79.6797559 183.401621,80.2138366 180.519281,80.2138366 C177.636941,80.2138366 175.136086,79.6628009 173.016719,78.5607296 C170.897351,77.4586583 169.117082,75.8564162 167.675911,73.7540032 C166.234741,71.6515902 165.09876,69.1168262 164.267968,66.1497111 C163.437176,63.1825961 162.869185,59.8509497 162.563996,56.1547721 L162.563996,48.3215883 C162.869185,44.4219514 163.428698,40.9207556 164.242535,37.8180009 C165.056373,34.7152463 166.183876,32.0702752 167.625047,29.8830875 C169.066217,27.6958998 170.846486,26.0258379 172.965854,24.8729018 C175.085222,23.7199656 177.569121,23.1434976 180.417551,23.1434976 C183.367711,23.1434976 185.970295,23.6521459 188.225303,24.6694424 C190.48031,25.686739 192.379264,27.2550713 193.922164,29.3744392 C195.465063,31.4938071 196.626477,34.1896431 197.406404,37.4619471 C198.186332,40.7342512 198.576296,44.6423656 198.576296,49.1862904 Z M189.573221,54.3236382 L189.573221,49.1862904 C189.573221,46.1344006 189.344329,43.4724745 188.886545,41.2005121 C188.428762,38.9285497 187.708177,37.046551 186.72479,35.554516 C185.741403,34.062481 184.503693,32.9434548 183.011658,32.1974373 C181.519623,31.4514198 179.722399,31.078411 177.619986,31.078411 C175.822762,31.078411 174.237474,31.4514198 172.864124,32.1974373 C171.490774,32.9434548 170.312405,33.9522739 169.329018,35.2238946 C168.345632,36.4955154 167.531794,37.9366856 166.887507,39.5474052 C166.243219,41.1581248 165.76848,42.8281867 165.463291,44.5575909 L165.463291,59.9696343 C166.039759,62.1398671 166.802732,64.1829377 167.752209,66.0988463 C168.701685,68.0147549 169.981784,69.5661322 171.592503,70.7529782 C173.203223,71.9398243 175.246294,72.5332473 177.721715,72.5332473 C179.790218,72.5332473 181.570487,72.1602385 183.062522,71.414221 C184.554557,70.6682035 185.783791,69.5406998 186.750223,68.0317098 C187.716654,66.5227199 188.428762,64.6237662 188.886545,62.3348489 C189.344329,60.0459316 189.573221,57.375528 189.573221,54.3236382 Z" id="Shape"></path>
                        <polygon id="Path" points="219.837794 1.06816143 219.837794 79.19654 210.885584 79.19654 210.885584 1.06816143"></polygon>
                        <path d="M246.847019,73.499679 L259.105443,24.1607942 L268.668031,24.1607942 L250.509287,87.6909666 C250.068458,89.047362 249.483513,90.5139646 248.75445,92.0907743 C248.025388,93.6675841 247.101343,95.1680965 245.982317,96.5923118 C244.863291,98.016527 243.52385,99.1779406 241.963995,100.076553 C240.404141,100.975165 238.573007,101.424471 236.470594,101.424471 C235.826306,101.424471 235.003991,101.322741 234.003649,101.119282 C233.003308,100.915822 232.282723,100.746273 231.841894,100.610633 L231.841894,92.9809089 C232.045354,93.0148187 232.367497,93.0572061 232.808326,93.1080709 C233.249154,93.1589358 233.571298,93.1843682 233.774758,93.1843682 C235.538072,93.1843682 237.038584,92.9046116 238.276295,92.3450985 C239.514006,91.7855854 240.57369,90.8530635 241.455347,89.5475328 C242.337004,88.2420022 243.083022,86.4532557 243.6934,84.1812933 L246.847019,73.499679 Z M238.912106,24.1607942 L249.848044,66.8872512 L252.187826,76.805893 L245.778858,80.2647014 L229.095193,24.1607942 L238.912106,24.1607942 Z" id="Shape"></path>
                        <path d="M330.214475,68.5149257 L330.214475,1.06816143 L339.166685,1.06816143 L339.166685,79.19654 L330.977447,79.19654 L330.214475,68.5149257 Z M299.441253,54.3236382 L299.441253,49.1862904 C299.441253,44.6423656 299.882082,40.7342512 300.763739,37.4619471 C301.645396,34.1896431 302.900061,31.4938071 304.527736,29.3744392 C306.155411,27.2550713 308.105229,25.686739 310.377191,24.6694424 C312.649154,23.6521459 315.158485,23.1434976 317.905186,23.1434976 C320.753617,23.1434976 323.203606,23.7199656 325.255154,24.8729018 C327.306702,26.0258379 329.027629,27.6958998 330.417934,29.8830875 C331.80824,32.0702752 332.901834,34.7152463 333.698716,37.8180009 C334.495598,40.9207556 335.029679,44.4219514 335.300958,48.3215883 L335.300958,55.1883403 C334.995769,59.0540674 334.444733,62.5298308 333.647851,65.6156304 C332.850969,68.7014301 331.757375,71.3294463 330.367069,73.499679 C328.976764,75.6699118 327.24736,77.3314962 325.178857,78.4844324 C323.110354,79.6373685 320.651887,80.2138366 317.803457,80.2138366 C315.090666,80.2138366 312.615244,79.6797559 310.377191,78.6115944 C308.139139,77.543433 306.197798,75.9327134 304.553168,73.7794356 C302.908539,71.6261578 301.645396,68.9303218 300.763739,65.6919277 C299.882082,62.4535335 299.441253,58.6641037 299.441253,54.3236382 Z M308.444328,49.1862904 L308.444328,54.3236382 C308.444328,57.375528 308.664742,60.0289766 309.105571,62.2839841 C309.546399,64.5389915 310.241552,66.4040353 311.191029,67.8791154 C312.140505,69.3541954 313.352784,70.4477893 314.827864,71.1598969 C316.302944,71.8720045 318.074736,72.2280583 320.143239,72.2280583 C322.65257,72.2280583 324.704118,71.6176803 326.297883,70.3969244 C327.891648,69.1761685 329.171746,67.5569714 330.138178,65.5393332 C331.10461,63.5216949 331.876059,61.3429847 332.452528,59.0032026 L332.452528,44.5575909 C332.113429,42.8281867 331.621735,41.1581248 330.977447,39.5474052 C330.33316,37.9366856 329.5278,36.4955154 328.561368,35.2238946 C327.594936,33.9522739 326.425045,32.9434548 325.051695,32.1974373 C323.678344,31.4514198 322.076102,31.078411 320.244968,31.078411 C318.176465,31.078411 316.387719,31.4514198 314.878729,32.1974373 C313.369739,32.9434548 312.148983,34.062481 311.216461,35.554516 C310.283939,37.046551 309.588787,38.9285497 309.131003,41.2005121 C308.67322,43.4724745 308.444328,46.1344006 308.444328,49.1862904 Z" id="Shape"></path>
                        <path d="M372.737473,80.2138366 C369.448214,80.2138366 366.481099,79.7221432 363.836127,78.7387565 C361.191156,77.7553698 358.936149,76.2548573 357.071105,74.2372191 C355.206061,72.2195808 353.781846,69.6678619 352.798459,66.5820622 C351.815073,63.4962625 351.323379,59.8509497 351.323379,55.6461238 L351.323379,49.4406146 C351.323379,44.5915008 351.89137,40.4884045 353.027351,37.1313257 C354.163332,33.774247 355.697755,31.0699335 357.630618,29.0183854 C359.563482,26.9668373 361.750669,25.4748023 364.192181,24.5422804 C366.633693,23.6097585 369.143025,23.1434976 371.720176,23.1434976 C375.178985,23.1434976 378.129145,23.7030107 380.570656,24.8220369 C383.012168,25.9410632 384.995897,27.6026476 386.521842,29.8067903 C388.047786,32.0109329 389.17529,34.7237238 389.904353,37.945163 C390.633415,41.1666022 390.997947,44.8797348 390.997947,49.0845607 L390.997947,54.3236382 L356.613322,54.3236382 L356.613322,46.6430489 L381.994872,46.6430489 L381.994872,45.3714282 C381.859232,42.5229977 381.477746,40.0136661 380.850413,37.8434334 C380.22308,35.6732006 379.197306,33.9692288 377.773091,32.731518 C376.348876,31.4938071 374.331237,30.8749517 371.720176,30.8749517 C370.058592,30.8749517 368.524169,31.1547082 367.116909,31.7142214 C365.709649,32.2737345 364.505848,33.2401663 363.505506,34.6135167 C362.505164,35.9868671 361.725237,37.8773433 361.165724,40.2849452 C360.606211,42.6925471 360.326454,45.7444369 360.326454,49.4406146 L360.326454,55.6461238 C360.326454,58.5962839 360.606211,61.1310479 361.165724,63.2504158 C361.725237,65.3697838 362.556029,67.1161429 363.658101,68.4894933 C364.760172,69.8628437 366.116567,70.8801403 367.727287,71.5413831 C369.338007,72.2026259 371.177618,72.5332473 373.246121,72.5332473 C376.264101,72.5332473 378.756478,71.9483017 380.723251,70.7784107 C382.690024,69.6085196 384.402474,68.1080071 385.860599,66.2768732 L390.591028,71.9228693 C389.607641,73.3131747 388.327543,74.6441377 386.750733,75.9157585 C385.173924,77.1873792 383.24106,78.2216307 380.952143,79.0185131 C378.663225,79.8153954 375.925002,80.2138366 372.737473,80.2138366 Z" id="Path"></path>
                        <path d="M428.587056,65.1069821 C428.587056,63.7166768 428.247957,62.4959209 427.569759,61.4447144 C426.891561,60.3935079 425.781013,59.3762113 424.238113,58.3928246 C422.695213,57.4094379 420.618232,56.3582314 418.007171,55.2392052 C415.46393,54.1879987 413.18349,53.1452697 411.165852,52.1110181 C409.148213,51.0767666 407.444242,49.9492629 406.053936,48.7285069 C404.663631,47.507751 403.603947,46.0920133 402.874884,44.4812937 C402.145822,42.870574 401.781291,40.9631429 401.781291,38.7590003 C401.781291,36.5548577 402.196687,34.511787 403.027479,32.6297883 C403.858271,30.7477896 405.03664,29.0946826 406.562585,27.6704674 C408.088529,26.2462522 409.919663,25.1357034 412.055986,24.3388211 C414.192309,23.5419387 416.582956,23.1434976 419.227927,23.1434976 C422.991925,23.1434976 426.196409,23.8725601 428.84138,25.3306852 C431.486351,26.7888104 433.512467,28.7810162 434.919727,31.3073027 C436.326987,33.8335893 437.030618,36.6735423 437.030618,39.8271617 L428.078408,39.8271617 C428.078408,38.3012168 427.739309,36.8600467 427.061111,35.5036512 C426.382913,34.1472557 425.382572,33.0367069 424.060086,32.1720048 C422.7376,31.3073027 421.126881,30.8749517 419.227927,30.8749517 C417.227244,30.8749517 415.599569,31.2310055 414.344903,31.9431131 C413.090238,32.6552207 412.183148,33.5792651 411.623635,34.7152463 C411.064122,35.8512275 410.784365,37.0974159 410.784365,38.4538113 C410.784365,39.4711079 410.928482,40.3442875 411.216716,41.0733501 C411.50495,41.8024126 412.005121,42.4806103 412.717229,43.1079432 C413.429337,43.7352761 414.404246,44.379564 415.641957,45.0408068 C416.879667,45.7020496 418.464955,46.4565445 420.397818,47.3042917 C424.127906,48.7624168 427.26457,50.2374969 429.807812,51.7295319 C432.351053,53.2215669 434.283917,54.9679261 435.606402,56.9686094 C436.928888,58.9692927 437.590131,61.4447144 437.590131,64.3948745 C437.590131,66.8024765 437.15778,68.9811867 436.293078,70.9310051 C435.428375,72.8808236 434.199142,74.5508855 432.605377,75.9411909 C431.011613,77.3314962 429.104182,78.3911802 426.883084,79.1202427 C424.661986,79.8493053 422.178087,80.2138366 419.431386,80.2138366 C415.29438,80.2138366 411.793185,79.3915218 408.927799,77.7468923 C406.062414,76.1022628 403.892181,73.948985 402.417101,71.287059 C400.942021,68.6251329 400.204481,65.7682249 400.204481,62.7163351 L409.207556,62.7163351 C409.309285,65.2934865 409.894231,67.2941698 410.962392,68.718385 C412.030554,70.1426003 413.327607,71.125987 414.853552,71.6685452 C416.379497,72.2111034 417.905442,72.4823825 419.431386,72.4823825 C421.43207,72.4823825 423.110609,72.1856709 424.467005,71.5922479 C425.8234,70.9988249 426.849174,70.1426003 427.544327,69.023574 C428.239479,67.9045478 428.587056,66.5990171 428.587056,65.1069821 Z" id="Path"></path>
                        <path d="M459.055089,24.1607942 L459.055089,79.19654 L450.102879,79.19654 L450.102879,24.1607942 L459.055089,24.1607942 Z M449.594231,9.562588 C449.594231,8.03664311 450.018104,6.74806742 450.865851,5.69686094 C451.713598,4.64565445 452.985219,4.12005121 454.680714,4.12005121 C456.376208,4.12005121 457.656306,4.64565445 458.521008,5.69686094 C459.38571,6.74806742 459.818061,8.03664311 459.818061,9.562588 C459.818061,11.0207131 459.38571,12.2669015 458.521008,13.301153 C457.656306,14.3354045 456.376208,14.8525303 454.680714,14.8525303 C452.985219,14.8525303 451.713598,14.3354045 450.865851,13.301153 C450.018104,12.2669015 449.594231,11.0207131 449.594231,9.562588 Z" id="Shape"></path>
                        <path d="M503.104031,24.1607942 L511.191539,24.1607942 L511.191539,79.6543235 C511.191539,84.5034372 510.35227,88.5048038 508.67373,91.6584233 C506.995191,94.8120427 504.663886,97.1433474 501.679816,98.6523374 C498.695746,100.161327 495.253893,100.915822 491.354256,100.915822 C489.96395,100.915822 488.217591,100.661498 486.115178,100.15285 C484.012765,99.6442016 481.910352,98.8727516 479.807939,97.8385001 C477.705526,96.8042486 475.976122,95.5071954 474.619727,93.9473406 L478.332859,87.6909666 C480.265723,89.65774 482.317271,91.0650003 484.487504,91.9127474 C486.657736,92.7604946 488.72624,93.1843682 490.693013,93.1843682 C493.032795,93.1843682 495.067388,92.7604946 496.796793,91.9127474 C498.526197,91.0650003 499.865637,89.6831724 500.815114,87.7672638 C501.764591,85.8513552 502.239329,83.2996363 502.239329,80.1121069 L502.239329,36.2666236 L503.104031,24.1607942 Z M471.466107,54.3236382 L471.466107,49.1862904 C471.466107,44.6423656 471.889981,40.7342512 472.737728,37.4619471 C473.585475,34.1896431 474.814709,31.4938071 476.425428,29.3744392 C478.036148,27.2550713 479.977489,25.686739 482.249451,24.6694424 C484.521414,23.6521459 487.064655,23.1434976 489.879176,23.1434976 C492.727606,23.1434976 495.186073,23.7199656 497.254576,24.8729018 C499.323079,26.0258379 501.044006,27.6958998 502.417356,29.8830875 C503.790707,32.0702752 504.875823,34.7152463 505.672705,37.8180009 C506.469588,40.9207556 507.020623,44.4219514 507.325812,48.3215883 L507.325812,55.1883403 C507.020623,59.0540674 506.469588,62.5298308 505.672705,65.6156304 C504.875823,68.7014301 503.773752,71.3294463 502.366491,73.499679 C500.959231,75.6699118 499.221349,77.3314962 497.152846,78.4844324 C495.084343,79.6373685 492.625877,80.2138366 489.777446,80.2138366 C486.996835,80.2138366 484.487504,79.6797559 482.249451,78.6115944 C480.011399,77.543433 478.087013,75.9327134 476.476293,73.7794356 C474.865573,71.6261578 473.627863,68.9303218 472.76316,65.6919277 C471.898458,62.4535335 471.466107,58.6641037 471.466107,54.3236382 Z M480.469182,49.1862904 L480.469182,54.3236382 C480.469182,57.375528 480.689596,60.0289766 481.130425,62.2839841 C481.571254,64.5389915 482.257929,66.4040353 483.190451,67.8791154 C484.122972,69.3541954 485.326773,70.4477893 486.801854,71.1598969 C488.276934,71.8720045 490.048725,72.2280583 492.117228,72.2280583 C494.62656,72.2280583 496.678108,71.6176803 498.271873,70.3969244 C499.865637,69.1761685 501.145736,67.5569714 502.112167,65.5393332 C503.078599,63.5216949 503.850049,61.3429847 504.426517,59.0032026 L504.426517,44.5575909 C504.087418,42.8281867 503.604202,41.1581248 502.976869,39.5474052 C502.349536,37.9366856 501.544177,36.4955154 500.56079,35.2238946 C499.577403,33.9522739 498.399035,32.9434548 497.025684,32.1974373 C495.652334,31.4514198 494.050092,31.078411 492.218958,31.078411 C490.150455,31.078411 488.370186,31.4514198 486.878151,32.1974373 C485.386116,32.9434548 484.16536,34.062481 483.215883,35.554516 C482.266406,37.046551 481.571254,38.9285497 481.130425,41.2005121 C480.689596,43.4724745 480.469182,46.1344006 480.469182,49.1862904 Z" id="Shape"></path>
                        <path d="M533.673794,35.9105698 L533.673794,79.19654 L524.670719,79.19654 L524.670719,24.1607942 L533.165146,24.1607942 L533.673794,35.9105698 Z M531.486606,49.593209 L527.824339,49.4406146 C527.790429,45.6766172 528.22278,42.1923763 529.121392,38.987892 C530.020004,35.7834078 531.30858,32.9943196 532.987119,30.6206275 C534.665658,28.2469355 536.674819,26.4073241 539.014601,25.1017935 C541.354383,23.7962629 543.94849,23.1434976 546.79692,23.1434976 C549.034973,23.1434976 551.069566,23.5080288 552.9007,24.2370914 C554.731834,24.966154 556.291688,26.1275676 557.580264,27.7213322 C558.86884,29.3150969 559.860704,31.3751225 560.555857,33.9014091 C561.251009,36.4276956 561.598586,39.5050178 561.598586,43.1333757 L561.598586,79.19654 L552.595511,79.19654 L552.595511,43.031646 C552.595511,40.1493056 552.281844,37.8349559 551.654511,36.0885967 C551.027179,34.3422376 550.077702,33.0706168 548.806081,32.2737345 C547.53446,31.4768522 545.932218,31.078411 543.999355,31.078411 C542.236041,31.078411 540.591411,31.5701044 539.065466,32.5534911 C537.539521,33.5368778 536.208558,34.8932732 535.072577,36.6226774 C533.936596,38.3520817 533.054939,40.3273326 532.427606,42.5484301 C531.800273,44.7695277 531.486606,47.1177873 531.486606,49.593209 Z" id="Shape"></path>
                        <path d="M594.81332,80.2138366 C591.524061,80.2138366 588.556946,79.7221432 585.911974,78.7387565 C583.267003,77.7553698 581.011996,76.2548573 579.146952,74.2372191 C577.281908,72.2195808 575.857693,69.6678619 574.874306,66.5820622 C573.89092,63.4962625 573.399226,59.8509497 573.399226,55.6461238 L573.399226,49.4406146 C573.399226,44.5915008 573.967217,40.4884045 575.103198,37.1313257 C576.239179,33.774247 577.773602,31.0699335 579.706465,29.0183854 C581.639329,26.9668373 583.826516,25.4748023 586.268028,24.5422804 C588.70954,23.6097585 591.218872,23.1434976 593.796023,23.1434976 C597.254831,23.1434976 600.204992,23.7030107 602.646503,24.8220369 C605.088015,25.9410632 607.071744,27.6026476 608.597688,29.8067903 C610.123633,32.0109329 611.251137,34.7237238 611.9802,37.945163 C612.709262,41.1666022 613.073793,44.8797348 613.073793,49.0845607 L613.073793,54.3236382 L578.689169,54.3236382 L578.689169,46.6430489 L604.070719,46.6430489 L604.070719,45.3714282 C603.935079,42.5229977 603.553593,40.0136661 602.92626,37.8434334 C602.298927,35.6732006 601.273153,33.9692288 599.848938,32.731518 C598.424722,31.4938071 596.407084,30.8749517 593.796023,30.8749517 C592.134439,30.8749517 590.600016,31.1547082 589.192756,31.7142214 C587.785496,32.2737345 586.581695,33.2401663 585.581353,34.6135167 C584.581011,35.9868671 583.801084,37.8773433 583.241571,40.2849452 C582.682058,42.6925471 582.402301,45.7444369 582.402301,49.4406146 L582.402301,55.6461238 C582.402301,58.5962839 582.682058,61.1310479 583.241571,63.2504158 C583.801084,65.3697838 584.631876,67.1161429 585.733947,68.4894933 C586.836019,69.8628437 588.192414,70.8801403 589.803134,71.5413831 C591.413853,72.2026259 593.253465,72.5332473 595.321968,72.5332473 C598.339948,72.5332473 600.832324,71.9483017 602.799098,70.7784107 C604.765871,69.6085196 606.478321,68.1080071 607.936446,66.2768732 L612.666875,71.9228693 C611.683488,73.3131747 610.40339,74.6441377 608.82658,75.9157585 C607.24977,77.1873792 605.316907,78.2216307 603.02799,79.0185131 C600.739072,79.8153954 598.000849,80.2138366 594.81332,80.2138366 Z" id="Path"></path>
                        <path d="M652.799226,68.5149257 L652.799226,1.06816143 L661.751436,1.06816143 L661.751436,79.19654 L653.562198,79.19654 L652.799226,68.5149257 Z M622.026004,54.3236382 L622.026004,49.1862904 C622.026004,44.6423656 622.466832,40.7342512 623.348489,37.4619471 C624.230146,34.1896431 625.484812,31.4938071 627.112486,29.3744392 C628.740161,27.2550713 630.68998,25.686739 632.961942,24.6694424 C635.233904,23.6521459 637.743236,23.1434976 640.489937,23.1434976 C643.338367,23.1434976 645.788356,23.7199656 647.839905,24.8729018 C649.891453,26.0258379 651.61238,27.6958998 653.002685,29.8830875 C654.39299,32.0702752 655.486584,34.7152463 656.283466,37.8180009 C657.080349,40.9207556 657.614429,44.4219514 657.885709,48.3215883 L657.885709,55.1883403 C657.58052,59.0540674 657.029484,62.5298308 656.232602,65.6156304 C655.435719,68.7014301 654.342125,71.3294463 652.95182,73.499679 C651.561515,75.6699118 649.83211,77.3314962 647.763607,78.4844324 C645.695104,79.6373685 643.236638,80.2138366 640.388207,80.2138366 C637.675416,80.2138366 635.199994,79.6797559 632.961942,78.6115944 C630.723889,77.543433 628.782548,75.9327134 627.137919,73.7794356 C625.493289,71.6261578 624.230146,68.9303218 623.348489,65.6919277 C622.466832,62.4535335 622.026004,58.6641037 622.026004,54.3236382 Z M631.029078,49.1862904 L631.029078,54.3236382 C631.029078,57.375528 631.249493,60.0289766 631.690321,62.2839841 C632.13115,64.5389915 632.826302,66.4040353 633.775779,67.8791154 C634.725256,69.3541954 635.937534,70.4477893 637.412615,71.1598969 C638.887695,71.8720045 640.659486,72.2280583 642.727989,72.2280583 C645.237321,72.2280583 647.288869,71.6176803 648.882634,70.3969244 C650.476398,69.1761685 651.756497,67.5569714 652.722928,65.5393332 C653.68936,63.5216949 654.46081,61.3429847 655.037278,59.0032026 L655.037278,44.5575909 C654.698179,42.8281867 654.206486,41.1581248 653.562198,39.5474052 C652.91791,37.9366856 652.11255,36.4955154 651.146119,35.2238946 C650.179687,33.9522739 649.009796,32.9434548 647.636445,32.1974373 C646.263095,31.4514198 644.660853,31.078411 642.829719,31.078411 C640.761216,31.078411 638.972469,31.4514198 637.463479,32.1974373 C635.954489,32.9434548 634.733733,34.062481 633.801212,35.554516 C632.86869,37.046551 632.173537,38.9285497 631.715754,41.2005121 C631.25797,43.4724745 631.029078,46.1344006 631.029078,49.1862904 Z" id="Shape"></path>
                        <path d="M719.635612,24.1607942 L719.635612,31.3836 L693.948873,31.3836 L693.948873,24.1607942 L719.635612,24.1607942 Z M702.34157,10.7833439 L711.344645,10.7833439 L711.344645,65.5647656 C711.344645,67.4298094 711.573536,68.8370697 712.03132,69.7865465 C712.489103,70.7360233 713.074049,71.3633562 713.786156,71.6685452 C714.498264,71.9737342 715.261237,72.1263286 716.075074,72.1263286 C716.685452,72.1263286 717.363649,72.0500314 718.109667,71.8974369 C718.855684,71.7448424 719.364333,71.6176803 719.635612,71.5159507 L719.584747,79.19654 C718.974369,79.4339092 718.160532,79.6628009 717.143235,79.8832152 C716.125939,80.1036294 714.837363,80.2138366 713.277508,80.2138366 C711.344645,80.2138366 709.547421,79.7560531 707.885836,78.8404862 C706.224252,77.9249192 704.884811,76.3904969 703.867515,74.2372191 C702.850218,72.0839413 702.34157,69.1761685 702.34157,65.5139008 L702.34157,10.7833439 Z" id="Shape"></path>
                        <path d="M727.468796,54.3236382 L727.468796,49.0845607 C727.468796,44.811915 728.011354,41.0563951 729.09647,37.8180009 C730.181587,34.5796068 731.690577,31.8752933 733.62344,29.7050606 C735.556304,27.5348279 737.811311,25.8986758 740.388462,24.7966045 C742.965614,23.6945332 745.72927,23.1434976 748.67943,23.1434976 C751.69741,23.1434976 754.494975,23.6945332 757.072127,24.7966045 C759.649278,25.8986758 761.912763,27.5348279 763.862581,29.7050606 C765.8124,31.8752933 767.329867,34.5796068 768.414984,37.8180009 C769.5001,41.0563951 770.042658,44.811915 770.042658,49.0845607 L770.042658,54.3236382 C770.042658,58.5962839 769.5001,62.3518039 768.414984,65.590198 C767.329867,68.8285922 765.820877,71.5329056 763.888014,73.7031384 C761.95515,75.8733711 759.700143,77.5010457 757.122991,78.586162 C754.54584,79.6712784 751.765229,80.2138366 748.781159,80.2138366 C745.797089,80.2138366 743.016479,79.6712784 740.439327,78.586162 C737.862176,77.5010457 735.598691,75.8733711 733.648872,73.7031384 C731.699054,71.5329056 730.181587,68.8285922 729.09647,65.590198 C728.011354,62.3518039 727.468796,58.5962839 727.468796,54.3236382 Z M736.471871,49.0845607 L736.471871,54.3236382 C736.471871,57.3416181 736.77706,59.9865893 737.387437,62.2585517 C737.997815,64.5305141 738.862518,66.4294677 739.981544,67.9554126 C741.10057,69.4813575 742.406101,70.6258162 743.898136,71.3887886 C745.390171,72.1517611 747.017845,72.5332473 748.781159,72.5332473 C750.815753,72.5332473 752.604499,72.1517611 754.147399,71.3887886 C755.690299,70.6258162 756.970397,69.4813575 757.987694,67.9554126 C759.00499,66.4294677 759.767963,64.5305141 760.276611,62.2585517 C760.785259,59.9865893 761.039583,57.3416181 761.039583,54.3236382 L761.039583,49.0845607 C761.039583,46.0665808 760.734394,43.4300872 760.124016,41.1750797 C759.513638,38.9200723 758.648936,37.0211186 757.52991,35.4782188 C756.410884,33.9353189 755.096876,32.7823828 753.587886,32.0194104 C752.078896,31.2564379 750.442744,30.8749517 748.67943,30.8749517 C746.950025,30.8749517 745.339306,31.2564379 743.847271,32.0194104 C742.355236,32.7823828 741.058183,33.9353189 739.956111,35.4782188 C738.85404,37.0211186 737.997815,38.9200723 737.387437,41.1750797 C736.77706,43.4300872 736.471871,46.0665808 736.471871,49.0845607 Z" id="Shape"></path>
                        <path d="M817.041761,79.19654 L808.038686,79.19654 L808.038686,19.3795002 C808.038686,15.2085841 808.742316,11.6819559 810.149576,8.79961555 C811.556837,5.9172752 813.574475,3.73008752 816.202491,2.23805251 C818.830507,0.746017504 821.94174,0 825.536188,0 C827.67251,0 829.724058,0.296711507 831.690832,0.890134521 C833.657605,1.48355754 835.692199,2.22109757 837.794611,3.10275462 L836.268667,11.0376681 C835.047911,10.4272901 833.555876,9.84234456 831.792562,9.28283144 C830.029247,8.72331831 828.181159,8.44356175 826.248295,8.44356175 C822.857306,8.44356175 820.475137,9.35065121 819.101787,11.1648301 C817.728436,12.9790091 817.041761,15.7172324 817.041761,19.3795002 L817.041761,79.19654 Z M825.943106,24.1607942 L825.943106,31.3836 L800.866745,31.3836 L800.866745,24.1607942 L825.943106,24.1607942 Z M842.118122,24.1607942 L842.118122,79.19654 L833.115047,79.19654 L833.115047,24.1607942 L842.118122,24.1607942 Z" id="Shape"></path>
                        <path d="M876.706206,24.1607942 L876.706206,31.3836 L851.019467,31.3836 L851.019467,24.1607942 L876.706206,24.1607942 Z M859.412164,10.7833439 L868.415239,10.7833439 L868.415239,65.5647656 C868.415239,67.4298094 868.644131,68.8370697 869.101914,69.7865465 C869.559698,70.7360233 870.144643,71.3633562 870.856751,71.6685452 C871.568858,71.9737342 872.331831,72.1263286 873.145668,72.1263286 C873.756046,72.1263286 874.434244,72.0500314 875.180261,71.8974369 C875.926279,71.7448424 876.434927,71.6176803 876.706206,71.5159507 L876.655341,79.19654 C876.044963,79.4339092 875.231126,79.6628009 874.21383,79.8832152 C873.196533,80.1036294 871.907957,80.2138366 870.348103,80.2138366 C868.415239,80.2138366 866.618015,79.7560531 864.956431,78.8404862 C863.294846,77.9249192 861.955406,76.3904969 860.938109,74.2372191 C859.920812,72.0839413 859.412164,69.1761685 859.412164,65.5139008 L859.412164,10.7833439 Z" id="Shape"></path>
                        <path d="M924.112228,73.499679 L936.370652,24.1607942 L945.93324,24.1607942 L927.774495,87.6909666 C927.333667,89.047362 926.748721,90.5139646 926.019659,92.0907743 C925.290596,93.6675841 924.366552,95.1680965 923.247526,96.5923118 C922.128499,98.016527 920.789059,99.1779406 919.229204,100.076553 C917.669349,100.975165 915.838215,101.424471 913.735802,101.424471 C913.091515,101.424471 912.2692,101.322741 911.268858,101.119282 C910.268516,100.915822 909.547931,100.746273 909.107103,100.610633 L909.107103,92.9809089 C909.310562,93.0148187 909.632706,93.0572061 910.073535,93.1080709 C910.514363,93.1589358 910.836507,93.1843682 911.039966,93.1843682 C912.80328,93.1843682 914.303793,92.9046116 915.541504,92.3450985 C916.779215,91.7855854 917.838899,90.8530635 918.720556,89.5475328 C919.602213,88.2420022 920.34823,86.4532557 920.958608,84.1812933 L924.112228,73.499679 Z M916.177314,24.1607942 L927.113253,66.8872512 L929.453035,76.805893 L923.044066,80.2647014 L906.360402,24.1607942 L916.177314,24.1607942 Z" id="Shape"></path>
                        <path d="M952.087884,54.3236382 L952.087884,49.0845607 C952.087884,44.811915 952.630442,41.0563951 953.715559,37.8180009 C954.800675,34.5796068 956.309665,31.8752933 958.242528,29.7050606 C960.175392,27.5348279 962.430399,25.8986758 965.007551,24.7966045 C967.584702,23.6945332 970.348358,23.1434976 973.298518,23.1434976 C976.316498,23.1434976 979.114064,23.6945332 981.691215,24.7966045 C984.268366,25.8986758 986.531851,27.5348279 988.48167,29.7050606 C990.431488,31.8752933 991.948956,34.5796068 993.034072,37.8180009 C994.119188,41.0563951 994.661747,44.811915 994.661747,49.0845607 L994.661747,54.3236382 C994.661747,58.5962839 994.119188,62.3518039 993.034072,65.590198 C991.948956,68.8285922 990.439966,71.5329056 988.507102,73.7031384 C986.574239,75.8733711 984.319231,77.5010457 981.74208,78.586162 C979.164928,79.6712784 976.384318,80.2138366 973.400248,80.2138366 C970.416178,80.2138366 967.635567,79.6712784 965.058416,78.586162 C962.481264,77.5010457 960.217779,75.8733711 958.267961,73.7031384 C956.318142,71.5329056 954.800675,68.8285922 953.715559,65.590198 C952.630442,62.3518039 952.087884,58.5962839 952.087884,54.3236382 Z M961.090959,49.0845607 L961.090959,54.3236382 C961.090959,57.3416181 961.396148,59.9865893 962.006526,62.2585517 C962.616904,64.5305141 963.481606,66.4294677 964.600632,67.9554126 C965.719658,69.4813575 967.025189,70.6258162 968.517224,71.3887886 C970.009259,72.1517611 971.636934,72.5332473 973.400248,72.5332473 C975.434841,72.5332473 977.223587,72.1517611 978.766487,71.3887886 C980.309387,70.6258162 981.589485,69.4813575 982.606782,67.9554126 C983.624078,66.4294677 984.387051,64.5305141 984.895699,62.2585517 C985.404348,59.9865893 985.658672,57.3416181 985.658672,54.3236382 L985.658672,49.0845607 C985.658672,46.0665808 985.353483,43.4300872 984.743105,41.1750797 C984.132727,38.9200723 983.268025,37.0211186 982.148998,35.4782188 C981.029972,33.9353189 979.715964,32.7823828 978.206974,32.0194104 C976.697984,31.2564379 975.061832,30.8749517 973.298518,30.8749517 C971.569114,30.8749517 969.958394,31.2564379 968.466359,32.0194104 C966.974324,32.7823828 965.677271,33.9353189 964.5752,35.4782188 C963.473128,37.0211186 962.616904,38.9200723 962.006526,41.1750797 C961.396148,43.4300872 961.090959,46.0665808 961.090959,49.0845607 Z" id="Shape"></path>
                        <path d="M1034.08199,66.4803325 L1034.08199,24.1607942 L1043.08506,24.1607942 L1043.08506,79.19654 L1034.53977,79.19654 L1034.08199,66.4803325 Z M1035.76053,54.8831513 L1039.32107,54.7814217 C1039.32107,58.4436894 1039.0074,61.8262006 1038.38007,64.9289552 C1037.75273,68.0317098 1036.73544,70.7190684 1035.32818,72.9910307 C1033.92092,75.2629931 1032.06435,77.0347847 1029.75848,78.3064055 C1027.45261,79.5780262 1024.62113,80.2138366 1021.26405,80.2138366 C1018.99209,80.2138366 1016.93206,79.8238729 1015.08398,79.0439455 C1013.23589,78.2640181 1011.64212,77.0602171 1010.30268,75.4325426 C1008.96324,73.804868 1007.92899,71.6855001 1007.19993,69.0744389 C1006.47086,66.4633776 1006.10633,63.3267131 1006.10633,59.6644453 L1006.10633,24.1607942 L1015.05854,24.1607942 L1015.05854,59.766175 C1015.05854,62.2415967 1015.27896,64.2846674 1015.71979,65.895387 C1016.16061,67.5061066 1016.75404,68.7777273 1017.50006,69.7102492 C1018.24607,70.6427711 1019.07686,71.2955364 1019.99243,71.6685452 C1020.908,72.0415539 1021.84052,72.2280583 1022.79,72.2280583 C1025.97753,72.2280583 1028.52077,71.4566084 1030.41972,69.9137085 C1032.31868,68.3708087 1033.68355,66.2853507 1034.51434,63.6573345 C1035.34513,61.0293183 1035.76053,58.1045906 1035.76053,54.8831513 Z" id="Shape"></path>
                        <path d="M1065.61818,32.8078152 L1065.61818,79.19654 L1056.61511,79.19654 L1056.61511,24.1607942 L1065.313,24.1607942 L1065.61818,32.8078152 Z M1079.30082,23.8556052 L1079.35169,32.6043559 C1078.60567,32.4348065 1077.93595,32.3245993 1077.34253,32.2737345 C1076.7491,32.2228697 1076.06243,32.1974373 1075.2825,32.1974373 C1073.58701,32.1974373 1072.10345,32.5365361 1070.83183,33.2147339 C1069.56021,33.8929316 1068.46661,34.8424084 1067.55105,36.0631643 C1066.63548,37.2839202 1065.90642,38.7335679 1065.36386,40.4121073 C1064.8213,42.0906467 1064.44829,43.930258 1064.24483,45.9309413 L1061.90505,47.4568862 C1061.90505,44.1337173 1062.16785,41.0140078 1062.69346,38.0977575 C1063.21906,35.1815073 1064.04137,32.5958784 1065.1604,30.340871 C1066.27943,28.0858635 1067.71212,26.3225494 1069.45848,25.0509287 C1071.20484,23.7793079 1073.29877,23.1434976 1075.74029,23.1434976 C1076.28284,23.1434976 1076.95256,23.2197948 1077.74945,23.3723893 C1078.54633,23.5249838 1079.06345,23.6860557 1079.30082,23.8556052 Z" id="Shape"></path>
                        <path d="M1138.96527,65.1069821 C1138.96527,63.7166768 1138.62617,62.4959209 1137.94797,61.4447144 C1137.26977,60.3935079 1136.15923,59.3762113 1134.61633,58.3928246 C1133.07343,57.4094379 1130.99645,56.3582314 1128.38538,55.2392052 C1125.84214,54.1879987 1123.5617,53.1452697 1121.54406,52.1110181 C1119.52643,51.0767666 1117.82245,49.9492629 1116.43215,48.7285069 C1115.04184,47.507751 1113.98216,46.0920133 1113.2531,44.4812937 C1112.52403,42.870574 1112.1595,40.9631429 1112.1595,38.7590003 C1112.1595,36.5548577 1112.5749,34.511787 1113.40569,32.6297883 C1114.23648,30.7477896 1115.41485,29.0946826 1116.9408,27.6704674 C1118.46674,26.2462522 1120.29788,25.1357034 1122.4342,24.3388211 C1124.57052,23.5419387 1126.96117,23.1434976 1129.60614,23.1434976 C1133.37014,23.1434976 1136.57462,23.8725601 1139.21959,25.3306852 C1141.86456,26.7888104 1143.89068,28.7810162 1145.29794,31.3073027 C1146.7052,33.8335893 1147.40883,36.6735423 1147.40883,39.8271617 L1138.45662,39.8271617 C1138.45662,38.3012168 1138.11752,36.8600467 1137.43932,35.5036512 C1136.76113,34.1472557 1135.76078,33.0367069 1134.4383,32.1720048 C1133.11581,31.3073027 1131.50509,30.8749517 1129.60614,30.8749517 C1127.60546,30.8749517 1125.97778,31.2310055 1124.72312,31.9431131 C1123.46845,32.6552207 1122.56136,33.5792651 1122.00185,34.7152463 C1121.44233,35.8512275 1121.16258,37.0974159 1121.16258,38.4538113 C1121.16258,39.4711079 1121.3067,40.3442875 1121.59493,41.0733501 C1121.88316,41.8024126 1122.38333,42.4806103 1123.09544,43.1079432 C1123.80755,43.7352761 1124.78246,44.379564 1126.02017,45.0408068 C1127.25788,45.7020496 1128.84317,46.4565445 1130.77603,47.3042917 C1134.50612,48.7624168 1137.64278,50.2374969 1140.18602,51.7295319 C1142.72927,53.2215669 1144.66213,54.9679261 1145.98462,56.9686094 C1147.3071,58.9692927 1147.96834,61.4447144 1147.96834,64.3948745 C1147.96834,66.8024765 1147.53599,68.9811867 1146.67129,70.9310051 C1145.80659,72.8808236 1144.57735,74.5508855 1142.98359,75.9411909 C1141.38983,77.3314962 1139.48239,78.3911802 1137.2613,79.1202427 C1135.0402,79.8493053 1132.5563,80.2138366 1129.8096,80.2138366 C1125.67259,80.2138366 1122.1714,79.3915218 1119.30601,77.7468923 C1116.44063,76.1022628 1114.27039,73.948985 1112.79531,71.287059 C1111.32023,68.6251329 1110.58269,65.7682249 1110.58269,62.7163351 L1119.58577,62.7163351 C1119.6875,65.2934865 1120.27244,67.2941698 1121.34061,68.718385 C1122.40877,70.1426003 1123.70582,71.125987 1125.23176,71.6685452 C1126.75771,72.2111034 1128.28365,72.4823825 1129.8096,72.4823825 C1131.81028,72.4823825 1133.48882,72.1856709 1134.84522,71.5922479 C1136.20161,70.9988249 1137.22739,70.1426003 1137.92254,69.023574 C1138.61769,67.9045478 1138.96527,66.5990171 1138.96527,65.1069821 Z" id="Path"></path>
                        <path d="M1168.77206,1.06816143 L1168.77206,79.19654 L1159.76898,79.19654 L1159.76898,1.06816143 L1168.77206,1.06816143 Z M1166.58487,49.593209 L1162.9226,49.4406146 C1162.88869,45.6766172 1163.32104,42.1923763 1164.21966,38.987892 C1165.11827,35.7834078 1166.40684,32.9943196 1168.08538,30.6206275 C1169.76392,28.2469355 1171.77308,26.4073241 1174.11287,25.1017935 C1176.45265,23.7962629 1179.04675,23.1434976 1181.89519,23.1434976 C1184.13324,23.1434976 1186.16783,23.5080288 1187.99896,24.2370914 C1189.8301,24.966154 1191.38995,26.1275676 1192.67853,27.7213322 C1193.9671,29.3150969 1194.95897,31.3751225 1195.65412,33.9014091 C1196.34927,36.4276956 1196.69685,39.5050178 1196.69685,43.1333757 L1196.69685,79.19654 L1187.69378,79.19654 L1187.69378,43.031646 C1187.69378,40.1493056 1187.38011,37.8349559 1186.75278,36.0885967 C1186.12544,34.3422376 1185.17597,33.0706168 1183.90435,32.2737345 C1182.63273,31.4768522 1181.03048,31.078411 1179.09762,31.078411 C1177.33431,31.078411 1175.68968,31.5701044 1174.16373,32.5534911 C1172.63779,33.5368778 1171.30682,34.8932732 1170.17084,36.6226774 C1169.03486,38.3520817 1168.1532,40.3273326 1167.52587,42.5484301 C1166.89854,44.7695277 1166.58487,47.1177873 1166.58487,49.593209 Z" id="Shape"></path>
                        <path d="M1229.75899,80.2138366 C1226.46973,80.2138366 1223.50262,79.7221432 1220.85764,78.7387565 C1218.21267,77.7553698 1215.95767,76.2548573 1214.09262,74.2372191 C1212.22758,72.2195808 1210.80336,69.6678619 1209.81998,66.5820622 C1208.83659,63.4962625 1208.3449,59.8509497 1208.3449,55.6461238 L1208.3449,49.4406146 C1208.3449,44.5915008 1208.91289,40.4884045 1210.04887,37.1313257 C1211.18485,33.774247 1212.71927,31.0699335 1214.65214,29.0183854 C1216.585,26.9668373 1218.77219,25.4748023 1221.2137,24.5422804 C1223.65521,23.6097585 1226.16454,23.1434976 1228.74169,23.1434976 C1232.2005,23.1434976 1235.15066,23.7030107 1237.59217,24.8220369 C1240.03369,25.9410632 1242.01741,27.6026476 1243.54336,29.8067903 C1245.0693,32.0109329 1246.19681,34.7237238 1246.92587,37.945163 C1247.65493,41.1666022 1248.01946,44.8797348 1248.01946,49.0845607 L1248.01946,54.3236382 L1213.63484,54.3236382 L1213.63484,46.6430489 L1239.01639,46.6430489 L1239.01639,45.3714282 C1238.88075,42.5229977 1238.49926,40.0136661 1237.87193,37.8434334 C1237.2446,35.6732006 1236.21882,33.9692288 1234.79461,32.731518 C1233.37039,31.4938071 1231.35275,30.8749517 1228.74169,30.8749517 C1227.08011,30.8749517 1225.54569,31.1547082 1224.13843,31.7142214 C1222.73117,32.2737345 1221.52736,33.2401663 1220.52702,34.6135167 C1219.52668,35.9868671 1218.74675,37.8773433 1218.18724,40.2849452 C1217.62773,42.6925471 1217.34797,45.7444369 1217.34797,49.4406146 L1217.34797,55.6461238 C1217.34797,58.5962839 1217.62773,61.1310479 1218.18724,63.2504158 C1218.74675,65.3697838 1219.57755,67.1161429 1220.67962,68.4894933 C1221.78169,69.8628437 1223.13808,70.8801403 1224.7488,71.5413831 C1226.35952,72.2026259 1228.19914,72.5332473 1230.26764,72.5332473 C1233.28562,72.5332473 1235.77799,71.9483017 1237.74477,70.7784107 C1239.71154,69.6085196 1241.42399,68.1080071 1242.88212,66.2768732 L1247.61255,71.9228693 C1246.62916,73.3131747 1245.34906,74.6441377 1243.77225,75.9157585 C1242.19544,77.1873792 1240.26258,78.2216307 1237.97366,79.0185131 C1235.68474,79.8153954 1232.94652,80.2138366 1229.75899,80.2138366 Z" id="Path"></path>
                        <polygon id="Path" points="1268.56885 1.06816143 1268.56885 79.19654 1259.61664 79.19654 1259.61664 1.06816143"></polygon>
                        <polygon id="Path" points="1292.47532 1.06816143 1292.47532 79.19654 1283.52311 79.19654 1283.52311 1.06816143"></polygon>
                        <polygon id="Path" points="1340.28826 1.06816143 1340.28826 79.19654 1331.33605 79.19654 1331.33605 1.06816143"></polygon>
                        <path d="M1364.19473,24.1607942 L1364.19473,79.19654 L1355.24252,79.19654 L1355.24252,24.1607942 L1364.19473,24.1607942 Z M1354.73388,9.562588 C1354.73388,8.03664311 1355.15775,6.74806742 1356.0055,5.69686094 C1356.85324,4.64565445 1358.12487,4.12005121 1359.82036,4.12005121 C1361.51585,4.12005121 1362.79595,4.64565445 1363.66065,5.69686094 C1364.52536,6.74806742 1364.95771,8.03664311 1364.95771,9.562588 C1364.95771,11.0207131 1364.52536,12.2669015 1363.66065,13.301153 C1362.79595,14.3354045 1361.51585,14.8525303 1359.82036,14.8525303 C1358.12487,14.8525303 1356.85324,14.3354045 1356.0055,13.301153 C1355.15775,12.2669015 1354.73388,11.0207131 1354.73388,9.562588 Z" id="Shape"></path>
                        <path d="M1391.40742,79.19654 L1382.40434,79.19654 L1382.40434,18.3622036 C1382.40434,14.3947468 1383.04015,11.0461455 1384.31178,8.31639967 C1385.5834,5.58665381 1387.39757,3.51815073 1389.75431,2.11089044 C1392.11105,0.703630145 1394.91709,0 1398.17244,0 C1399.08801,0 1400.01205,0.0678197731 1400.94457,0.203459319 C1401.8771,0.339098865 1402.76723,0.542558184 1403.61498,0.813837277 L1403.20806,8.49442658 C1402.6655,8.32487714 1402.01274,8.20619254 1401.24976,8.13837277 C1400.48679,8.07055299 1399.76621,8.03664311 1399.08801,8.03664311 C1397.46033,8.03664311 1396.07003,8.43508427 1394.91709,9.23196661 C1393.76416,10.0288489 1392.89098,11.1902626 1392.29755,12.7162074 C1391.70413,14.2421523 1391.40742,16.124151 1391.40742,18.3622036 L1391.40742,79.19654 Z M1400.76655,24.1607942 L1400.76655,31.3836 L1375.2324,31.3836 L1375.2324,24.1607942 L1400.76655,24.1607942 Z" id="Shape"></path>
                        <path d="M1429.86123,80.2138366 C1426.57197,80.2138366 1423.60486,79.7221432 1420.95989,78.7387565 C1418.31491,77.7553698 1416.05991,76.2548573 1414.19486,74.2372191 C1412.32982,72.2195808 1410.9056,69.6678619 1409.92222,66.5820622 C1408.93883,63.4962625 1408.44714,59.8509497 1408.44714,55.6461238 L1408.44714,49.4406146 C1408.44714,44.5915008 1409.01513,40.4884045 1410.15111,37.1313257 C1411.28709,33.774247 1412.82151,31.0699335 1414.75438,29.0183854 C1416.68724,26.9668373 1418.87443,25.4748023 1421.31594,24.5422804 C1423.75745,23.6097585 1426.26678,23.1434976 1428.84393,23.1434976 C1432.30274,23.1434976 1435.2529,23.7030107 1437.69441,24.8220369 C1440.13593,25.9410632 1442.11965,27.6026476 1443.6456,29.8067903 C1445.17154,32.0109329 1446.29905,34.7237238 1447.02811,37.945163 C1447.75717,41.1666022 1448.1217,44.8797348 1448.1217,49.0845607 L1448.1217,54.3236382 L1413.73708,54.3236382 L1413.73708,46.6430489 L1439.11863,46.6430489 L1439.11863,45.3714282 C1438.98299,42.5229977 1438.6015,40.0136661 1437.97417,37.8434334 C1437.34684,35.6732006 1436.32106,33.9692288 1434.89685,32.731518 C1433.47263,31.4938071 1431.45499,30.8749517 1428.84393,30.8749517 C1427.18235,30.8749517 1425.64793,31.1547082 1424.24067,31.7142214 C1422.83341,32.2737345 1421.62961,33.2401663 1420.62926,34.6135167 C1419.62892,35.9868671 1418.84899,37.8773433 1418.28948,40.2849452 C1417.72997,42.6925471 1417.45021,45.7444369 1417.45021,49.4406146 L1417.45021,55.6461238 C1417.45021,58.5962839 1417.72997,61.1310479 1418.28948,63.2504158 C1418.84899,65.3697838 1419.67979,67.1161429 1420.78186,68.4894933 C1421.88393,69.8628437 1423.24032,70.8801403 1424.85104,71.5413831 C1426.46176,72.2026259 1428.30138,72.5332473 1430.36988,72.5332473 C1433.38786,72.5332473 1435.88024,71.9483017 1437.84701,70.7784107 C1439.81378,69.6085196 1441.52623,68.1080071 1442.98436,66.2768732 L1447.71479,71.9228693 C1446.7314,73.3131747 1445.4513,74.6441377 1443.87449,75.9157585 C1442.29768,77.1873792 1440.36482,78.2216307 1438.0759,79.0185131 C1435.78698,79.8153954 1433.04876,80.2138366 1429.86123,80.2138366 Z" id="Path"></path>
                        <path d="M1459.56629,74.2117867 C1459.56629,72.618022 1460.06646,71.270104 1461.0668,70.1680327 C1462.06714,69.0659614 1463.51679,68.5149257 1465.41575,68.5149257 C1467.3147,68.5149257 1468.76435,69.0659614 1469.76469,70.1680327 C1470.76503,71.270104 1471.2652,72.618022 1471.2652,74.2117867 C1471.2652,75.7716414 1470.76503,77.094127 1469.76469,78.1792434 C1468.76435,79.2643598 1467.3147,79.8069179 1465.41575,79.8069179 C1463.51679,79.8069179 1462.06714,79.2643598 1461.0668,78.1792434 C1460.06646,77.094127 1459.56629,75.7716414 1459.56629,74.2117867 Z" id="Path"></path>
                    </g>
                    <g id="dotfiles" transform="translate(14.146896, 0.000000)">
                        <path d="M75.6498741,273.005414 L26.2647485,273.005414 L26.6346745,223.065399 L75.6498741,223.065399 C84.898025,223.065399 92.4506815,221.030806 98.3078438,216.961619 C104.165006,212.892433 108.511637,206.141283 111.347736,196.708169 C114.183836,187.275055 115.601886,174.666743 115.601886,158.883232 L115.601886,117.636479 C115.601886,105.798846 114.831207,95.810843 113.289848,87.6724703 C111.74849,79.5340975 109.374798,72.9987375 106.168772,68.0663904 C102.962746,63.1340433 98.708597,59.5272644 93.4063238,57.2460539 C88.1040506,54.9648433 81.815308,53.8242381 74.540096,53.8242381 L25.3399334,53.8242381 L25.3399334,3.69926035 L74.540096,3.69926035 C90.3236068,3.69926035 104.658241,6.25791542 117.543998,11.3752256 C130.429754,16.4925357 141.558363,24.0143651 150.929822,33.9407137 C160.301282,43.8670623 167.514839,55.8588313 172.570495,69.9160206 C177.626151,83.9732099 180.153979,100.003338 180.153979,118.006405 L180.153979,158.883232 C180.153979,176.76299 177.626151,192.762291 172.570495,206.881135 C167.514839,220.999979 160.332109,232.991748 151.022304,242.856442 C141.712499,252.721136 130.676372,260.212138 117.913924,265.329448 C105.151475,270.446759 91.0634589,273.005414 75.6498741,273.005414 Z M63.257352,3.69926035 L63.257352,273.005414 L0,273.005414 L0,3.69926035 L63.257352,3.69926035 Z" id="Shape"></path>
                        <path d="M408.398342,118.191368 L408.398342,158.883232 C408.398342,178.242694 405.993823,195.259292 401.184785,209.933025 C396.375746,224.606757 389.532115,236.906798 380.65389,246.833147 C371.775665,256.759495 361.2636,264.21967 349.117695,269.213672 C336.971791,274.207673 323.500317,276.704674 308.703276,276.704674 C293.782926,276.704674 280.218971,274.207673 268.011412,269.213672 C255.803853,264.21967 245.260961,256.759495 236.382736,246.833147 C227.504511,236.906798 220.66088,224.606757 215.851841,209.933025 C211.042803,195.259292 208.638284,178.242694 208.638284,158.883232 L208.638284,118.191368 C208.638284,98.8319056 211.042803,81.7536537 215.851841,66.9566123 C220.66088,52.1595709 227.473684,39.8287031 236.290255,29.9640088 C245.106825,20.0993146 255.61889,12.6391395 267.826449,7.58348371 C280.034008,2.5278279 293.597963,0 308.518313,0 C323.315354,0 336.848482,2.5278279 349.117695,7.58348371 C361.386909,12.6391395 371.898974,20.0993146 380.65389,29.9640088 C389.408806,39.8287031 396.22161,52.1595709 401.092303,66.9566123 C405.962996,81.7536537 408.398342,98.8319056 408.398342,118.191368 Z M344.216175,158.883232 L344.216175,117.821442 C344.216175,105.737192 343.476323,95.440917 341.996619,86.9326182 C340.516915,78.4243194 338.297359,71.5190334 335.337951,66.2167602 C332.378542,60.9144871 328.679282,57.0302637 324.24017,54.5640901 C319.801057,52.0979166 314.560438,50.8648298 308.518313,50.8648298 C302.22957,50.8648298 296.865643,52.0979166 292.426531,54.5640901 C287.987418,57.0302637 284.318985,60.9144871 281.421231,66.2167602 C278.523477,71.5190334 276.396402,78.4243194 275.040007,86.9326182 C273.683611,95.440917 273.005414,105.737192 273.005414,117.821442 L273.005414,158.883232 C273.005414,170.844174 273.683611,181.047967 275.040007,189.494611 C276.396402,197.941256 278.523477,204.877369 281.421231,210.302951 C284.318985,215.728533 288.049072,219.705238 292.611494,222.233065 C297.173915,224.760893 302.537842,226.024807 308.703276,226.024807 C314.622093,226.024807 319.831884,224.760893 324.332651,222.233065 C328.833418,219.705238 332.532678,215.728533 335.430432,210.302951 C338.328186,204.877369 340.516915,197.941256 341.996619,189.494611 C343.476323,181.047967 344.216175,170.844174 344.216175,158.883232 Z" id="Shape"></path>
                        <path d="M543.051419,3.69926035 L543.051419,273.005414 L479.609104,273.005414 L479.609104,3.69926035 L543.051419,3.69926035 Z M608.343364,3.69926035 L608.343364,53.8242381 L416.166789,53.8242381 L416.166789,3.69926035 L608.343364,3.69926035 Z" id="Shape"></path>
                        <path d="M698.975243,3.69926035 L698.975243,273.005414 L635.717891,273.005414 L635.717891,3.69926035 L698.975243,3.69926035 Z M781.653712,115.786849 L781.653712,165.726864 L681.773682,165.726864 L681.773682,115.786849 L781.653712,115.786849 Z M789.237195,3.69926035 L789.237195,53.8242381 L681.773682,53.8242381 L681.773682,3.69926035 L789.237195,3.69926035 Z" id="Shape"></path>
                        <polygon id="Path" points="881.903667 3.69926035 881.903667 273.005414 818.831278 273.005414 818.831278 3.69926035"></polygon>
                        <path d="M1076.11484,223.065399 L1076.11484,273.005414 L962.917469,273.005414 L962.917469,223.065399 L1076.11484,223.065399 Z M985.113031,3.69926035 L985.113031,273.005414 L921.855679,273.005414 L921.855679,3.69926035 L985.113031,3.69926035 Z" id="Shape"></path>
                        <path d="M1262.37259,223.065399 L1262.37259,273.005414 L1144.55115,273.005414 L1144.55115,223.065399 L1262.37259,223.065399 Z M1166.56175,3.69926035 L1166.56175,273.005414 L1103.3044,273.005414 L1103.3044,3.69926035 L1166.56175,3.69926035 Z M1247.02066,110.607884 L1247.02066,158.883232 L1144.55115,158.883232 L1144.55115,110.607884 L1247.02066,110.607884 Z M1262.92748,3.69926035 L1262.92748,53.8242381 L1144.55115,53.8242381 L1144.55115,3.69926035 L1262.92748,3.69926035 Z" id="Shape"></path>
                        <path d="M1401.27982,201.424726 C1401.27982,197.232231 1400.87907,193.440489 1400.07756,190.0495 C1399.27605,186.658512 1397.7347,183.483313 1395.45348,180.523905 C1393.17227,177.564497 1389.75046,174.574261 1385.18804,171.553199 C1380.62562,168.532136 1374.52184,165.356938 1366.8767,162.027603 C1357.25862,158.081726 1347.82551,153.611786 1338.57736,148.617784 C1329.32921,143.623783 1321.0367,137.766621 1313.69983,131.046298 C1306.36296,124.325975 1300.47498,116.434219 1296.03586,107.371032 C1291.59675,98.3078438 1289.37719,87.7341246 1289.37719,75.6498741 C1289.37719,64.0588584 1291.62758,53.6084479 1296.12834,44.2986427 C1300.62911,34.9888375 1306.8562,27.0354277 1314.80961,20.4384134 C1322.76302,13.8413991 1332.16531,8.78574333 1343.01647,5.271446 C1353.86763,1.75714867 1365.70527,0 1378.52937,0 C1395.54597,0 1410.5588,3.42181582 1423.56786,10.2654475 C1436.57693,17.1090791 1446.7499,26.7888104 1454.08676,39.3046412 C1461.42363,51.820472 1465.09206,66.5866863 1465.09206,83.6032839 L1402.01967,83.6032839 C1402.01967,76.8213066 1401.15651,70.8408357 1399.43019,65.6618712 C1397.70387,60.4829067 1395.0219,56.4137203 1391.3843,53.454312 C1387.74669,50.4949038 1382.96848,49.0151996 1377.04966,49.0151996 C1371.74739,49.0151996 1367.27745,50.2482864 1363.63985,52.71446 C1360.00224,55.1806335 1357.25862,58.4791407 1355.40899,62.6099814 C1353.55936,66.7408221 1352.63455,71.272416 1352.63455,76.2047632 C1352.63455,80.2739496 1353.55936,83.9423827 1355.40899,87.2100627 C1357.25862,90.4777427 1359.81728,93.5296325 1363.08496,96.3657321 C1366.35264,99.2018317 1370.17521,101.914623 1374.55266,104.504105 C1378.93012,107.093587 1383.64668,109.621415 1388.70233,112.087589 C1400.90989,116.65001 1411.73023,121.736493 1421.16334,127.347037 C1430.59646,132.957582 1438.51904,139.307979 1444.93109,146.398228 C1451.34314,153.488477 1456.18301,161.534369 1459.45069,170.535902 C1462.71837,179.537436 1464.35221,189.710402 1464.35221,201.0548 C1464.35221,213.13905 1462.4101,223.866905 1458.52587,233.238365 C1454.64165,242.609825 1449.00028,250.532407 1441.60176,257.006113 C1434.20324,263.479818 1425.29419,268.381338 1414.8746,271.710673 C1404.45502,275.040007 1392.70987,276.704674 1379.63915,276.704674 C1367.67821,276.704674 1355.93305,274.947525 1344.40369,271.433228 C1332.87433,267.918931 1322.45475,262.493349 1313.14494,255.156483 C1303.83514,247.819616 1296.40579,238.386502 1290.8569,226.857141 C1285.30801,215.327779 1282.53356,201.609689 1282.53356,185.702869 L1346.16084,185.702869 C1346.16084,193.594625 1346.77738,200.253294 1348.01047,205.678875 C1349.24356,211.104457 1351.18567,215.451088 1353.83681,218.718768 C1356.48794,221.986448 1359.90976,224.329313 1364.10225,225.747363 C1368.29475,227.165413 1373.47371,227.874437 1379.63915,227.874437 C1385.31135,227.874437 1389.71963,226.672178 1392.864,224.267659 C1396.00837,221.863139 1398.1971,218.657114 1399.43019,214.649582 C1400.66328,210.64205 1401.27982,206.233764 1401.27982,201.424726 Z" id="Path"></path>
                    </g>
                </g>
                <g id="dotfiles-copy-3">
                    <path d="M121.229029,0 C54.3890043,0 0,54.3872298 0,121.205727 L0,363.710272 C0,430.50375 54.3872589,484.869452 121.229029,484.869452 L363.710243,484.869452 C430.503721,484.869452 484.869423,430.504914 484.869423,363.686999 L484.869423,121.205727 C484.869423,54.3889752 430.504885,0 363.68697,0 L121.229029,0 Z" id="terminal" fill="#2F3A3E"></path>
                    <path d="M217.596658,260.54693 L135.960831,333.094655 C131.347135,337.185581 125.574096,339.23116 119.869886,339.23116 C113.188211,339.23116 106.528645,336.481107 101.733246,331.117614 C92.8470368,321.09452 93.7331559,305.776238 103.756018,296.890029 L164.981433,242.434726 L103.756018,188.002114 C93.7329231,179.115905 92.8468041,163.774351 101.733246,153.774529 C110.642146,143.774126 125.938318,142.842624 135.960831,151.774507 L217.573385,224.298959 C222.732541,228.912654 225.68706,235.503739 225.68706,242.435599 C225.709622,249.367459 222.755058,255.935678 217.596076,260.549548 L217.596658,260.54693 Z" id="Path" fill="#FF00FF"></path>
                    <circle id="dot" fill="#00FF00" cx="302.198201" cy="313.325576" r="24.2505752"></circle>
                </g>
            </g>
        </g>
    </g>
</svg>