<svg xmlns="http://www.w3.org/2000/svg" width="8637" height="2599" viewBox="0 0 8637 2599">
  <defs>
    <radialGradient id="dotfiles-a" cx="100%" cy="0%" r="568.229%" fx="100%" fy="0%" gradientTransform="matrix(-.17599 0 0 -1 1.176 0)">
      <stop offset="0%" stop-color="#63D471"/>
      <stop offset="100%" stop-color="#233329"/>
    </radialGradient>
    <radialGradient id="dotfiles-b" cx="100%" cy="0%" r="155.316%" fx="100%" fy="0%" gradientTransform="matrix(-.64385 0 0 -1 1.644 0)">
      <stop offset="0%" stop-color="#63D471"/>
      <stop offset="100%" stop-color="#233329"/>
    </radialGradient>
    <radialGradient id="dotfiles-c" cx="100%" cy="0%" r="566.57%" fx="100%" fy="0%" gradientTransform="matrix(-.17578 0 0 -1 1.176 0)">
      <stop offset="0%" stop-color="#A71D31"/>
      <stop offset="100%" stop-color="#3F0D12"/>
    </radialGradient>
    <radialGradient id="dotfiles-d" cx="100%" cy="0%" r="155.043%" fx="100%" fy="0%" gradientTransform="matrix(-.64498 0 0 -1 1.645 0)">
      <stop offset="0%" stop-color="#A71D31"/>
      <stop offset="99.591%" stop-color="#3F0D12"/>
    </radialGradient>
    <radialGradient id="dotfiles-e" cx="100%" cy="0%" r="568.898%" fx="100%" fy="0%" gradientTransform="matrix(-.17578 0 0 -1 1.176 0)">
      <stop offset="0%" stop-color="#2A5470"/>
      <stop offset="100%" stop-color="#4C4177"/>
    </radialGradient>
    <radialGradient id="dotfiles-f" cx="100%" cy="0%" r="155.043%" fx="100%" fy="0%" gradientTransform="matrix(-.64498 0 0 -1 1.645 0)">
      <stop offset="0%" stop-color="#2A5470"/>
      <stop offset="100%" stop-color="#4C4177"/>
    </radialGradient>
    <radialGradient id="dotfiles-g" cx="100%" cy="0%" r="568.898%" fx="100%" fy="0%" gradientTransform="matrix(-.17578 0 0 -1 1.176 0)">
      <stop offset="0%" stop-color="#0CBABA"/>
      <stop offset="100%" stop-color="#380036"/>
    </radialGradient>
    <radialGradient id="dotfiles-h" cx="100%" cy="0%" r="155.043%" fx="100%" fy="0%" gradientTransform="matrix(-.64498 0 0 -1 1.645 0)">
      <stop offset="0%" stop-color="#0CBABA"/>
      <stop offset="100%" stop-color="#380036"/>
    </radialGradient>
    <radialGradient id="dotfiles-i" cx="100%" cy="0%" r="568.898%" fx="100%" fy="0%" gradientTransform="matrix(-.17578 0 0 -1 1.176 0)">
      <stop offset="0%" stop-color="#7F5A83"/>
      <stop offset="100%" stop-color="#0D324D"/>
    </radialGradient>
    <radialGradient id="dotfiles-j" cx="100%" cy="0%" r="155.043%" fx="100%" fy="0%" gradientTransform="matrix(-.64498 0 0 -1 1.645 0)">
      <stop offset="0%" stop-color="#7F5A83"/>
      <stop offset="100%" stop-color="#0D324D"/>
    </radialGradient>
  </defs>
  <g fill="none">
    <path fill="url(#dotfiles-a)" d="M5362.57188,1155.56025 L5362.57188,972.642398 C5362.47529,870.864259 5280.02617,788.28728 5178.28034,788 L3448.195,788 C3351.92358,788.192383 3273.98732,866.254842 3273.98732,962.562587 L3273.98732,1155.56025 L5362.57188,1155.56025 Z"/>
    <path fill="url(#dotfiles-b)" d="M3274,1254 L3274,2549.86705 C3274,2577 3296.01004,2599 3323.15431,2599 L5313.84569,2599 C5340.98996,2599 5363,2577 5363,2549.86705 L5363,1254 L3274,1254 Z M3842.35912,2155.05242 L3610.89293,2348.42774 C3597.52367,2360.43814 3578.65858,2364.18248 3561.71492,2358.18858 C3544.77127,2352.19467 3532.45865,2337.42106 3529.61808,2319.67635 C3526.7775,2301.93164 3533.86322,2284.05353 3548.08932,2273.07123 L3734.39291,2117.47064 L3548.0876,1961.87005 C3533.89791,1950.87618 3526.84259,1933.0139 3529.69014,1915.29229 C3532.53769,1897.57069 3544.8338,1882.81705 3561.75353,1876.82065 C3578.67327,1870.82424 3597.51727,1874.54174 3610.89121,1886.5144 L3842.3574,2079.69763 C3853.53686,2089.01893 3860,2102.82218 3860,2117.37675 C3860,2131.93132 3853.53686,2145.73457 3842.3574,2155.05587 L3842.35912,2155.05242 Z"/>
    <text fill="#FFF" font-family="OpenSansLight-Italic, Open Sans" font-size="333" font-style="italic" font-weight="300">
      <tspan x="3915.967" y="2227.109">Dotfiles</tspan>
    </text>
    <g transform="translate(5555 466)">
      <path fill="url(#dotfiles-c)" d="M1445,254 L1445,127.595866 C1444.93318,57.2627794 1387.89025,0.198522733 1317.49677,0 L120.526648,0 C53.92068,0.132944653 0,54.0774732 0,120.630282 L0,254 L1445,254 Z"/>
      <path fill="url(#dotfiles-d)" d="M0,322 L0,1219.95397 C0,1238.75539 15.2247496,1254 34.0009476,1254 L1410.99905,1254 C1429.77525,1254 1445,1238.75539 1445,1219.95397 L1445,322 L0,322 Z M393.192526,946.192508 L232.888025,1080.31364 C223.628993,1088.6438 210.563762,1091.2408 198.829245,1087.08355 C187.094728,1082.9263 178.567487,1072.67963 176.600214,1060.37227 C174.63294,1048.0649 179.540238,1035.66501 189.392683,1028.04791 L318.419319,920.12656 L189.391489,812.205205 C179.564257,804.580083 174.67802,792.191168 176.650121,779.89983 C178.622222,767.608493 187.138037,757.37567 198.855985,753.21669 C210.573934,749.05771 223.624557,751.636088 232.886832,759.940077 L393.191333,893.927978 C400.933796,900.393038 405.409915,909.966691 405.409915,920.061438 C405.409915,930.156185 400.933796,939.729838 393.191333,946.194898 L393.192526,946.192508 Z"/>
      <text fill="#FFF" font-family="OpenSansLight-Italic, Open Sans" font-size="333" font-style="italic" font-weight="300" transform="translate(433.229 652)">
        <tspan x="0" y="356">zsh</tspan>
      </text>
    </g>
    <g transform="translate(7192 112)">
      <path fill="url(#dotfiles-e)" d="M1445,254 L1445,127.595866 C1444.93318,57.2627794 1387.89025,0.198522733 1317.49677,0 L120.526648,0 C53.92068,0.132944653 0,54.0774732 0,120.630282 L0,254 L1445,254 Z"/>
      <path fill="url(#dotfiles-f)" d="M0,322 L0,1219.95397 C0,1238.75539 15.2247496,1254 34.0009476,1254 L1410.99905,1254 C1429.77525,1254 1445,1238.75539 1445,1219.95397 L1445,322 L0,322 Z M393.192526,946.192508 L232.888025,1080.31364 C223.628993,1088.6438 210.563762,1091.2408 198.829245,1087.08355 C187.094728,1082.9263 178.567487,1072.67963 176.600214,1060.37227 C174.63294,1048.0649 179.540238,1035.66501 189.392683,1028.04791 L318.419319,920.12656 L189.391489,812.205205 C179.564257,804.580083 174.67802,792.191168 176.650121,779.89983 C178.622222,767.608493 187.138037,757.37567 198.855985,753.21669 C210.573934,749.05771 223.624557,751.636088 232.886832,759.940077 L393.191333,893.927978 C400.933796,900.393038 405.409915,909.966691 405.409915,920.061438 C405.409915,930.156185 400.933796,939.729838 393.191333,946.194898 L393.192526,946.192508 Z"/>
      <text fill="#FFF" font-family="OpenSansLight-Italic, Open Sans" font-size="333" font-style="italic" font-weight="300" transform="translate(433.229 652)">
        <tspan x="0" y="356">brew</tspan>
      </text>
    </g>
    <path fill="url(#dotfiles-g)" d="M1445,254 L1445,127.595866 C1444.93318,57.2627794 1387.89025,0.198522733 1317.49677,0 L120.526648,0 C53.92068,0.132944653 0,54.0774732 0,120.630282 L0,254 L1445,254 Z"/>
    <path fill="url(#dotfiles-h)" d="M0,322 L0,1219.95397 C0,1238.75539 15.2247496,1254 34.0009476,1254 L1410.99905,1254 C1429.77525,1254 1445,1238.75539 1445,1219.95397 L1445,322 L0,322 Z M393.192526,946.192508 L232.888025,1080.31364 C223.628993,1088.6438 210.563762,1091.2408 198.829245,1087.08355 C187.094728,1082.9263 178.567487,1072.67963 176.600214,1060.37227 C174.63294,1048.0649 179.540238,1035.66501 189.392683,1028.04791 L318.419319,920.12656 L189.391489,812.205205 C179.564257,804.580083 174.67802,792.191168 176.650121,779.89983 C178.622222,767.608493 187.138037,757.37567 198.855985,753.21669 C210.573934,749.05771 223.624557,751.636088 232.886832,759.940077 L393.191333,893.927978 C400.933796,900.393038 405.409915,909.966691 405.409915,920.061438 C405.409915,930.156185 400.933796,939.729838 393.191333,946.194898 L393.192526,946.192508 Z"/>
    <text fill="#FFF" font-family="OpenSansLight-Italic, Open Sans" font-size="333" font-style="italic" font-weight="300" transform="translate(433.229 652)">
      <tspan x="0" y="356">git</tspan>
    </text>
    <path fill="url(#dotfiles-i)" d="M3082,720 L3082,593.595866 C3081.93318,523.262779 3024.89025,466.198523 2954.49677,466 L1757.52665,466 C1690.92068,466.132945 1637,520.077473 1637,586.630282 L1637,720 L3082,720 Z"/>
    <path fill="url(#dotfiles-j)" d="M1637,788 L1637,1685.95397 C1637,1704.75539 1652.22475,1720 1671.00095,1720 L3047.99905,1720 C3066.77525,1720 3082,1704.75539 3082,1685.95397 L3082,788 L1637,788 Z M2030.19253,1412.19251 L1869.88802,1546.31364 C1860.62899,1554.6438 1847.56376,1557.2408 1835.82924,1553.08355 C1824.09473,1548.9263 1815.56749,1538.67963 1813.60021,1526.37227 C1811.63294,1514.0649 1816.54024,1501.66501 1826.39268,1494.04791 L1955.41932,1386.12656 L1826.39149,1278.2052 C1816.56426,1270.58008 1811.67802,1258.19117 1813.65012,1245.89983 C1815.62222,1233.60849 1824.13804,1223.37567 1835.85598,1219.21669 C1847.57393,1215.05771 1860.62456,1217.63609 1869.88683,1225.94008 L2030.19133,1359.92798 C2037.9338,1366.39304 2042.40991,1375.96669 2042.40991,1386.06144 C2042.40991,1396.15619 2037.9338,1405.72984 2030.19133,1412.1949 L2030.19253,1412.19251 Z"/>
    <text fill="#FFF" font-family="OpenSansLight-Italic, Open Sans" font-size="333" font-style="italic" font-weight="300">
      <tspan x="2082.655" y="1495">bash</tspan>
    </text>
  </g>
</svg>
