<?xml version="1.0" encoding="UTF-8"?>
<svg width="1372px" height="333px" viewBox="0 0 1372 333" version="1.1" xmlns="http://www.w3.org/2000/svg" xmlns:xlink="http://www.w3.org/1999/xlink">
    <title>dotfiles</title>
    <g id="dotfiles" stroke="none" stroke-width="1" fill="none" fill-rule="evenodd">
        <g>
            <g id="Headers" transform="translate(358.281541, 33.684755)" fill="#2F3A3E" fill-rule="nonzero">
                <g id="Simply-designed-to-f" transform="translate(0.000000, 211.608185)">
                    <path d="M24.713989,41.4456036 C24.713989,40.2604476 24.5745589,39.2089121 24.2956987,38.2909971 C24.0168384,37.3730821 23.528833,36.542311 22.8316824,35.7986837 C22.1345318,35.0550564 21.1585209,34.3462866 19.9036498,33.6723743 C18.6487787,32.9984621 17.0569515,32.3129306 15.1281682,31.61578 C13.0367164,30.8721527 11.1427905,30.0413816 9.44639073,29.1234666 C7.74999092,28.2055516 6.30340341,27.1540161 5.1066282,25.9688601 C3.90985299,24.7837041 2.98612843,23.4242604 2.33545453,21.8905291 C1.68478063,20.3567977 1.35944368,18.602302 1.35944368,16.627042 C1.35944368,14.6517819 1.7022094,12.8275712 2.38774083,11.1544097 C3.07327226,9.48124826 4.04928311,8.02304157 5.31577338,6.77978965 C6.58226365,5.53653774 8.1101854,4.56633648 9.89953862,3.86918587 C11.6888918,3.17203526 13.6873903,2.82345996 15.8950338,2.82345996 C19.19488,2.82345996 21.9776729,3.54965851 24.2434124,5.00205561 C26.5091518,6.4544527 28.2229804,8.34837852 29.3848981,10.6838331 C30.5468158,13.0192876 31.1277746,15.511601 31.1277746,18.1607733 L24.713989,18.1607733 C24.713989,16.2552283 24.4060808,14.5646381 23.7902645,13.0890026 C23.1744481,11.6133672 22.2216756,10.4514495 20.931947,9.60324961 C19.6422184,8.75504971 17.9632473,8.33094975 15.8950338,8.33094975 C14.0359656,8.33094975 12.5080438,8.69114423 11.3112686,9.4115332 C10.1144934,10.1319222 9.23143596,11.107933 8.66209629,12.3395657 C8.09275663,13.5711985 7.8080868,14.9771189 7.8080868,16.5573269 C7.8080868,17.6262912 7.99399363,18.5964924 8.36580728,19.4679307 C8.73762094,20.339369 9.31277019,21.1469017 10.091255,21.8905291 C10.8697399,22.6341564 11.8457507,23.3196878 13.0192876,23.9471234 C14.1928244,24.5745589 15.5813161,25.1787561 17.1847625,25.7597149 C19.6712663,26.5730573 21.7975756,27.4793531 23.5636905,28.4786023 C25.3298054,29.4778515 26.7705833,30.5991021 27.8860243,31.842354 C29.0014653,33.0856059 29.8206172,34.4915263 30.3434802,36.0601152 C30.8663431,37.628704 31.1277746,39.4006285 31.1277746,41.3758885 C31.1277746,43.444102 30.7850089,45.3147895 30.0994775,46.9879509 C29.413946,48.6611124 28.4205064,50.0902711 27.1191586,51.2754272 C25.8178108,52.4605832 24.2492219,53.3726886 22.413392,54.0117433 C20.5775621,54.650798 18.5093486,54.9703254 16.2087516,54.9703254 C14.2102532,54.9703254 12.2524219,54.6449884 10.3352577,53.9943145 C8.41809358,53.3436406 6.68102665,52.3676298 5.12405696,51.066282 C3.56708727,49.7649342 2.32383536,48.1556782 1.39430121,46.238514 C0.464767071,44.3213498 0,42.0962775 0,39.563297 L6.41378559,39.563297 C6.41378559,41.3061735 6.66940747,42.7992377 7.18065125,44.0424896 C7.69189503,45.2857415 8.40066482,46.3140387 9.3069606,47.127381 C10.2132564,47.9407234 11.2531727,48.539111 12.4267096,48.9225439 C13.6002464,49.3059767 14.8609271,49.4976931 16.2087516,49.4976931 C18.0678199,49.4976931 19.6305992,49.1723562 20.8970894,48.5216823 C22.1635797,47.8710084 23.1163522,46.9414742 23.7554069,45.7330798 C24.3944617,44.5246854 24.713989,43.0955267 24.713989,41.4456036 Z" id="Path"></path>
                    <path d="M45.3147895,16.5573269 L45.3147895,54.2731748 L39.1798641,54.2731748 L39.1798641,16.5573269 L45.3147895,16.5573269 Z M38.8312888,6.55321571 C38.8312888,5.5074898 39.1217682,4.62443236 39.7027271,3.9040434 C40.2836859,3.18365444 41.1551242,2.82345996 42.3170418,2.82345996 C43.4789595,2.82345996 44.3562074,3.18365444 44.9487854,3.9040434 C45.5413634,4.62443236 45.8376524,5.5074898 45.8376524,6.55321571 C45.8376524,7.55246491 45.5413634,8.4064744 44.9487854,9.11524419 C44.3562074,9.82401397 43.4789595,10.1783989 42.3170418,10.1783989 C41.1551242,10.1783989 40.2836859,9.82401397 39.7027271,9.11524419 C39.1217682,8.4064744 38.8312888,7.55246491 38.8312888,6.55321571 Z" id="Shape"></path>
                    <path d="M61.2446808,24.0516959 L61.2446808,54.2731748 L55.1097555,54.2731748 L55.1097555,16.5573269 L60.8961055,16.5573269 L61.2446808,24.0516959 Z M59.9898097,33.9860921 L57.1314922,33.8815195 C57.1082539,31.3020623 57.3638758,28.9143214 57.8983579,26.718297 C58.43284,24.5222726 59.2403728,22.610918 60.3209563,20.9842333 C61.4015397,19.3575485 62.7609834,18.0968678 64.3992873,17.2021912 C66.0375913,16.3075146 67.9489458,15.8601763 70.1333511,15.8601763 C71.574129,15.8601763 72.9161439,16.1099886 74.1593958,16.6096132 C75.4026477,17.1092378 76.4890408,17.8935322 77.4185749,18.9624965 C78.3481091,20.0314608 79.0743076,21.4025236 79.5971706,23.0756851 C80.1200335,24.7488466 80.381465,26.7705833 80.381465,29.1408954 L80.381465,54.2731748 L74.2116821,54.2731748 L74.2116821,29.4546131 C74.2116821,27.4793531 73.9502506,25.8991451 73.4273877,24.713989 C72.9045247,23.528833 72.166707,22.6632043 71.2139345,22.117103 C70.261162,21.5710017 69.1224827,21.297951 67.7978965,21.297951 C66.2874036,21.297951 65.0267229,21.6349072 64.0158545,22.3088194 C63.0049861,22.9827317 62.2032629,23.9122658 61.6106849,25.0974219 C61.0181069,26.2825779 60.5998165,27.636212 60.3558138,29.1583241 C60.1118111,30.6804363 59.9898097,32.2896923 59.9898097,33.9860921 Z M80.3117499,30.430624 L76.1985614,31.7552102 C76.175323,29.6869967 76.4309449,27.7001175 76.965427,25.7945725 C77.4999092,23.8890275 78.2958228,22.1926277 79.3531679,20.705373 C80.4105129,19.2181184 81.7292895,18.038772 83.3094975,17.1673337 C84.8897056,16.2958954 86.7255355,15.8601763 88.8169873,15.8601763 C90.5366255,15.8601763 92.0587377,16.1274174 93.3833238,16.6618995 C94.70791,17.1963816 95.8291605,18.0155336 96.7470755,19.1193554 C97.6649905,20.2231772 98.3563315,21.6349072 98.8210986,23.3545453 C99.2858656,25.0741835 99.5182492,27.1191586 99.5182492,29.4894707 L99.5182492,54.2731748 L93.3484663,54.2731748 L93.3484663,29.4197556 C93.3484663,27.3050654 93.0870348,25.6609519 92.5641719,24.4874151 C92.0413089,23.3138782 91.3034912,22.4889167 90.3507187,22.0125304 C89.3979462,21.5361442 88.2592669,21.297951 86.9346807,21.297951 C85.8657164,21.297951 84.9187535,21.5419538 84.093792,22.0299592 C83.2688304,22.5179646 82.5774894,23.1860673 82.0197689,24.0342672 C81.4620484,24.8824671 81.0379485,25.8526683 80.7474691,26.944871 C80.4569896,28.0370736 80.3117499,29.1989913 80.3117499,30.430624 Z" id="Shape"></path>
                    <path d="M114.994993,23.8076932 L114.994993,68.7739074 L108.82521,68.7739074 L108.82521,16.5573269 L114.437272,16.5573269 L114.994993,23.8076932 Z M136.083799,33.7072319 L136.083799,37.2278424 C136.083799,40.2023517 135.810748,42.7992377 135.264647,45.0185005 C134.718545,47.2377632 133.916822,49.0852123 132.859477,50.5608478 C131.802132,52.0364832 130.506594,53.140305 128.972862,53.8723132 C127.439131,54.6043213 125.684635,54.9703254 123.709375,54.9703254 C121.734115,54.9703254 120.020287,54.5927021 118.567889,53.8374556 C117.115492,53.0822091 115.895479,51.9841969 114.907849,50.543419 C113.920219,49.1026411 113.141734,47.3655742 112.572394,45.3322182 C112.003055,43.2988623 111.613812,41.015694 111.404667,38.4827135 L111.404667,33.1146538 C111.613812,30.4422432 111.997245,28.0428832 112.554966,25.9165738 C113.112686,23.7902645 113.885361,21.9776729 114.872991,20.4787991 C115.860621,18.9799253 117.080635,17.8354364 118.533032,17.0453323 C119.985429,16.2552283 121.687638,15.8601763 123.63966,15.8601763 C125.661397,15.8601763 127.444941,16.2087516 128.990291,16.9059022 C130.535642,17.6030528 131.836989,18.6778267 132.894334,20.1302238 C133.95168,21.5826209 134.747593,23.43007 135.282075,25.6725711 C135.816557,27.9150722 136.083799,30.5932925 136.083799,33.7072319 Z M129.914016,37.2278424 L129.914016,33.7072319 C129.914016,31.61578 129.757157,29.7915693 129.443439,28.2345996 C129.129721,26.6776299 128.635906,25.3879013 127.961994,24.3654137 C127.288082,23.3429262 126.439882,22.5760605 125.417394,22.0648167 C124.394907,21.5535729 123.163274,21.297951 121.722496,21.297951 C120.490863,21.297951 119.40447,21.5535729 118.463317,22.0648167 C117.522164,22.5760605 116.714631,23.2674015 116.040719,24.1388398 C115.366806,25.010278 114.809086,25.9979081 114.367557,27.1017298 C113.926028,28.2055516 113.600691,29.3500406 113.391546,30.5351966 L113.391546,41.0970283 C113.786598,42.5842829 114.309461,43.9843937 114.960135,45.2973607 C115.610809,46.6103277 116.488057,47.6734823 117.591879,48.4868247 C118.6957,49.3001671 120.095811,49.7068383 121.792211,49.7068383 C123.209751,49.7068383 124.429764,49.4512164 125.452252,48.9399726 C126.474739,48.4287288 127.31713,47.6560536 127.979423,46.6219468 C128.641716,45.5878401 129.129721,44.2864923 129.443439,42.7179034 C129.757157,41.1493146 129.914016,39.3192942 129.914016,37.2278424 Z" id="Shape"></path>
                    <polygon id="Path" points="150.654246 0.732008137 150.654246 54.2731748 144.519321 54.2731748 144.519321 0.732008137"></polygon>
                    <path d="M169.163595,50.3691314 L177.56426,16.5573269 L184.117475,16.5573269 L171.673337,60.0943823 C171.371238,61.0239165 170.970377,62.0289753 170.470752,63.1095587 C169.971128,64.1901421 169.337882,65.2184393 168.571017,66.1944501 C167.804151,67.170461 166.886236,67.9663746 165.817272,68.582191 C164.748308,69.1980073 163.493437,69.5059155 162.052659,69.5059155 C161.61113,69.5059155 161.0476,69.4362005 160.362068,69.2967703 C159.676537,69.1573402 159.182722,69.0411485 158.880623,68.948195 L158.880623,63.7195655 C159.020053,63.7428038 159.240818,63.7718518 159.542916,63.8067093 C159.845015,63.8415668 160.065779,63.8589956 160.20521,63.8589956 C161.413604,63.8589956 162.441901,63.6672792 163.290101,63.2838464 C164.138301,62.9004135 164.864499,62.2613588 165.468697,61.3666822 C166.072894,60.4720056 166.584138,59.2461824 167.002428,57.6892127 L169.163595,50.3691314 Z M163.72582,16.5573269 L171.220189,45.8376524 L172.823635,52.6348708 L168.431587,55.0051829 L156.998317,16.5573269 L163.72582,16.5573269 Z" id="Shape"></path>
                    <path d="M226.295087,46.9530934 L226.295087,0.732008137 L232.430012,0.732008137 L232.430012,54.2731748 L226.81795,54.2731748 L226.295087,46.9530934 Z M205.206281,37.2278424 L205.206281,33.7072319 C205.206281,30.5932925 205.50838,27.9150722 206.112577,25.6725711 C206.716774,23.43007 207.576593,21.5826209 208.692034,20.1302238 C209.807475,18.6778267 211.143681,17.6030528 212.70065,16.9059022 C214.25762,16.2087516 215.977258,15.8601763 217.859565,15.8601763 C219.811586,15.8601763 221.490557,16.2552283 222.896478,17.0453323 C224.302398,17.8354364 225.481745,18.9799253 226.434517,20.4787991 C227.38729,21.9776729 228.136727,23.7902645 228.682828,25.9165738 C229.228929,28.0428832 229.594933,30.4422432 229.78084,33.1146538 L229.78084,37.8204204 C229.571695,40.4695927 229.194072,42.851524 228.64797,44.9662142 C228.101869,47.0809043 227.352432,48.8818767 226.39966,50.3691314 C225.446887,51.856386 224.261731,52.9950653 222.844192,53.7851693 C221.426652,54.5752734 219.741871,54.9703254 217.78985,54.9703254 C215.930781,54.9703254 214.234382,54.6043213 212.70065,53.8723132 C211.166919,53.140305 209.836523,52.0364832 208.709463,50.5608478 C207.582403,49.0852123 206.716774,47.2377632 206.112577,45.0185005 C205.50838,42.7992377 205.206281,40.2023517 205.206281,37.2278424 Z M211.376064,33.7072319 L211.376064,37.2278424 C211.376064,39.3192942 211.527113,41.1376954 211.829212,42.6830459 C212.131311,44.2283964 212.607697,45.5065059 213.258371,46.5173743 C213.909045,47.5282426 214.739816,48.2776795 215.750684,48.765685 C216.761553,49.2536904 217.975756,49.4976931 219.393296,49.4976931 C221.112934,49.4976931 222.518855,49.0794027 223.611057,48.242822 C224.70326,47.4062413 225.580508,46.2966099 226.242801,44.9139279 C226.905094,43.5312458 227.433766,42.0381816 227.828818,40.4347352 L227.828818,30.5351966 C227.596435,29.3500406 227.259479,28.2055516 226.81795,27.1017298 C226.376421,25.9979081 225.82451,25.010278 225.162217,24.1388398 C224.499924,23.2674015 223.698201,22.5760605 222.757048,22.0648167 C221.815894,21.5535729 220.717882,21.297951 219.463011,21.297951 C218.045472,21.297951 216.819648,21.5535729 215.785542,22.0648167 C214.751435,22.5760605 213.914854,23.3429262 213.275799,24.3654137 C212.636745,25.3879013 212.160358,26.6776299 211.846641,28.2345996 C211.532923,29.7915693 211.376064,31.61578 211.376064,33.7072319 Z" id="Shape"></path>
                    <path d="M255.435982,54.9703254 C253.181862,54.9703254 251.148506,54.6333692 249.335915,53.959457 C247.523323,53.2855447 245.977973,52.2572476 244.699863,50.8745656 C243.421754,49.4918835 242.445743,47.7431974 241.771831,45.6285072 C241.097918,43.5138171 240.760962,41.015694 240.760962,38.1341382 L240.760962,33.8815195 C240.760962,30.5584349 241.150205,27.7465942 241.928689,25.4459972 C242.707174,23.1454002 243.75871,21.2921415 245.083296,19.8862211 C246.407882,18.4803007 247.906756,17.4578131 249.579917,16.8187584 C251.253079,16.1797037 252.972717,15.8601763 254.738832,15.8601763 C257.109144,15.8601763 259.130881,16.2436091 260.804042,17.0104748 C262.477204,17.7773405 263.836647,18.9160198 264.882373,20.4265128 C265.928099,21.9370058 266.700774,23.7960741 267.200399,26.0037176 C267.700024,28.2113612 267.949836,30.7559609 267.949836,33.6375168 L267.949836,37.2278424 L244.386145,37.2278424 L244.386145,31.9643553 L261.780053,31.9643553 L261.780053,31.0929171 C261.6871,29.1408954 261.425668,27.4212572 260.995759,25.9340026 C260.565849,24.446748 259.862889,23.2790207 258.886878,22.4308208 C257.910867,21.5826209 256.528185,21.1585209 254.738832,21.1585209 C253.600152,21.1585209 252.548617,21.3502373 251.584225,21.7336702 C250.619834,22.117103 249.794872,22.7793961 249.109341,23.7205494 C248.423809,24.6617027 247.889327,25.9572409 247.505894,27.607164 C247.122461,29.2570871 246.930745,31.348539 246.930745,33.8815195 L246.930745,38.1341382 C246.930745,40.155875 247.122461,41.8929419 247.505894,43.345339 C247.889327,44.7977361 248.458667,45.9945113 249.213913,46.9356646 C249.96916,47.8768179 250.898694,48.5739685 252.002516,49.0271164 C253.106337,49.4802643 254.367018,49.7068383 255.784558,49.7068383 C257.852771,49.7068383 259.56079,49.3059767 260.908615,48.5042535 C262.256439,47.7025303 263.429976,46.6742331 264.429225,45.4193621 L267.670976,49.2885479 C266.997063,50.2413204 266.119815,51.1534258 265.039232,52.0248641 C263.958649,52.8963023 262.634062,53.6050721 261.065474,54.1511734 C259.496885,54.6972747 257.620388,54.9703254 255.435982,54.9703254 Z" id="Path"></path>
                    <path d="M293.709551,44.6176389 C293.709551,43.6648664 293.477167,42.8282856 293.0124,42.1078967 C292.547633,41.3875077 291.786577,40.6903571 290.729232,40.0164448 C289.671887,39.3425326 288.248538,38.6221436 286.459184,37.855278 C284.716308,37.134889 283.153529,36.4203096 281.770847,35.7115398 C280.388165,35.0027701 279.220437,34.2300948 278.267665,33.3935141 C277.314892,32.5569334 276.588694,31.5867321 276.089069,30.4829103 C275.589445,29.3790885 275.339632,28.0719311 275.339632,26.5614381 C275.339632,25.0509451 275.624302,23.6508343 276.193642,22.3611057 C276.762981,21.0713771 277.570514,19.9385074 278.61624,18.9624965 C279.661966,17.9864857 280.916837,17.2254296 282.380853,16.6793283 C283.84487,16.133227 285.483174,15.8601763 287.295765,15.8601763 C289.875222,15.8601763 292.071247,16.3598009 293.883838,17.3590501 C295.69643,18.3582993 297.084922,19.7235526 298.049313,21.4548099 C299.013705,23.1860673 299.495901,25.1322794 299.495901,27.2934463 L293.360975,27.2934463 C293.360975,26.2477204 293.128592,25.2600903 292.663825,24.3305562 C292.199058,23.401022 291.513526,22.639966 290.607231,22.0473879 C289.700935,21.4548099 288.597113,21.1585209 287.295765,21.1585209 C285.924702,21.1585209 284.809261,21.4025236 283.949442,21.8905291 C283.089623,22.3785345 282.467997,23.0117796 282.084564,23.7902645 C281.701132,24.5687493 281.509415,25.4227588 281.509415,26.3522929 C281.509415,27.0494436 281.608178,27.6478312 281.805704,28.1474558 C282.00323,28.6470804 282.345996,29.1118474 282.834001,29.541757 C283.322007,29.9716665 283.990109,30.4131952 284.838309,30.8663431 C285.686509,31.319491 286.772902,31.8365444 288.097488,32.4175032 C290.653707,33.4167524 292.803255,34.4276208 294.546131,35.4501084 C296.289008,36.4725959 297.613594,37.6693711 298.51989,39.040434 C299.426186,40.4114969 299.879334,42.1078967 299.879334,44.1296334 C299.879334,45.7795565 299.583045,47.2726207 298.990467,48.6088261 C298.397889,49.9450314 297.555498,51.0895203 296.463296,52.0422928 C295.371093,52.9950653 294.063936,53.7212639 292.541823,54.2208885 C291.019711,54.7205131 289.317502,54.9703254 287.435195,54.9703254 C284.600116,54.9703254 282.200756,54.4067953 280.237115,53.2797351 C278.273474,52.152675 276.78622,50.6770395 275.775351,48.8528288 C274.764483,47.028618 274.259049,45.0707867 274.259049,42.9793349 L280.428832,42.9793349 C280.498547,44.7454498 280.899408,46.1165127 281.631416,47.0925235 C282.363425,48.0685344 283.252292,48.7424466 284.298018,49.1142603 C285.343743,49.4860739 286.389469,49.6719808 287.435195,49.6719808 C288.806258,49.6719808 289.956557,49.4686452 290.886091,49.061974 C291.815625,48.6553028 292.518585,48.0685344 292.994971,47.3016687 C293.471358,46.534803 293.709551,45.6401264 293.709551,44.6176389 Z" id="Path"></path>
                    <path d="M314.589211,16.5573269 L314.589211,54.2731748 L308.454286,54.2731748 L308.454286,16.5573269 L314.589211,16.5573269 Z M308.105711,6.55321571 C308.105711,5.5074898 308.39619,4.62443236 308.977149,3.9040434 C309.558108,3.18365444 310.429546,2.82345996 311.591464,2.82345996 C312.753382,2.82345996 313.630629,3.18365444 314.223207,3.9040434 C314.815785,4.62443236 315.112074,5.5074898 315.112074,6.55321571 C315.112074,7.55246491 314.815785,8.4064744 314.223207,9.11524419 C313.630629,9.82401397 312.753382,10.1783989 311.591464,10.1783989 C310.429546,10.1783989 309.558108,9.82401397 308.977149,9.11524419 C308.39619,8.4064744 308.105711,7.55246491 308.105711,6.55321571 Z" id="Shape"></path>
                    <path d="M344.775833,16.5573269 L350.31818,16.5573269 L350.31818,54.5868925 C350.31818,57.9099771 349.743031,60.6521028 348.592732,62.8132697 C347.442434,64.9744366 345.844797,66.5720734 343.799822,67.6061801 C341.754847,68.6402869 339.396154,69.1573402 336.723743,69.1573402 C335.770971,69.1573402 334.574196,68.9830526 333.133418,68.6344773 C331.69264,68.285902 330.251862,67.7572294 328.811084,67.0484596 C327.370306,66.3396899 326.18515,65.4508228 325.255616,64.3818586 L327.800215,60.0943823 C329.124802,61.4422068 330.530722,62.4065985 332.017977,62.9875573 C333.505231,63.5685162 334.922771,63.8589956 336.270595,63.8589956 C337.874042,63.8589956 339.268343,63.5685162 340.453499,62.9875573 C341.638655,62.4065985 342.55657,61.4596356 343.207244,60.1466686 C343.857918,58.8337016 344.183255,57.0850155 344.183255,54.9006103 L344.183255,24.8534191 L344.775833,16.5573269 Z M323.094449,37.2278424 L323.094449,33.7072319 C323.094449,30.5932925 323.384928,27.9150722 323.965887,25.6725711 C324.546846,23.43007 325.389236,21.5826209 326.493058,20.1302238 C327.59688,18.6778267 328.927276,17.6030528 330.484245,16.9059022 C332.041215,16.2087516 333.784091,15.8601763 335.712875,15.8601763 C337.664897,15.8601763 339.349677,16.2552283 340.767217,17.0453323 C342.184756,17.8354364 343.364103,18.9799253 344.305256,20.4787991 C345.246409,21.9776729 345.990037,23.7902645 346.536138,25.9165738 C347.082239,28.0428832 347.459863,30.4422432 347.669008,33.1146538 L347.669008,37.8204204 C347.459863,40.4695927 347.082239,42.851524 346.536138,44.9662142 C345.990037,47.0809043 345.23479,48.8818767 344.270399,50.3691314 C343.306007,51.856386 342.115041,52.9950653 340.697502,53.7851693 C339.279962,54.5752734 337.595181,54.9703254 335.64316,54.9703254 C333.737615,54.9703254 332.017977,54.6043213 330.484245,53.8723132 C328.950514,53.140305 327.631737,52.0364832 326.527916,50.5608478 C325.424094,49.0852123 324.575894,47.2377632 323.983316,45.0185005 C323.390738,42.7992377 323.094449,40.2023517 323.094449,37.2278424 Z M329.264232,33.7072319 L329.264232,37.2278424 C329.264232,39.3192942 329.415281,41.1376954 329.71738,42.6830459 C330.019478,44.2283964 330.490055,45.5065059 331.12911,46.5173743 C331.768164,47.5282426 332.593126,48.2776795 333.603994,48.765685 C334.614863,49.2536904 335.829067,49.4976931 337.246606,49.4976931 C338.966244,49.4976931 340.372165,49.0794027 341.464367,48.242822 C342.55657,47.4062413 343.433818,46.2966099 344.096111,44.9139279 C344.758404,43.5312458 345.287077,42.0381816 345.682129,40.4347352 L345.682129,30.5351966 C345.449745,29.3500406 345.118598,28.2055516 344.688689,27.1017298 C344.258779,25.9979081 343.706868,25.010278 343.032956,24.1388398 C342.359044,23.2674015 341.551511,22.5760605 340.610358,22.0648167 C339.669205,21.5535729 338.571192,21.297951 337.316321,21.297951 C335.898782,21.297951 334.678768,21.5535729 333.656281,22.0648167 C332.633793,22.5760605 331.797212,23.3429262 331.146538,24.3654137 C330.495864,25.3879013 330.019478,26.6776299 329.71738,28.2345996 C329.415281,29.7915693 329.264232,31.61578 329.264232,33.7072319 Z" id="Shape"></path>
                    <path d="M365.725208,24.6094164 L365.725208,54.2731748 L359.555426,54.2731748 L359.555426,16.5573269 L365.376633,16.5573269 L365.725208,24.6094164 Z M364.226335,33.9860921 L361.716592,33.8815195 C361.693354,31.3020623 361.989643,28.9143214 362.60546,26.718297 C363.221276,24.5222726 364.104333,22.610918 365.254632,20.9842333 C366.40493,19.3575485 367.781803,18.0968678 369.385249,17.2021912 C370.988696,16.3075146 372.76643,15.8601763 374.718451,15.8601763 C376.252183,15.8601763 377.646484,16.1099886 378.901355,16.6096132 C380.156226,17.1092378 381.22519,17.9051514 382.108248,18.997354 C382.991305,20.0895567 383.671027,21.5012866 384.147413,23.232544 C384.6238,24.9638013 384.861993,27.0726819 384.861993,29.5591857 L384.861993,54.2731748 L378.69221,54.2731748 L378.69221,29.4894707 C378.69221,27.5142106 378.477255,25.928193 378.047345,24.7314178 C377.617436,23.5346426 376.966762,22.6632043 376.095324,22.117103 C375.223885,21.5710017 374.125873,21.297951 372.801287,21.297951 C371.592893,21.297951 370.465833,21.6349072 369.420107,22.3088194 C368.374381,22.9827317 367.462275,23.9122658 366.683791,25.0974219 C365.905306,26.2825779 365.301109,27.636212 364.871199,29.1583241 C364.441289,30.6804363 364.226335,32.2896923 364.226335,33.9860921 Z" id="Shape"></path>
                    <path d="M407.62396,54.9703254 C405.36984,54.9703254 403.336484,54.6333692 401.523892,53.959457 C399.711301,53.2855447 398.16595,52.2572476 396.887841,50.8745656 C395.609731,49.4918835 394.63372,47.7431974 393.959808,45.6285072 C393.285896,43.5138171 392.94894,41.015694 392.94894,38.1341382 L392.94894,33.8815195 C392.94894,30.5584349 393.338182,27.7465942 394.116667,25.4459972 C394.895152,23.1454002 395.946687,21.2921415 397.271273,19.8862211 C398.59586,18.4803007 400.094733,17.4578131 401.767895,16.8187584 C403.441056,16.1797037 405.160694,15.8601763 406.926809,15.8601763 C409.297121,15.8601763 411.318858,16.2436091 412.99202,17.0104748 C414.665181,17.7773405 416.024625,18.9160198 417.070351,20.4265128 C418.116077,21.9370058 418.888752,23.7960741 419.388376,26.0037176 C419.888001,28.2113612 420.137813,30.7559609 420.137813,33.6375168 L420.137813,37.2278424 L396.574123,37.2278424 L396.574123,31.9643553 L413.96803,31.9643553 L413.96803,31.0929171 C413.875077,29.1408954 413.613646,27.4212572 413.183736,25.9340026 C412.753827,24.446748 412.050866,23.2790207 411.074855,22.4308208 C410.098845,21.5826209 408.716163,21.1585209 406.926809,21.1585209 C405.78813,21.1585209 404.736595,21.3502373 403.772203,21.7336702 C402.807811,22.117103 401.98285,22.7793961 401.297318,23.7205494 C400.611787,24.6617027 400.077305,25.9572409 399.693872,27.607164 C399.310439,29.2570871 399.118723,31.348539 399.118723,33.8815195 L399.118723,38.1341382 C399.118723,40.155875 399.310439,41.8929419 399.693872,43.345339 C400.077305,44.7977361 400.646644,45.9945113 401.401891,46.9356646 C402.157137,47.8768179 403.086671,48.5739685 404.190493,49.0271164 C405.294315,49.4802643 406.554996,49.7068383 407.972535,49.7068383 C410.040749,49.7068383 411.748768,49.3059767 413.096592,48.5042535 C414.444417,47.7025303 415.617954,46.6742331 416.617203,45.4193621 L419.858953,49.2885479 C419.185041,50.2413204 418.307793,51.1534258 417.22721,52.0248641 C416.146626,52.8963023 414.82204,53.6050721 413.253451,54.1511734 C411.684862,54.6972747 409.808365,54.9703254 407.62396,54.9703254 Z" id="Path"></path>
                    <path d="M447.361545,46.9530934 L447.361545,0.732008137 L453.49647,0.732008137 L453.49647,54.2731748 L447.884408,54.2731748 L447.361545,46.9530934 Z M426.272739,37.2278424 L426.272739,33.7072319 C426.272739,30.5932925 426.574837,27.9150722 427.179034,25.6725711 C427.783232,23.43007 428.643051,21.5826209 429.758492,20.1302238 C430.873933,18.6778267 432.210138,17.6030528 433.767108,16.9059022 C435.324077,16.2087516 437.043716,15.8601763 438.926022,15.8601763 C440.878044,15.8601763 442.557015,16.2552283 443.962935,17.0453323 C445.368856,17.8354364 446.548202,18.9799253 447.500975,20.4787991 C448.453747,21.9776729 449.203184,23.7902645 449.749285,25.9165738 C450.295387,28.0428832 450.661391,30.4422432 450.847298,33.1146538 L450.847298,37.8204204 C450.638152,40.4695927 450.260529,42.851524 449.714428,44.9662142 C449.168327,47.0809043 448.41889,48.8818767 447.466117,50.3691314 C446.513345,51.856386 445.328189,52.9950653 443.910649,53.7851693 C442.493109,54.5752734 440.808329,54.9703254 438.856307,54.9703254 C436.997239,54.9703254 435.300839,54.6043213 433.767108,53.8723132 C432.233376,53.140305 430.902981,52.0364832 429.77592,50.5608478 C428.64886,49.0852123 427.783232,47.2377632 427.179034,45.0185005 C426.574837,42.7992377 426.272739,40.2023517 426.272739,37.2278424 Z M432.442522,33.7072319 L432.442522,37.2278424 C432.442522,39.3192942 432.593571,41.1376954 432.895669,42.6830459 C433.197768,44.2283964 433.674154,45.5065059 434.324828,46.5173743 C434.975502,47.5282426 435.806273,48.2776795 436.817142,48.765685 C437.82801,49.2536904 439.042214,49.4976931 440.459754,49.4976931 C442.179392,49.4976931 443.585312,49.0794027 444.677515,48.242822 C445.769717,47.4062413 446.646965,46.2966099 447.309258,44.9139279 C447.971551,43.5312458 448.500224,42.0381816 448.895276,40.4347352 L448.895276,30.5351966 C448.662892,29.3500406 448.325936,28.2055516 447.884408,27.1017298 C447.442879,25.9979081 446.890968,25.010278 446.228675,24.1388398 C445.566382,23.2674015 444.764659,22.5760605 443.823505,22.0648167 C442.882352,21.5535729 441.78434,21.297951 440.529469,21.297951 C439.111929,21.297951 437.886106,21.5535729 436.851999,22.0648167 C435.817892,22.5760605 434.981312,23.3429262 434.342257,24.3654137 C433.703202,25.3879013 433.226816,26.6776299 432.913098,28.2345996 C432.59938,29.7915693 432.442522,31.61578 432.442522,33.7072319 Z" id="Shape"></path>
                    <path d="M493.164339,16.5573269 L493.164339,21.5070962 L475.561287,21.5070962 L475.561287,16.5573269 L493.164339,16.5573269 Z M481.312779,7.38979643 L487.482562,7.38979643 L487.482562,44.9313566 C487.482562,46.2094661 487.639421,47.1738577 487.953139,47.8245316 C488.266856,48.4752055 488.667718,48.9051151 489.155723,49.1142603 C489.643729,49.3234055 490.166592,49.427978 490.724312,49.427978 C491.142603,49.427978 491.60737,49.3756917 492.118614,49.2711192 C492.629857,49.1665466 492.978433,49.0794027 493.164339,49.0096877 L493.129482,54.2731748 C492.711192,54.4358432 492.153471,54.5927021 491.45632,54.7437514 C490.75917,54.8948007 489.876112,54.9703254 488.807148,54.9703254 C487.482562,54.9703254 486.250929,54.6566076 485.11225,54.029172 C483.973571,53.4017365 483.055656,52.350201 482.358505,50.8745656 C481.661354,49.3989301 481.312779,47.4062413 481.312779,44.8964991 L481.312779,7.38979643 Z" id="Shape"></path>
                    <path d="M498.532399,37.2278424 L498.532399,33.6375168 C498.532399,30.7094842 498.904213,28.1358366 499.64784,25.9165738 C500.391467,23.6973111 501.425574,21.8440524 502.75016,20.3567977 C504.074746,18.8695431 505.620097,17.7482925 507.386212,16.993046 C509.152327,16.2377996 511.046253,15.8601763 513.067989,15.8601763 C515.136203,15.8601763 517.053367,16.2377996 518.819482,16.993046 C520.585597,17.7482925 522.136757,18.8695431 523.472962,20.3567977 C524.809167,21.8440524 525.849084,23.6973111 526.592711,25.9165738 C527.336338,28.1358366 527.708152,30.7094842 527.708152,33.6375168 L527.708152,37.2278424 C527.708152,40.155875 527.336338,42.7295226 526.592711,44.9487854 C525.849084,47.1680482 524.814977,49.0213069 523.490391,50.5085615 C522.165805,51.9958161 520.620454,53.1112571 518.854339,53.8548844 C517.088224,54.5985117 515.182679,54.9703254 513.137704,54.9703254 C511.092729,54.9703254 509.187184,54.5985117 507.421069,53.8548844 C505.654954,53.1112571 504.103794,51.9958161 502.767589,50.5085615 C501.431384,49.0213069 500.391467,47.1680482 499.64784,44.9487854 C498.904213,42.7295226 498.532399,40.155875 498.532399,37.2278424 Z M504.702182,33.6375168 L504.702182,37.2278424 C504.702182,39.2960559 504.911327,41.1086475 505.329618,42.6656172 C505.747908,44.2225868 506.340486,45.5239346 507.107352,46.5696606 C507.874217,47.6153865 508.768894,48.3996809 509.791381,48.9225439 C510.813869,49.4454068 511.92931,49.7068383 513.137704,49.7068383 C514.532006,49.7068383 515.757829,49.4454068 516.815174,48.9225439 C517.872519,48.3996809 518.749767,47.6153865 519.446917,46.5696606 C520.144068,45.5239346 520.666931,44.2225868 521.015506,42.6656172 C521.364081,41.1086475 521.538369,39.2960559 521.538369,37.2278424 L521.538369,33.6375168 C521.538369,31.5693033 521.329224,29.7625213 520.910934,28.2171708 C520.492643,26.6718203 519.900065,25.3704725 519.1332,24.3131274 C518.366334,23.2557823 517.465848,22.4656783 516.431741,21.9428154 C515.397634,21.4199524 514.276384,21.1585209 513.067989,21.1585209 C511.882833,21.1585209 510.779011,21.4199524 509.756524,21.9428154 C508.734036,22.4656783 507.845169,23.2557823 507.089923,24.3131274 C506.334676,25.3704725 505.747908,26.6718203 505.329618,28.2171708 C504.911327,29.7625213 504.702182,31.5693033 504.702182,33.6375168 Z" id="Shape"></path>
                    <path d="M559.91651,54.2731748 L553.746727,54.2731748 L553.746727,13.2807191 C553.746727,10.4224016 554.228923,8.0056128 555.193315,6.03035275 C556.157706,4.0550927 557.540388,2.55621889 559.341361,1.53373134 C561.142333,0.511243779 563.274452,0 565.737718,0 C567.201734,0 568.607654,0.203335594 569.955479,0.610006781 C571.303303,1.01667797 572.697605,1.52211216 574.138382,2.12630935 L573.092657,7.56408409 C572.256076,7.14579372 571.233588,6.74493212 570.025194,6.36149929 C568.816799,5.97806646 567.550309,5.78635004 566.225723,5.78635004 C563.901888,5.78635004 562.269393,6.407976 561.32824,7.65122791 C560.387087,8.89447983 559.91651,10.7709769 559.91651,13.2807191 L559.91651,54.2731748 Z M566.016578,16.5573269 L566.016578,21.5070962 L548.831815,21.5070962 L548.831815,16.5573269 L566.016578,16.5573269 Z M577.101273,16.5573269 L577.101273,54.2731748 L570.93149,54.2731748 L570.93149,16.5573269 L577.101273,16.5573269 Z" id="Shape"></path>
                    <path d="M600.804393,16.5573269 L600.804393,21.5070962 L583.20134,21.5070962 L583.20134,16.5573269 L600.804393,16.5573269 Z M588.952833,7.38979643 L595.122616,7.38979643 L595.122616,44.9313566 C595.122616,46.2094661 595.279475,47.1738577 595.593192,47.8245316 C595.90691,48.4752055 596.307772,48.9051151 596.795777,49.1142603 C597.283783,49.3234055 597.806646,49.427978 598.364366,49.427978 C598.782656,49.427978 599.247423,49.3756917 599.758667,49.2711192 C600.269911,49.1665466 600.618486,49.0794027 600.804393,49.0096877 L600.769536,54.2731748 C600.351245,54.4358432 599.793525,54.5927021 599.096374,54.7437514 C598.399224,54.8948007 597.516166,54.9703254 596.447202,54.9703254 C595.122616,54.9703254 593.890983,54.6566076 592.752304,54.029172 C591.613624,53.4017365 590.695709,52.350201 589.998559,50.8745656 C589.301408,49.3989301 588.952833,47.4062413 588.952833,44.8964991 L588.952833,7.38979643 Z" id="Shape"></path>
                    <path d="M633.291611,50.3691314 L641.692276,16.5573269 L648.245492,16.5573269 L635.801354,60.0943823 C635.499255,61.0239165 635.098393,62.0289753 634.598769,63.1095587 C634.099144,64.1901421 633.465899,65.2184393 632.699033,66.1944501 C631.932168,67.170461 631.014253,67.9663746 629.945289,68.582191 C628.876324,69.1980073 627.621453,69.5059155 626.180675,69.5059155 C625.739147,69.5059155 625.175616,69.4362005 624.490085,69.2967703 C623.804554,69.1573402 623.310739,69.0411485 623.00864,68.948195 L623.00864,63.7195655 C623.14807,63.7428038 623.368834,63.7718518 623.670933,63.8067093 C623.973032,63.8415668 624.193796,63.8589956 624.333226,63.8589956 C625.541621,63.8589956 626.569918,63.6672792 627.418118,63.2838464 C628.266318,62.9004135 628.992516,62.2613588 629.596713,61.3666822 C630.20091,60.4720056 630.712154,59.2461824 631.130445,57.6892127 L633.291611,50.3691314 Z M627.853837,16.5573269 L635.348206,45.8376524 L636.951652,52.6348708 L632.559603,55.0051829 L621.126333,16.5573269 L627.853837,16.5573269 Z" id="Shape"></path>
                    <path d="M652.463253,37.2278424 L652.463253,33.6375168 C652.463253,30.7094842 652.835067,28.1358366 653.578694,25.9165738 C654.322321,23.6973111 655.356428,21.8440524 656.681014,20.3567977 C658.0056,18.8695431 659.550951,17.7482925 661.317066,16.993046 C663.083181,16.2377996 664.977107,15.8601763 666.998843,15.8601763 C669.067057,15.8601763 670.984221,16.2377996 672.750336,16.993046 C674.516451,17.7482925 676.067611,18.8695431 677.403816,20.3567977 C678.740021,21.8440524 679.779938,23.6973111 680.523565,25.9165738 C681.267192,28.1358366 681.639006,30.7094842 681.639006,33.6375168 L681.639006,37.2278424 C681.639006,40.155875 681.267192,42.7295226 680.523565,44.9487854 C679.779938,47.1680482 678.745831,49.0213069 677.421245,50.5085615 C676.096659,51.9958161 674.551308,53.1112571 672.785193,53.8548844 C671.019078,54.5985117 669.113533,54.9703254 667.068558,54.9703254 C665.023583,54.9703254 663.118038,54.5985117 661.351923,53.8548844 C659.585809,53.1112571 658.034648,51.9958161 656.698443,50.5085615 C655.362238,49.0213069 654.322321,47.1680482 653.578694,44.9487854 C652.835067,42.7295226 652.463253,40.155875 652.463253,37.2278424 Z M658.633036,33.6375168 L658.633036,37.2278424 C658.633036,39.2960559 658.842181,41.1086475 659.260472,42.6656172 C659.678762,44.2225868 660.27134,45.5239346 661.038206,46.5696606 C661.805071,47.6153865 662.699748,48.3996809 663.722235,48.9225439 C664.744723,49.4454068 665.860164,49.7068383 667.068558,49.7068383 C668.46286,49.7068383 669.688683,49.4454068 670.746028,48.9225439 C671.803373,48.3996809 672.680621,47.6153865 673.377771,46.5696606 C674.074922,45.5239346 674.597785,44.2225868 674.94636,42.6656172 C675.294936,41.1086475 675.469223,39.2960559 675.469223,37.2278424 L675.469223,33.6375168 C675.469223,31.5693033 675.260078,29.7625213 674.841788,28.2171708 C674.423497,26.6718203 673.830919,25.3704725 673.064054,24.3131274 C672.297188,23.2557823 671.396702,22.4656783 670.362595,21.9428154 C669.328488,21.4199524 668.207238,21.1585209 666.998843,21.1585209 C665.813687,21.1585209 664.709865,21.4199524 663.687378,21.9428154 C662.66489,22.4656783 661.776023,23.2557823 661.020777,24.3131274 C660.26553,25.3704725 659.678762,26.6718203 659.260472,28.2171708 C658.842181,29.7625213 658.633036,31.5693033 658.633036,33.6375168 Z" id="Shape"></path>
                    <path d="M708.653592,45.5587922 L708.653592,16.5573269 L714.823375,16.5573269 L714.823375,54.2731748 L708.96731,54.2731748 L708.653592,45.5587922 Z M709.803891,37.6112753 L712.243918,37.5415602 C712.243918,40.0513024 712.028963,42.3693281 711.599053,44.4956375 C711.169144,46.6219468 710.471993,48.4635864 709.507602,50.0205561 C708.54321,51.5775257 707.27091,52.7917297 705.690702,53.663168 C704.110494,54.5346062 702.170091,54.9703254 699.869494,54.9703254 C698.312525,54.9703254 696.900795,54.7030843 695.634305,54.1686022 C694.367814,53.63412 693.275612,52.8091585 692.357697,51.6937175 C691.439782,50.5782765 690.731012,49.1258794 690.231387,47.3365262 C689.731763,45.547173 689.48195,43.3976253 689.48195,40.8878831 L689.48195,16.5573269 L695.616876,16.5573269 L695.616876,40.9575982 C695.616876,42.653998 695.767925,44.0541088 696.070024,45.1579306 C696.372122,46.2617524 696.778793,47.1331906 697.290037,47.7722453 C697.801281,48.4113001 698.370621,48.8586384 698.998056,49.1142603 C699.625492,49.3698822 700.264546,49.4976931 700.91522,49.4976931 C703.099626,49.4976931 704.842502,48.9690206 706.14385,47.9116755 C707.445198,46.8543304 708.380541,45.4251716 708.949881,43.6241992 C709.519221,41.8232268 709.803891,39.8189188 709.803891,37.6112753 Z" id="Shape"></path>
                    <path d="M730.265261,22.4831071 L730.265261,54.2731748 L724.095478,54.2731748 L724.095478,16.5573269 L730.056116,16.5573269 L730.265261,22.4831071 Z M739.641937,16.3481817 L739.676794,22.343677 C739.16555,22.2274852 738.706593,22.1519605 738.299922,22.117103 C737.89325,22.0822455 737.422674,22.0648167 736.888192,22.0648167 C735.726274,22.0648167 734.709596,22.2972002 733.838158,22.7619673 C732.96672,23.2267344 732.217283,23.8774083 731.589847,24.713989 C730.962412,25.5505697 730.462787,26.5440094 730.090973,27.6943079 C729.71916,28.8446064 729.463538,30.105287 729.324108,31.4763499 L727.720661,32.5220758 C727.720661,30.2447172 727.900758,28.1067886 728.260953,26.1082902 C728.621147,24.1097918 729.184677,22.3378674 729.951543,20.7925169 C730.718409,19.2471663 731.700229,18.038772 732.897004,17.1673337 C734.09378,16.2958954 735.528748,15.8601763 737.201909,15.8601763 C737.573723,15.8601763 738.032681,15.9124626 738.578782,16.0170352 C739.124883,16.1216078 739.479268,16.23199 739.641937,16.3481817 Z" id="Shape"></path>
                    <path d="M780.52982,44.6176389 C780.52982,43.6648664 780.297436,42.8282856 779.832669,42.1078967 C779.367902,41.3875077 778.606846,40.6903571 777.549501,40.0164448 C776.492156,39.3425326 775.068807,38.6221436 773.279453,37.855278 C771.536577,37.134889 769.973798,36.4203096 768.591116,35.7115398 C767.208433,35.0027701 766.040706,34.2300948 765.087934,33.3935141 C764.135161,32.5569334 763.408963,31.5867321 762.909338,30.4829103 C762.409713,29.3790885 762.159901,28.0719311 762.159901,26.5614381 C762.159901,25.0509451 762.444571,23.6508343 763.013911,22.3611057 C763.58325,21.0713771 764.390783,19.9385074 765.436509,18.9624965 C766.482235,17.9864857 767.737106,17.2254296 769.201122,16.6793283 C770.665139,16.133227 772.303443,15.8601763 774.116034,15.8601763 C776.695491,15.8601763 778.891516,16.3598009 780.704107,17.3590501 C782.516699,18.3582993 783.905191,19.7235526 784.869582,21.4548099 C785.833974,23.1860673 786.31617,25.1322794 786.31617,27.2934463 L780.181244,27.2934463 C780.181244,26.2477204 779.948861,25.2600903 779.484094,24.3305562 C779.019327,23.401022 778.333795,22.639966 777.427499,22.0473879 C776.521204,21.4548099 775.417382,21.1585209 774.116034,21.1585209 C772.744971,21.1585209 771.62953,21.4025236 770.769711,21.8905291 C769.909892,22.3785345 769.288266,23.0117796 768.904833,23.7902645 C768.5214,24.5687493 768.329684,25.4227588 768.329684,26.3522929 C768.329684,27.0494436 768.428447,27.6478312 768.625973,28.1474558 C768.823499,28.6470804 769.166265,29.1118474 769.65427,29.541757 C770.142276,29.9716665 770.810378,30.4131952 771.658578,30.8663431 C772.506778,31.319491 773.593171,31.8365444 774.917757,32.4175032 C777.473976,33.4167524 779.623524,34.4276208 781.3664,35.4501084 C783.109277,36.4725959 784.433863,37.6693711 785.340159,39.040434 C786.246455,40.4114969 786.699603,42.1078967 786.699603,44.1296334 C786.699603,45.7795565 786.403314,47.2726207 785.810736,48.6088261 C785.218158,49.9450314 784.375767,51.0895203 783.283565,52.0422928 C782.191362,52.9950653 780.884205,53.7212639 779.362092,54.2208885 C777.83998,54.7205131 776.137771,54.9703254 774.255464,54.9703254 C771.420385,54.9703254 769.021025,54.4067953 767.057384,53.2797351 C765.093743,52.152675 763.606489,50.6770395 762.59562,48.8528288 C761.584752,47.028618 761.079318,45.0707867 761.079318,42.9793349 L767.249101,42.9793349 C767.318816,44.7454498 767.719677,46.1165127 768.451685,47.0925235 C769.183694,48.0685344 770.072561,48.7424466 771.118286,49.1142603 C772.164012,49.4860739 773.209738,49.6719808 774.255464,49.6719808 C775.626527,49.6719808 776.776826,49.4686452 777.70636,49.061974 C778.635894,48.6553028 779.338854,48.0685344 779.81524,47.3016687 C780.291627,46.534803 780.52982,45.6401264 780.52982,44.6176389 Z" id="Path"></path>
                    <path d="M800.956332,0.732008137 L800.956332,54.2731748 L794.78655,54.2731748 L794.78655,0.732008137 L800.956332,0.732008137 Z M799.457459,33.9860921 L796.947716,33.8815195 C796.924478,31.3020623 797.220767,28.9143214 797.836584,26.718297 C798.4524,24.5222726 799.335457,22.610918 800.485756,20.9842333 C801.636054,19.3575485 803.012927,18.0968678 804.616373,17.2021912 C806.21982,16.3075146 807.997554,15.8601763 809.949575,15.8601763 C811.483307,15.8601763 812.877608,16.1099886 814.132479,16.6096132 C815.38735,17.1092378 816.456314,17.9051514 817.339372,18.997354 C818.222429,20.0895567 818.902151,21.5012866 819.378537,23.232544 C819.854924,24.9638013 820.093117,27.0726819 820.093117,29.5591857 L820.093117,54.2731748 L813.923334,54.2731748 L813.923334,29.4894707 C813.923334,27.5142106 813.708379,25.928193 813.278469,24.7314178 C812.84856,23.5346426 812.197886,22.6632043 811.326448,22.117103 C810.455009,21.5710017 809.356997,21.297951 808.032411,21.297951 C806.824017,21.297951 805.696957,21.6349072 804.651231,22.3088194 C803.605505,22.9827317 802.693399,23.9122658 801.914915,25.0974219 C801.13643,26.2825779 800.532233,27.636212 800.102323,29.1583241 C799.672413,30.6804363 799.457459,32.2896923 799.457459,33.9860921 Z" id="Shape"></path>
                    <path d="M842.750511,54.9703254 C840.496391,54.9703254 838.463035,54.6333692 836.650444,53.959457 C834.837852,53.2855447 833.292501,52.2572476 832.014392,50.8745656 C830.736283,49.4918835 829.760272,47.7431974 829.086359,45.6285072 C828.412447,43.5138171 828.075491,41.015694 828.075491,38.1341382 L828.075491,33.8815195 C828.075491,30.5584349 828.464734,27.7465942 829.243218,25.4459972 C830.021703,23.1454002 831.073239,21.2921415 832.397825,19.8862211 C833.722411,18.4803007 835.221285,17.4578131 836.894446,16.8187584 C838.567608,16.1797037 840.287246,15.8601763 842.053361,15.8601763 C844.423673,15.8601763 846.44541,16.2436091 848.118571,17.0104748 C849.791732,17.7773405 851.151176,18.9160198 852.196902,20.4265128 C853.242628,21.9370058 854.015303,23.7960741 854.514928,26.0037176 C855.014552,28.2113612 855.264365,30.7559609 855.264365,33.6375168 L855.264365,37.2278424 L831.700674,37.2278424 L831.700674,31.9643553 L849.094582,31.9643553 L849.094582,31.0929171 C849.001628,29.1408954 848.740197,27.4212572 848.310287,25.9340026 C847.880378,24.446748 847.177418,23.2790207 846.201407,22.4308208 C845.225396,21.5826209 843.842714,21.1585209 842.053361,21.1585209 C840.914681,21.1585209 839.863146,21.3502373 838.898754,21.7336702 C837.934363,22.117103 837.109401,22.7793961 836.42387,23.7205494 C835.738338,24.6617027 835.203856,25.9572409 834.820423,27.607164 C834.43699,29.2570871 834.245274,31.348539 834.245274,33.8815195 L834.245274,38.1341382 C834.245274,40.155875 834.43699,41.8929419 834.820423,43.345339 C835.203856,44.7977361 835.773196,45.9945113 836.528442,46.9356646 C837.283689,47.8768179 838.213223,48.5739685 839.317045,49.0271164 C840.420866,49.4802643 841.681547,49.7068383 843.099087,49.7068383 C845.1673,49.7068383 846.875319,49.3059767 848.223144,48.5042535 C849.570968,47.7025303 850.744505,46.6742331 851.743754,45.4193621 L854.985505,49.2885479 C854.311592,50.2413204 853.434344,51.1534258 852.353761,52.0248641 C851.273178,52.8963023 849.948591,53.6050721 848.380003,54.1511734 C846.811414,54.6972747 844.934917,54.9703254 842.750511,54.9703254 Z" id="Path"></path>
                    <polygon id="Path" points="869.346807 0.732008137 869.346807 54.2731748 863.211882 54.2731748 863.211882 0.732008137"></polygon>
                    <polygon id="Path" points="885.729846 0.732008137 885.729846 54.2731748 879.594921 54.2731748 879.594921 0.732008137"></polygon>
                    <polygon id="Path" points="918.495925 0.732008137 918.495925 54.2731748 912.360999 54.2731748 912.360999 0.732008137"></polygon>
                    <path d="M934.878964,16.5573269 L934.878964,54.2731748 L928.744039,54.2731748 L928.744039,16.5573269 L934.878964,16.5573269 Z M928.395463,6.55321571 C928.395463,5.5074898 928.685943,4.62443236 929.266902,3.9040434 C929.847861,3.18365444 930.719299,2.82345996 931.881216,2.82345996 C933.043134,2.82345996 933.920382,3.18365444 934.51296,3.9040434 C935.105538,4.62443236 935.401827,5.5074898 935.401827,6.55321571 C935.401827,7.55246491 935.105538,8.4064744 934.51296,9.11524419 C933.920382,9.82401397 933.043134,10.1783989 931.881216,10.1783989 C930.719299,10.1783989 929.847861,9.82401397 929.266902,9.11524419 C928.685943,8.4064744 928.395463,7.55246491 928.395463,6.55321571 Z" id="Shape"></path>
                    <path d="M953.527743,54.2731748 L947.35796,54.2731748 L947.35796,12.5835685 C947.35796,9.86468109 947.793679,7.56989368 948.665117,5.69920621 C949.536556,3.82851875 950.779808,2.41097918 952.394873,1.44658751 C954.009939,0.482195837 955.932912,0 958.163794,0 C958.79123,0 959.424475,0.0464767071 960.06353,0.139430121 C960.702584,0.232383536 961.312591,0.371813657 961.89355,0.557720486 L961.61469,5.82120757 C961.242876,5.7050158 960.795538,5.62368156 960.272675,5.57720486 C959.749812,5.53072815 959.255997,5.5074898 958.79123,5.5074898 C957.675789,5.5074898 956.723016,5.78054045 955.932912,6.32664176 C955.142808,6.87274307 954.544421,7.66865668 954.13775,8.71438259 C953.731078,9.7601085 953.527743,11.0498371 953.527743,12.5835685 L953.527743,54.2731748 Z M959.941528,16.5573269 L959.941528,21.5070962 L942.443048,21.5070962 L942.443048,16.5573269 L959.941528,16.5573269 Z" id="Shape"></path>
                    <path d="M979.880036,54.9703254 C977.625915,54.9703254 975.59256,54.6333692 973.779968,53.959457 C971.967376,53.2855447 970.422026,52.2572476 969.143916,50.8745656 C967.865807,49.4918835 966.889796,47.7431974 966.215884,45.6285072 C965.541972,43.5138171 965.205015,41.015694 965.205015,38.1341382 L965.205015,33.8815195 C965.205015,30.5584349 965.594258,27.7465942 966.372743,25.4459972 C967.151228,23.1454002 968.202763,21.2921415 969.527349,19.8862211 C970.851935,18.4803007 972.350809,17.4578131 974.023971,16.8187584 C975.697132,16.1797037 977.41677,15.8601763 979.182885,15.8601763 C981.553197,15.8601763 983.574934,16.2436091 985.248095,17.0104748 C986.921257,17.7773405 988.280701,18.9160198 989.326426,20.4265128 C990.372152,21.9370058 991.144828,23.7960741 991.644452,26.0037176 C992.144077,28.2113612 992.393889,30.7559609 992.393889,33.6375168 L992.393889,37.2278424 L968.830199,37.2278424 L968.830199,31.9643553 L986.224106,31.9643553 L986.224106,31.0929171 C986.131153,29.1408954 985.869721,27.4212572 985.439812,25.9340026 C985.009902,24.446748 984.306942,23.2790207 983.330931,22.4308208 C982.35492,21.5826209 980.972238,21.1585209 979.182885,21.1585209 C978.044206,21.1585209 976.99267,21.3502373 976.028279,21.7336702 C975.063887,22.117103 974.238925,22.7793961 973.553394,23.7205494 C972.867863,24.6617027 972.33338,25.9572409 971.949948,27.607164 C971.566515,29.2570871 971.374798,31.348539 971.374798,33.8815195 L971.374798,38.1341382 C971.374798,40.155875 971.566515,41.8929419 971.949948,43.345339 C972.33338,44.7977361 972.90272,45.9945113 973.657967,46.9356646 C974.413213,47.8768179 975.342747,48.5739685 976.446569,49.0271164 C977.550391,49.4802643 978.811072,49.7068383 980.228611,49.7068383 C982.296825,49.7068383 984.004844,49.3059767 985.352668,48.5042535 C986.700493,47.7025303 987.874029,46.6742331 988.873279,45.4193621 L992.115029,49.2885479 C991.441117,50.2413204 990.563869,51.1534258 989.483285,52.0248641 C988.402702,52.8963023 987.078116,53.6050721 985.509527,54.1511734 C983.940938,54.6972747 982.064441,54.9703254 979.880036,54.9703254 Z" id="Path"></path>
                    <path d="M1000.23683,50.8571368 C1000.23683,49.7649342 1000.5796,48.8412096 1001.26513,48.0859631 C1001.95066,47.3307166 1002.9441,46.9530934 1004.24545,46.9530934 C1005.5468,46.9530934 1006.54024,47.3307166 1007.22577,48.0859631 C1007.9113,48.8412096 1008.25407,49.7649342 1008.25407,50.8571368 C1008.25407,51.9261011 1007.9113,52.8323968 1007.22577,53.5760242 C1006.54024,54.3196515 1005.5468,54.6914651 1004.24545,54.6914651 C1002.9441,54.6914651 1001.95066,54.3196515 1001.26513,53.5760242 C1000.5796,52.8323968 1000.23683,51.9261011 1000.23683,50.8571368 Z" id="Path"></path>
                </g>
                <g id="dotfiles" transform="translate(9.694830, 0.000000)">
                    <path d="M51.8426542,187.089872 L17.9991611,187.089872 L18.2526704,152.866115 L51.8426542,152.866115 C58.180387,152.866115 63.3562021,151.471814 67.3700996,148.683211 C71.383997,145.894609 74.3627314,141.268064 76.3063028,134.803576 C78.2498742,128.339089 79.2216599,119.698647 79.2216599,108.882249 L79.2216599,80.6159611 C79.2216599,72.5036631 78.6935155,65.6589117 77.6372267,60.0817069 C76.5809379,54.504502 74.9542531,50.0258375 72.7571724,46.6457133 C70.5600917,43.2655892 67.6447347,40.7938734 64.0111012,39.230566 C60.3774677,37.6672586 56.0678094,36.8856048 51.0821263,36.8856048 L17.3653878,36.8856048 L17.3653878,2.53509312 L51.0821263,2.53509312 C61.8985236,2.53509312 71.7220094,4.28853252 80.5525838,7.79541133 C89.3831581,11.3022901 97.0095633,16.4569795 103.431799,23.2594793 C109.854035,30.0619792 114.797467,38.2799061 118.262094,47.9132599 C121.726721,57.5466137 123.459035,68.5320173 123.459035,80.8694704 L123.459035,108.882249 C123.459035,121.135199 121.726721,132.099477 118.262094,141.775083 C114.797467,151.450688 109.875161,159.668615 103.495176,166.428863 C97.1151921,173.189111 89.5521643,178.322675 80.8060931,181.829554 C72.0600218,185.336433 62.4055422,187.089872 51.8426542,187.089872 Z M43.3500923,2.53509312 L43.3500923,187.089872 L0,187.089872 L0,2.53509312 L43.3500923,2.53509312 Z" id="Shape"></path>
                    <path d="M279.87428,80.9962251 L279.87428,108.882249 C279.87428,122.149237 278.22647,133.810665 274.930848,143.866534 C271.635227,153.922404 266.945305,162.351588 260.861082,169.154088 C254.776858,175.956588 247.572969,181.069026 239.249413,184.491402 C230.925857,187.913777 221.693893,189.624965 211.553521,189.624965 C201.328645,189.624965 192.033304,187.913777 183.667496,184.491402 C175.301689,181.069026 168.076674,175.956588 161.99245,169.154088 C155.908227,162.351588 151.218304,153.922404 147.922683,143.866534 C144.627062,133.810665 142.979252,122.149237 142.979252,108.882249 L142.979252,80.9962251 C142.979252,67.7292378 144.627062,56.0255579 147.922683,45.8851854 C151.218304,35.7448129 155.887101,27.2945026 161.929073,20.5342542 C167.971045,13.7740059 175.174934,8.66156815 183.540742,5.19694089 C191.906549,1.73231363 201.20189,0 211.426766,0 C221.567138,0 230.841354,1.73231363 239.249413,5.19694089 C247.657472,8.66156815 254.861361,13.7740059 260.861082,20.5342542 C266.860802,27.2945026 271.529599,35.7448129 274.867471,45.8851854 C278.205344,56.0255579 279.87428,67.7292378 279.87428,80.9962251 Z M235.890415,108.882249 L235.890415,80.7427158 C235.890415,72.4614116 235.383396,65.4054024 234.369359,59.5746882 C233.355321,53.7439741 231.834266,49.0118003 229.806191,45.3781668 C227.778117,41.7445333 225.243023,39.0826855 222.200912,37.3926235 C219.1588,35.7025614 215.567418,34.8575304 211.426766,34.8575304 C207.117108,34.8575304 203.441223,35.7025614 200.399111,37.3926235 C197.356999,39.0826855 194.843032,41.7445333 192.857209,45.3781668 C190.871386,49.0118003 189.413707,53.7439741 188.484173,59.5746882 C187.554639,65.4054024 187.089872,72.4614116 187.089872,80.7427158 L187.089872,108.882249 C187.089872,117.07905 187.554639,124.071682 188.484173,129.860145 C189.413707,135.648608 190.871386,140.401907 192.857209,144.120044 C194.843032,147.83818 197.399251,150.563405 200.525866,152.295719 C203.65248,154.028033 207.328365,154.894189 211.553521,154.894189 C215.60967,154.894189 219.179926,154.028033 222.264289,152.295719 C225.348652,150.563405 227.883745,147.83818 229.869568,144.120044 C231.855391,140.401907 233.355321,135.648608 234.369359,129.860145 C235.383396,124.071682 235.890415,117.07905 235.890415,108.882249 Z" id="Shape"></path>
                    <path d="M372.15167,2.53509312 L372.15167,187.089872 L328.674823,187.089872 L328.674823,2.53509312 L372.15167,2.53509312 Z M416.896063,2.53509312 L416.896063,36.8856048 L285.197976,36.8856048 L285.197976,2.53509312 L416.896063,2.53509312 Z" id="Shape"></path>
                    <path d="M479.005844,2.53509312 L479.005844,187.089872 L435.655752,187.089872 L435.655752,2.53509312 L479.005844,2.53509312 Z M535.665176,79.3484146 L535.665176,113.572172 L467.217661,113.572172 L467.217661,79.3484146 L535.665176,79.3484146 Z M540.862116,2.53509312 L540.862116,36.8856048 L467.217661,36.8856048 L467.217661,2.53509312 L540.862116,2.53509312 Z" id="Shape"></path>
                    <polygon id="Path" points="604.366199 2.53509312 604.366199 187.089872 561.142861 187.089872 561.142861 2.53509312"></polygon>
                    <path d="M737.458588,152.866115 L737.458588,187.089872 L659.884738,187.089872 L659.884738,152.866115 L737.458588,152.866115 Z M675.095297,2.53509312 L675.095297,187.089872 L631.745205,187.089872 L631.745205,2.53509312 L675.095297,2.53509312 Z" id="Shape"></path>
                    <path d="M865.100526,152.866115 L865.100526,187.089872 L784.35781,187.089872 L784.35781,152.866115 L865.100526,152.866115 Z M799.441614,2.53509312 L799.441614,187.089872 L756.091522,187.089872 L756.091522,2.53509312 L799.441614,2.53509312 Z M854.57989,75.7992842 L854.57989,108.882249 L784.35781,108.882249 L784.35781,75.7992842 L854.57989,75.7992842 Z M865.48079,2.53509312 L865.48079,36.8856048 L784.35781,36.8856048 L784.35781,2.53509312 L865.48079,2.53509312 Z" id="Shape"></path>
                    <path d="M960.293273,138.03582 C960.293273,135.162715 960.018637,132.564244 959.469367,130.240409 C958.920097,127.916574 957.863808,125.740619 956.300501,123.712544 C954.737193,121.68447 952.392232,119.635269 949.265618,117.564943 C946.139003,115.494617 941.956099,113.318662 936.716907,111.037079 C930.125664,108.332979 923.661177,105.269742 917.323444,101.847366 C910.985711,98.4249903 905.302878,94.4110928 900.274943,89.8056737 C895.247008,85.2002545 891.211985,79.7920558 888.169873,73.5810777 C885.127762,67.3700996 883.606706,60.1239584 883.606706,51.8426542 C883.606706,43.8993625 885.148887,36.7377244 888.233251,30.3577401 C891.317614,23.9777557 895.585021,18.5273055 901.035471,14.0063895 C906.485921,9.48547341 912.929283,6.02084615 920.365556,3.61250769 C927.801829,1.20416923 935.914127,0 944.70245,0 C956.363878,0 966.652131,2.34496113 975.567209,7.0348834 C984.482286,11.7248057 991.453792,18.3582993 996.481727,26.9353644 C1001.50966,35.5124294 1004.02363,45.6316761 1004.02363,57.2931044 L960.800291,57.2931044 C960.800291,52.6454337 960.208769,48.5470332 959.025726,44.9979028 C957.842683,41.4487725 956.00474,38.66017 953.511898,36.6320955 C951.019057,34.604021 947.744562,33.5899838 943.688413,33.5899838 C940.054779,33.5899838 936.991542,34.4350148 934.4987,36.1250769 C932.005859,37.815139 930.125664,40.075597 928.858118,42.906451 C927.590571,45.737305 926.956798,48.842794 926.956798,52.2229182 C926.956798,55.0115206 927.590571,57.525488 928.858118,59.7648202 C930.125664,62.0041525 931.879104,64.0956043 934.118436,66.0391757 C936.357768,67.9827471 938.977365,69.8418154 941.977225,71.6163805 C944.977085,73.3909457 948.209329,75.1232594 951.673956,76.8133214 C960.039763,79.9399363 967.454911,83.4256893 973.919398,87.2705805 C980.383886,91.1154718 985.81321,95.4673816 990.207371,100.32631 C994.601533,105.185239 997.91828,110.699066 1000.15761,116.867793 C1002.39694,123.036519 1003.51661,130.008025 1003.51661,137.782311 C1003.51661,146.063615 1002.18569,153.415385 999.523839,159.837621 C996.861991,166.259857 992.995974,171.689181 987.925788,176.125594 C982.855601,180.562007 976.750252,183.921006 969.60974,186.202589 C962.469228,188.484173 954.420307,189.624965 945.462978,189.624965 C937.266177,189.624965 929.217256,188.420796 921.316216,186.012457 C913.415176,183.604119 906.274663,179.885982 899.894679,174.858048 C893.514695,169.830113 888.423383,163.365626 884.620743,155.464585 C880.818103,147.563545 878.916784,138.162575 878.916784,127.261674 L922.520385,127.261674 C922.520385,132.669873 922.942901,137.233041 923.787932,140.951177 C924.632963,144.669314 925.963887,147.648048 927.780703,149.887381 C929.59752,152.126713 931.942481,153.732272 934.815587,154.704057 C937.688692,155.675843 941.237823,156.161736 945.462978,156.161736 C949.350121,156.161736 952.371107,155.337831 954.525936,153.69002 C956.680765,152.04221 958.180695,149.845129 959.025726,147.098778 C959.870757,144.352427 960.293273,141.331441 960.293273,138.03582 Z" id="Path"></path>
                </g>
            </g>
            <g>
                <path d="M83.0779256,0 C37.2726376,0 0,37.2714215 0,83.0619568 L0,249.249666 C0,295.023056 37.2714415,332.279725 83.0779256,332.279725 L249.249646,332.279725 C295.023036,332.279725 332.279705,295.023854 332.279705,249.233717 L332.279705,83.0619568 C332.279705,37.2726177 295.023834,0 249.233697,0 L83.0779256,0 Z" id="terminal" fill="#2F3A3E"></path>
                <path d="M149.118401,178.552107 L93.1735897,228.268866 C90.0118367,231.072367 86.0555883,232.474197 82.1465089,232.474197 C77.567575,232.474197 73.0037926,230.589593 69.7175183,226.914006 C63.6278233,220.045206 64.2350783,209.54763 71.1037184,203.457935 L113.06133,166.139862 L71.1037184,128.837341 C64.2349188,122.747646 63.6276638,112.23412 69.7175183,105.381269 C75.8227636,98.5280198 86.3051889,97.8896644 93.1735897,104.010659 L149.102452,153.71147 C152.638008,156.873223 154.662732,161.390076 154.662732,166.140461 C154.678194,170.890845 152.653439,175.392028 149.118003,178.553901 L149.118401,178.552107 Z" id="Path" fill="#FF00FF"></path>
                <circle id="dot" fill="#00FF00" cx="207.09561" cy="214.72117" r="16.6188536"></circle>
            </g>
        </g>
    </g>
</svg>