<svg height="28" width="127" xmlns="http://www.w3.org/2000/svg"><g fill="none"><path d="m90.5797471 0h36.0715809v27.9760206h-36.0715809z" fill="#c1282d"/><path d="m0 .02397945h90.5797471v27.97602055h-90.5797471z" fill="#ef4041"/><path d="m112.213 11.004a2.309 2.309 0 0 0 -3.069 0l-.577.528-.577-.528a2.309 2.309 0 0 0 -3.067 0 2.111 2.111 0 0 0 0 3.169l3.643 3.346 3.645-3.35a2.116 2.116 0 0 0 0-3.172zm-100.287-.237 1.966 5.22 1.966-5.228h1.535v6.826h-1.183v-2.246l.12-3.006-2.022 5.252h-.848l-2.006-5.252.12 3.006v2.246h-1.183v-6.818h1.535zm12.853 5.22h-2.639l-.56 1.598h-1.206l2.573-6.818h1.031l2.614 6.818h-1.239l-.575-1.599zm-2.31-.96h1.974l-.991-2.83zm7.01 2.558v-6.818h2.014a3.197 3.197 0 0 1 1.599.4 2.75 2.75 0 0 1 1.087 1.142c.263.526.395 1.107.383 1.695v.384a3.613 3.613 0 0 1 -.383 1.702 2.71 2.71 0 0 1 -1.103 1.135c-.49.266-1.04.404-1.599.4zm1.183-5.867v4.916h.799a1.782 1.782 0 0 0 1.43-.584c.35-.48.52-1.07.48-1.662v-.376a2.606 2.606 0 0 0 -.48-1.695 1.71 1.71 0 0 0 -1.398-.583zm11.174 2.822h-2.796v2.102h3.277v.943h-4.46v-6.818h4.428v.959h-3.245v1.862h2.797v.952zm13.397 1.358 1.047-5.131h1.175l-1.599 6.818h-1.103l-1.295-4.98-1.327 4.98h-1.143l-1.598-6.818h1.207l1.055 5.123 1.303-5.123h.99zm6.45 1.687h-1.175v-6.818h1.183zm8.361-5.867h-2.102v5.867h-1.2v-5.867h-2.11v-.96h5.412zm8.417 5.867h-1.175v-3.03h-3.054v3.03h-1.182v-6.818h1.183v2.821h3.046v-2.821h1.183v6.818z" fill="#fff"/></g></svg>