<?xml version="1.0" encoding="UTF-8"?>
<svg width="1000px" height="400px" viewBox="0 0 1000 400" version="1.1" xmlns="http://www.w3.org/2000/svg" xmlns:xlink="http://www.w3.org/1999/xlink">
    <title>dotfiles</title>
    <g id="Page-1" stroke="none" stroke-width="1" fill="none" fill-rule="evenodd">
        <g id="dotfiles">
            <rect id="Rectangle" x="0" y="0" width="1000" height="400"></rect>
            <g transform="translate(100.000000, 102.000000)">
                <g id="Headers" transform="translate(208.910520, 31.516256)" fill="#2F3A3E" fill-rule="nonzero">
                    <g id="Simply-designed-to-f" transform="translate(0.000000, 123.386697)">
                        <path d="M14.4104892,24.1665327 C14.4104892,23.4754796 14.3291889,22.8623394 14.1665881,22.327112 C14.0039874,21.7918846 13.7194361,21.30747 13.3129343,20.873868 C12.9064325,20.4402661 12.33733,20.0269893 11.6056267,19.6340375 C10.8739235,19.2410858 9.94574433,18.841359 8.82108931,18.4348572 C7.60158388,18.0012552 6.49725396,17.5168406 5.50809955,16.9816132 C4.51894514,16.4463858 3.67545388,15.8332456 2.97762577,15.1421925 C2.27979766,14.4511394 1.74118276,13.6584609 1.36178107,12.7641569 C0.982379378,11.8698529 0.792678533,10.8468233 0.792678533,9.69506821 C0.792678533,8.54331308 0.992541924,7.47963334 1.39226871,6.50402899 C1.79199549,5.52842464 2.36109802,4.67815835 3.09957631,3.95323012 C3.83805461,3.22830189 4.72897108,2.66258687 5.77232573,2.25608505 C6.81568038,1.84958324 7.98098557,1.64633234 9.26824131,1.64633234 C11.1923499,1.64633234 12.8149696,2.06977172 14.1361005,2.9166505 C15.4572314,3.76352927 16.4565483,4.8678592 17.1340514,6.22964026 C17.8115544,7.59142133 18.1503059,9.04466531 18.1503059,10.5893722 L14.4104892,10.5893722 C14.4104892,9.47826724 14.2309509,8.49250035 13.8718743,7.63207151 C13.5127977,6.77164268 12.9572452,6.09413966 12.2052169,5.59956246 C11.4531885,5.10498525 10.4741967,4.85769665 9.26824131,4.85769665 C8.18423648,4.85769665 7.29332001,5.06772259 6.59549189,5.48777446 C5.89766378,5.90782633 5.38276149,6.47692887 5.05078501,7.19508207 C4.71880853,7.91323527 4.55282029,8.73301392 4.55282029,9.65441803 C4.55282029,10.2777208 4.66122077,10.8434358 4.87802174,11.3515631 C5.09482271,11.8596904 5.4301867,12.330555 5.88411372,12.7641569 C6.33804075,13.1977588 6.90714328,13.5974856 7.59142133,13.9633372 C8.27569938,14.3291889 9.08531549,14.6814904 10.0202697,15.0202419 C11.4701261,15.4944941 12.7099566,16.0229464 13.7397612,16.605599 C14.7695658,17.1882516 15.6096696,17.842042 16.2600725,18.5669702 C16.9104754,19.2918985 17.388115,20.1116771 17.6929914,21.0263062 C17.9978677,21.9409353 18.1503059,22.9741274 18.1503059,24.1258825 C18.1503059,25.3318379 17.9504425,26.4226178 17.5507157,27.3982221 C17.1509889,28.3738265 16.5717239,29.2071552 15.8129205,29.8982083 C15.0541171,30.5892613 14.139488,31.1211012 13.0690332,31.4937279 C11.9985785,31.8663545 10.7926231,32.0526679 9.45116712,32.0526679 C8.28586193,32.0526679 7.14426934,31.862967 6.02638936,31.4835653 C4.90850938,31.1041636 3.89564236,30.5350611 2.98778832,29.7762577 C2.07993427,29.0174543 1.35500604,28.0791126 0.813003623,26.9612327 C0.271001208,25.8433527 0,24.5459344 0,23.0689778 L3.73981667,23.0689778 C3.73981667,24.0852323 3.88886733,24.9558237 4.18696866,25.680752 C4.48506999,26.4056802 4.89834683,27.0052704 5.42679919,27.4795225 C5.95525154,27.9537746 6.56161674,28.3026886 7.24589479,28.5262646 C7.93017284,28.7498406 8.66526362,28.8616286 9.45116712,28.8616286 C10.535172,28.8616286 11.4464135,28.6719278 12.1848918,28.2925261 C12.9233701,27.9131244 13.4789226,27.371122 13.8515492,26.6665188 C14.2241759,25.9619157 14.4104892,25.128587 14.4104892,24.1665327 Z" id="Path"></path>
                        <path d="M26.4226178,9.65441803 L26.4226178,31.646166 L22.8454018,31.646166 L22.8454018,9.65441803 L26.4226178,9.65441803 Z M22.6421509,3.82111703 C22.6421509,3.21136431 22.8115267,2.69646202 23.1502782,2.27641015 C23.4890297,1.85635827 23.997157,1.64633234 24.67466,1.64633234 C25.352163,1.64633234 25.8636778,1.85635827 26.2092043,2.27641015 C26.5547308,2.69646202 26.7274941,3.21136431 26.7274941,3.82111703 C26.7274941,4.40376963 26.5547308,4.90173435 26.2092043,5.31501119 C25.8636778,5.72828803 25.352163,5.93492645 24.67466,5.93492645 C23.997157,5.93492645 23.4890297,5.72828803 23.1502782,5.31501119 C22.8115267,4.90173435 22.6421509,4.40376963 22.6421509,3.82111703 Z" id="Shape"></path>
                        <path d="M35.7111842,14.0243125 L35.7111842,31.646166 L32.1339682,31.646166 L32.1339682,9.65441803 L35.5079333,9.65441803 L35.7111842,14.0243125 Z M34.9794809,19.8169633 L33.3128235,19.755988 C33.2992734,18.2519313 33.4483241,16.8596626 33.7599755,15.5791819 C34.0716269,14.2987012 34.5424914,13.1842088 35.1725693,12.2357045 C35.8026471,11.2872003 36.5953256,10.5521095 37.5506049,10.0304322 C38.5058841,9.50875488 39.6203766,9.24791622 40.8940823,9.24791622 C41.734186,9.24791622 42.516702,9.39357937 43.2416302,9.68490566 C43.9665585,9.97623196 44.6000238,10.4335465 45.1420262,11.0568493 C45.6840286,11.6801521 46.107468,12.4796056 46.4123444,13.45521 C46.7172207,14.4308143 46.8696589,15.6096696 46.8696589,16.9917757 L46.8696589,31.646166 L43.2721179,31.646166 L43.2721179,17.1747015 C43.2721179,16.0229464 43.1196797,15.1015423 42.8148033,14.4104892 C42.509927,13.7194361 42.0797125,13.2146964 41.5241601,12.89627 C40.9686076,12.5778436 40.3046546,12.4186303 39.5323012,12.4186303 C38.6515473,12.4186303 37.9164565,12.6151062 37.3270289,13.008058 C36.7376012,13.4010097 36.2701241,13.9430121 35.9245976,14.6340652 C35.5790711,15.3251183 35.33517,16.1144093 35.1928943,17.0019383 C35.0506187,17.8894672 34.9794809,18.8278089 34.9794809,19.8169633 Z M46.8290087,17.7438041 L44.430648,18.5161575 C44.417098,17.3102021 44.5661486,16.151672 44.8778,15.040567 C45.1894514,13.9294621 45.653541,12.9403077 46.2700687,12.0731038 C46.8865965,11.2058999 47.6555624,10.5182344 48.5769665,10.0101071 C49.4983706,9.50197985 50.5688254,9.24791622 51.7883308,9.24791622 C52.7910353,9.24791622 53.6785642,9.40374191 54.4509177,9.7153933 C55.2232711,10.0270447 55.8770615,10.5046843 56.4122889,11.1483122 C56.9475163,11.7919401 57.3506306,12.6151062 57.6216318,13.6178107 C57.892633,14.6205152 58.0281336,15.8129205 58.0281336,17.1950266 L58.0281336,31.646166 L54.4305926,31.646166 L54.4305926,17.1543765 C54.4305926,15.921321 54.2781544,14.9626542 53.973278,14.2783761 C53.6684017,13.5940981 53.2381873,13.1130709 52.6826348,12.8352947 C52.1270823,12.5575185 51.4631294,12.4186303 50.6907759,12.4186303 C50.0674731,12.4186303 49.5153082,12.560906 49.034281,12.8454572 C48.5532539,13.1300085 48.1501396,13.5195728 47.8249381,14.01415 C47.4997367,14.5087272 47.2524481,15.0744422 47.0830723,15.711295 C46.9136966,16.3481479 46.8290087,17.0256509 46.8290087,17.7438041 Z" id="Shape"></path>
                        <path d="M67.0524738,13.8820369 L67.0524738,40.1014037 L63.4549328,40.1014037 L63.4549328,9.65441803 L66.7272724,9.65441803 L67.0524738,13.8820369 Z M79.3491536,19.6543626 L79.3491536,21.7071967 C79.3491536,23.4416045 79.1899404,24.9558237 78.871514,26.2498545 C78.5530876,27.5438853 78.0856105,28.6211151 77.4690828,29.4815439 C76.852555,30.3419727 76.0971392,30.9856006 75.2028352,31.4124275 C74.3085312,31.8392544 73.2855016,32.0526679 72.1337465,32.0526679 C70.9819914,32.0526679 69.9826744,31.8324794 69.1357956,31.3921024 C68.2889169,30.9517254 67.5775387,30.3114851 67.0016611,29.4713813 C66.4257835,28.6312776 65.9718565,27.6184106 65.63988,26.4327803 C65.3079036,25.24715 65.0809401,23.9158566 64.9589895,22.4389 L64.9589895,19.3088361 C65.0809401,17.7505791 65.3045161,16.3515354 65.6297175,15.1117049 C65.9549189,13.8718743 66.4054585,12.8149696 66.981336,11.9409907 C67.5572136,11.0670118 68.2685918,10.3996713 69.1154705,9.9389693 C69.9623493,9.47826724 70.9548912,9.24791622 72.0930963,9.24791622 C73.2719516,9.24791622 74.3119187,9.45116712 75.2129977,9.85766893 C76.1140767,10.2641707 76.8728801,10.890861 77.4894079,11.7377398 C78.1059356,12.5846186 78.5700252,13.6618484 78.8816766,14.9694292 C79.193328,16.27701 79.3491536,17.8386545 79.3491536,19.6543626 Z M75.7516126,21.7071967 L75.7516126,19.6543626 C75.7516126,18.4348572 75.6601497,17.3711774 75.4772239,16.4633234 C75.2942981,15.5554693 75.0063593,14.803441 74.6134075,14.2072383 C74.2204558,13.6110357 73.7258786,13.1638837 73.1296759,12.8657823 C72.5334733,12.567681 71.8153201,12.4186303 70.9752163,12.4186303 C70.2570631,12.4186303 69.6235978,12.567681 69.0748204,12.8657823 C68.5260429,13.1638837 68.0551783,13.566998 67.6622266,14.0751252 C67.2692748,14.5832525 66.9440734,15.1591301 66.6866222,15.8027579 C66.4291711,16.4463858 66.2394702,17.1137263 66.1175197,17.8047794 L66.1175197,23.9632818 C66.3478707,24.8304857 66.6527471,25.6468768 67.0321488,26.4124552 C67.4115504,27.1780336 67.9230652,27.7979489 68.5666931,28.272201 C69.210321,28.7464531 70.0267121,28.9835792 71.0158665,28.9835792 C71.8424202,28.9835792 72.5537984,28.8345285 73.150001,28.5364272 C73.7462037,28.2383259 74.2373934,27.7877863 74.6235701,27.1848087 C75.0097468,26.581831 75.2942981,25.8230276 75.4772239,24.9083985 C75.6601497,23.9937694 75.7516126,22.9267022 75.7516126,21.7071967 Z" id="Shape"></path>
                        <polygon id="Path" points="87.8450415 0.426826902 87.8450415 31.646166 84.2678256 31.646166 84.2678256 0.426826902"></polygon>
                        <path d="M98.6376646,29.3697559 L103.536011,9.65441803 L107.357128,9.65441803 L100.101071,35.0404562 C99.9249203,35.5824586 99.6911818,36.1684987 99.3998555,36.7985765 C99.1085292,37.4286543 98.7392901,38.0282445 98.2921381,38.597347 C97.8449861,39.1664496 97.3097587,39.6305391 96.6864559,39.9896157 C96.0631531,40.3486923 95.3314499,40.5282306 94.4913461,40.5282306 C94.233895,40.5282306 93.905306,40.4875804 93.5055792,40.4062801 C93.1058525,40.3249797 92.8179137,40.2572294 92.6417629,40.2030292 L92.6417629,37.1542656 C92.7230632,37.1678157 92.8517888,37.1847532 93.0279396,37.2050783 C93.2040904,37.2254034 93.332816,37.235566 93.4141163,37.235566 C94.1187195,37.235566 94.7183096,37.123778 95.2128868,36.900202 C95.7074641,36.676626 96.1309034,36.3039993 96.483205,35.782322 C96.8355066,35.2606447 97.1336079,34.545879 97.377509,33.6380249 L98.6376646,29.3697559 Z M95.4669505,9.65441803 L99.836845,26.7274941 L100.771799,30.6908868 L98.2108377,32.0729929 L91.544208,9.65441803 L95.4669505,9.65441803 Z" id="Shape"></path>
                        <path d="M131.950488,27.377897 L131.950488,0.426826902 L135.527704,0.426826902 L135.527704,31.646166 L132.255364,31.646166 L131.950488,27.377897 Z M119.653808,21.7071967 L119.653808,19.6543626 C119.653808,17.8386545 119.829959,16.27701 120.182261,14.9694292 C120.534562,13.6618484 121.035914,12.5846186 121.686317,11.7377398 C122.33672,10.890861 123.115849,10.2641707 124.023703,9.85766893 C124.931557,9.45116712 125.934261,9.24791622 127.031816,9.24791622 C128.170021,9.24791622 129.149013,9.47826724 129.968792,9.9389693 C130.78857,10.3996713 131.476236,11.0670118 132.031788,11.9409907 C132.587341,12.8149696 133.02433,13.8718743 133.342757,15.1117049 C133.661183,16.3515354 133.874597,17.7505791 133.982997,19.3088361 L133.982997,22.0527233 C133.861047,23.5974302 133.640858,24.9863114 133.322432,26.2193669 C133.004005,27.4524224 132.567016,28.502552 132.011463,29.3697559 C131.455911,30.2369598 130.764858,30.9009127 129.938304,31.3616148 C129.11175,31.8223168 128.129371,32.0526679 126.991166,32.0526679 C125.907161,32.0526679 124.918007,31.8392544 124.023703,31.4124275 C123.129399,30.9856006 122.353658,30.3419727 121.69648,29.4815439 C121.039302,28.6211151 120.534562,27.5438853 120.182261,26.2498545 C119.829959,24.9558237 119.653808,23.4416045 119.653808,21.7071967 Z M123.251349,19.6543626 L123.251349,21.7071967 C123.251349,22.9267022 123.339425,23.9869944 123.515575,24.8880734 C123.691726,25.7891524 123.969503,26.5344058 124.348904,27.1238334 C124.728306,27.713261 125.212721,28.1502505 125.802148,28.4348017 C126.391576,28.719353 127.099566,28.8616286 127.92612,28.8616286 C128.928825,28.8616286 129.748603,28.6177275 130.385456,28.1299254 C131.022309,27.6421232 131.533824,26.9951078 131.92,26.1888792 C132.306177,25.3826506 132.614441,24.5120592 132.844792,23.5771051 L132.844792,17.8047794 C132.709291,17.1137263 132.512816,16.4463858 132.255364,15.8027579 C131.997913,15.1591301 131.676099,14.5832525 131.289923,14.0751252 C130.903746,13.566998 130.436269,13.1638837 129.887491,12.8657823 C129.338714,12.567681 128.698474,12.4186303 127.96677,12.4186303 C127.140217,12.4186303 126.425451,12.567681 125.822473,12.8657823 C125.219496,13.1638837 124.731693,13.6110357 124.359067,14.2072383 C123.98644,14.803441 123.708664,15.5554693 123.525738,16.4633234 C123.342812,17.3711774 123.251349,18.4348572 123.251349,19.6543626 Z" id="Shape"></path>
                        <path d="M148.942264,32.0526679 C147.627908,32.0526679 146.442278,31.856192 145.385373,31.4632402 C144.328468,31.0702885 143.427389,30.4706983 142.682136,29.6644697 C141.936883,28.8582411 141.36778,27.8385991 140.974828,26.6055436 C140.581877,25.3724881 140.385401,23.9158566 140.385401,22.2356491 L140.385401,19.755988 C140.385401,17.8183294 140.612364,16.1787721 141.066291,14.8373161 C141.520218,13.4958601 142.133358,12.4152428 142.905712,11.5954642 C143.678065,10.7756855 144.552044,10.1794829 145.527649,9.80685621 C146.503253,9.43422955 147.505957,9.24791622 148.535762,9.24791622 C149.917868,9.24791622 151.096723,9.47149221 152.072328,9.91864421 C153.047932,10.3657962 153.840611,11.0297492 154.450363,11.9105031 C155.060116,12.791257 155.510656,13.8752618 155.801982,15.1625176 C156.093308,16.4497733 156.238971,17.9335049 156.238971,19.6137124 L156.238971,21.7071967 L142.49921,21.7071967 L142.49921,18.6381081 L152.64143,18.6381081 L152.64143,18.1299808 C152.58723,16.9917757 152.434792,15.9890713 152.184116,15.1218674 C151.93344,14.2546635 151.52355,13.573773 150.954448,13.0791958 C150.385345,12.5846186 149.579117,12.33733 148.535762,12.33733 C147.871809,12.33733 147.258669,12.449118 146.696341,12.672694 C146.134014,12.89627 145.652987,13.2824467 145.25326,13.8312241 C144.853533,14.3800016 144.541882,15.1354175 144.318306,16.0974717 C144.09473,17.059526 143.982942,18.2790315 143.982942,19.755988 L143.982942,22.2356491 C143.982942,23.4145044 144.09473,24.4273714 144.318306,25.2742501 C144.541882,26.1211289 144.873858,26.818957 145.314235,27.3677345 C145.754612,27.9165119 146.296615,28.3230137 146.940242,28.5872399 C147.58387,28.8514661 148.318961,28.9835792 149.145515,28.9835792 C150.35147,28.9835792 151.3474,28.7498406 152.133303,28.2823635 C152.919207,27.8148865 153.603485,27.2152963 154.186137,26.483593 L156.076371,28.7396781 C155.683419,29.2952306 155.171904,29.8270704 154.541826,30.3351977 C153.911748,30.843325 153.139395,31.2566018 152.224766,31.5750282 C151.310137,31.8934546 150.215969,32.0526679 148.942264,32.0526679 Z" id="Path"></path>
                        <path d="M171.259213,26.0161159 C171.259213,25.4605635 171.123713,24.9727613 170.852711,24.5527094 C170.58171,24.1326576 170.137946,23.7261557 169.521418,23.333204 C168.90489,22.9402522 168.074949,22.5202004 167.031594,22.0730484 C166.01534,21.6529965 165.104098,21.2363321 164.29787,20.8230553 C163.491641,20.4097785 162.810751,19.959239 162.255198,19.4714368 C161.699646,18.9836346 161.276206,18.4179196 160.98488,17.7742917 C160.693554,17.1306638 160.547891,16.368473 160.547891,15.487719 C160.547891,14.6069651 160.713879,13.790574 161.045855,13.0385456 C161.377832,12.2865173 161.848696,11.6259518 162.458449,11.0568493 C163.068202,10.4877467 163.799905,10.0439823 164.653559,9.72555585 C165.507213,9.40712943 166.462492,9.24791622 167.519397,9.24791622 C169.023453,9.24791622 170.303934,9.53924251 171.360839,10.1218951 C172.417743,10.7045477 173.22736,11.5006138 173.789687,12.5100933 C174.352015,13.5195728 174.633178,14.6543903 174.633178,15.9145459 L171.055962,15.9145459 C171.055962,15.3047932 170.920462,14.7289156 170.649461,14.1869132 C170.378459,13.6449108 169.978733,13.2011463 169.45028,12.8556198 C168.921828,12.5100933 168.2782,12.33733 167.519397,12.33733 C166.719943,12.33733 166.06954,12.4796056 165.568188,12.7641569 C165.066836,13.0487082 164.704372,13.4179473 164.480796,13.8718743 C164.25722,14.3258013 164.145432,14.8237661 164.145432,15.3657685 C164.145432,15.7722703 164.203019,16.1211843 164.318195,16.4125106 C164.43337,16.7038369 164.633234,16.9748382 164.917785,17.2255143 C165.202336,17.4761904 165.591901,17.7336415 166.086478,17.9978677 C166.581055,18.2620939 167.21452,18.5635827 167.986874,18.9023342 C169.47738,19.4849868 170.730761,20.0744145 171.747015,20.6706171 C172.76327,21.2668198 173.535623,21.9646479 174.064076,22.7641015 C174.592528,23.563555 174.856754,24.5527094 174.856754,25.7315647 C174.856754,26.693619 174.683991,27.5642103 174.338464,28.3433388 C173.992938,29.1224673 173.501748,29.7898078 172.864895,30.3453602 C172.228043,30.9009127 171.465852,31.3243521 170.578323,31.6156784 C169.690794,31.9070047 168.698252,32.0526679 167.600697,32.0526679 C165.94759,32.0526679 164.548546,31.7240789 163.403566,31.066901 C162.258586,30.409723 161.391382,29.5492942 160.801954,28.4856145 C160.212527,27.4219347 159.917813,26.2803421 159.917813,25.0608367 L163.515354,25.0608367 C163.556004,26.0906413 163.789742,26.8900948 164.216569,27.4591974 C164.643396,28.0282999 165.161686,28.4212517 165.771439,28.6380526 C166.381192,28.8548536 166.990944,28.9632541 167.600697,28.9632541 C168.400151,28.9632541 169.070879,28.8446911 169.612881,28.607565 C170.154883,28.3704389 170.564773,28.0282999 170.842549,27.5811479 C171.120325,27.1339959 171.259213,26.6123186 171.259213,26.0161159 Z" id="Path"></path>
                        <path d="M183.433943,9.65441803 L183.433943,31.646166 L179.856727,31.646166 L179.856727,9.65441803 L183.433943,9.65441803 Z M179.653476,3.82111703 C179.653476,3.21136431 179.822851,2.69646202 180.161603,2.27641015 C180.500354,1.85635827 181.008482,1.64633234 181.685985,1.64633234 C182.363488,1.64633234 182.875003,1.85635827 183.220529,2.27641015 C183.566056,2.69646202 183.738819,3.21136431 183.738819,3.82111703 C183.738819,4.40376963 183.566056,4.90173435 183.220529,5.31501119 C182.875003,5.72828803 182.363488,5.93492645 181.685985,5.93492645 C181.008482,5.93492645 180.500354,5.72828803 180.161603,5.31501119 C179.822851,4.90173435 179.653476,4.40376963 179.653476,3.82111703 Z" id="Shape"></path>
                        <path d="M201.035471,9.65441803 L204.26716,9.65441803 L204.26716,31.8290919 C204.26716,33.7667505 203.931796,35.3656576 203.261068,36.6258132 C202.59034,37.8859689 201.658774,38.8175355 200.466368,39.4205132 C199.273963,40.0234909 197.898632,40.3249797 196.340375,40.3249797 C195.784823,40.3249797 195.086994,40.2233543 194.246891,40.0201034 C193.406787,39.8168525 192.566683,39.5085886 191.726579,39.0953117 C190.886476,38.6820349 190.195423,38.1637451 189.65342,37.5404423 L191.137152,35.0404562 C191.909505,35.8263597 192.729284,36.3886872 193.596488,36.7274387 C194.463692,37.0661902 195.290245,37.235566 196.076149,37.235566 C197.011103,37.235566 197.824107,37.0661902 198.51516,36.7274387 C199.206213,36.3886872 199.74144,35.8365222 200.120842,35.0709438 C200.500244,34.3053654 200.689944,33.2857233 200.689944,32.0120177 L200.689944,14.4917896 L201.035471,9.65441803 Z M188.393265,21.7071967 L188.393265,19.6543626 C188.393265,17.8386545 188.56264,16.27701 188.901392,14.9694292 C189.240143,13.6618484 189.731333,12.5846186 190.374961,11.7377398 C191.018589,10.890861 191.79433,10.2641707 192.702184,9.85766893 C193.610038,9.45116712 194.626292,9.24791622 195.750947,9.24791622 C196.889152,9.24791622 197.871532,9.47826724 198.698086,9.9389693 C199.524639,10.3996713 200.212305,11.0670118 200.761082,11.9409907 C201.30986,12.8149696 201.743462,13.8718743 202.061888,15.1117049 C202.380314,16.3515354 202.600503,17.7505791 202.722453,19.3088361 L202.722453,22.0527233 C202.600503,23.5974302 202.380314,24.9863114 202.061888,26.2193669 C201.743462,27.4524224 201.303085,28.502552 200.740757,29.3697559 C200.17843,30.2369598 199.483989,30.9009127 198.657435,31.3616148 C197.830882,31.8223168 196.848502,32.0526679 195.710297,32.0526679 C194.599192,32.0526679 193.596488,31.8392544 192.702184,31.4124275 C191.80788,30.9856006 191.038914,30.3419727 190.395286,29.4815439 C189.751658,28.6211151 189.257081,27.5438853 188.911554,26.2498545 C188.566028,24.9558237 188.393265,23.4416045 188.393265,21.7071967 Z M191.990806,19.6543626 L191.990806,21.7071967 C191.990806,22.9267022 192.078881,23.9869944 192.255032,24.8880734 C192.431183,25.7891524 192.705571,26.5344058 193.078198,27.1238334 C193.450825,27.713261 193.931852,28.1502505 194.521279,28.4348017 C195.110707,28.719353 195.818698,28.8616286 196.645251,28.8616286 C197.647956,28.8616286 198.467735,28.6177275 199.104587,28.1299254 C199.74144,27.6421232 200.252955,26.9951078 200.639132,26.1888792 C201.025308,25.3826506 201.333572,24.5120592 201.563923,23.5771051 L201.563923,17.8047794 C201.428423,17.1137263 201.235334,16.4463858 200.984658,15.8027579 C200.733982,15.1591301 200.412168,14.5832525 200.019216,14.0751252 C199.626265,13.566998 199.1554,13.1638837 198.606623,12.8657823 C198.057845,12.567681 197.417605,12.4186303 196.685902,12.4186303 C195.859348,12.4186303 195.14797,12.567681 194.551767,12.8657823 C193.955564,13.1638837 193.467762,13.6110357 193.088361,14.2072383 C192.708959,14.803441 192.431183,15.5554693 192.255032,16.4633234 C192.078881,17.3711774 191.990806,18.4348572 191.990806,19.6543626 Z" id="Shape"></path>
                        <path d="M213.25085,14.349514 L213.25085,31.646166 L209.653309,31.646166 L209.653309,9.65441803 L213.0476,9.65441803 L213.25085,14.349514 Z M212.376872,19.8169633 L210.913465,19.755988 C210.899915,18.2519313 211.072678,16.8596626 211.431755,15.5791819 C211.790831,14.2987012 212.305734,13.1842088 212.976462,12.2357045 C213.64719,11.2872003 214.450031,10.5521095 215.384985,10.0304322 C216.319939,9.50875488 217.356519,9.24791622 218.494724,9.24791622 C219.389028,9.24791622 220.202031,9.39357937 220.933735,9.68490566 C221.665438,9.97623196 222.288741,10.4403215 222.803643,11.0771744 C223.318545,11.7140272 223.714885,12.5371934 223.992661,13.5466729 C224.270437,14.5561524 224.409325,15.7858204 224.409325,17.2356768 L224.409325,31.646166 L220.811784,31.646166 L220.811784,17.1950266 C220.811784,16.0432715 220.686446,15.1184799 220.43577,14.4206518 C220.185094,13.7228237 219.805692,13.2146964 219.297565,12.89627 C218.789438,12.5778436 218.149197,12.4186303 217.376844,12.4186303 C216.672241,12.4186303 216.015063,12.6151062 215.40531,13.008058 C214.795557,13.4010097 214.263717,13.9430121 213.80979,14.6340652 C213.355863,15.3251183 213.003562,16.1144093 212.752886,17.0019383 C212.50221,17.8894672 212.376872,18.8278089 212.376872,19.8169633 Z" id="Shape"></path>
                        <path d="M237.681609,32.0526679 C236.367253,32.0526679 235.181623,31.856192 234.124718,31.4632402 C233.067814,31.0702885 232.166735,30.4706983 231.421481,29.6644697 C230.676228,28.8582411 230.107126,27.8385991 229.714174,26.6055436 C229.321222,25.3724881 229.124746,23.9158566 229.124746,22.2356491 L229.124746,19.755988 C229.124746,17.8183294 229.35171,16.1787721 229.805637,14.8373161 C230.259564,13.4958601 230.872704,12.4152428 231.645057,11.5954642 C232.417411,10.7756855 233.29139,10.1794829 234.266994,9.80685621 C235.242598,9.43422955 236.245303,9.24791622 237.275107,9.24791622 C238.657214,9.24791622 239.836069,9.47149221 240.811673,9.91864421 C241.787278,10.3657962 242.579956,11.0297492 243.189709,11.9105031 C243.799462,12.791257 244.250001,13.8752618 244.541327,15.1625176 C244.832654,16.4497733 244.978317,17.9335049 244.978317,19.6137124 L244.978317,21.7071967 L231.238556,21.7071967 L231.238556,18.6381081 L241.380776,18.6381081 L241.380776,18.1299808 C241.326576,16.9917757 241.174137,15.9890713 240.923461,15.1218674 C240.672785,14.2546635 240.262896,13.573773 239.693793,13.0791958 C239.124691,12.5846186 238.318462,12.33733 237.275107,12.33733 C236.611155,12.33733 235.998014,12.449118 235.435687,12.672694 C234.873359,12.89627 234.392332,13.2824467 233.992605,13.8312241 C233.592879,14.3800016 233.281227,15.1354175 233.057651,16.0974717 C232.834075,17.059526 232.722287,18.2790315 232.722287,19.755988 L232.722287,22.2356491 C232.722287,23.4145044 232.834075,24.4273714 233.057651,25.2742501 C233.281227,26.1211289 233.613204,26.818957 234.053581,27.3677345 C234.493958,27.9165119 235.03596,28.3230137 235.679588,28.5872399 C236.323216,28.8514661 237.058307,28.9835792 237.88486,28.9835792 C239.090816,28.9835792 240.086745,28.7498406 240.872649,28.2823635 C241.658552,27.8148865 242.34283,27.2152963 242.925483,26.483593 L244.815716,28.7396781 C244.422764,29.2952306 243.91125,29.8270704 243.281172,30.3351977 C242.651094,30.843325 241.878741,31.2566018 240.964111,31.5750282 C240.049482,31.8934546 238.955315,32.0526679 237.681609,32.0526679 Z" id="Path"></path>
                        <path d="M260.852213,27.377897 L260.852213,0.426826902 L264.429429,0.426826902 L264.429429,31.646166 L261.157089,31.646166 L260.852213,27.377897 Z M248.555533,21.7071967 L248.555533,19.6543626 C248.555533,17.8386545 248.731684,16.27701 249.083985,14.9694292 C249.436287,13.6618484 249.937639,12.5846186 250.588042,11.7377398 C251.238445,10.890861 252.017573,10.2641707 252.925427,9.85766893 C253.833281,9.45116712 254.835986,9.24791622 255.933541,9.24791622 C257.071746,9.24791622 258.050738,9.47826724 258.870516,9.9389693 C259.690295,10.3996713 260.37796,11.0670118 260.933513,11.9409907 C261.489065,12.8149696 261.926055,13.8718743 262.244481,15.1117049 C262.562908,16.3515354 262.776321,17.7505791 262.884722,19.3088361 L262.884722,22.0527233 C262.762771,23.5974302 262.542583,24.9863114 262.224156,26.2193669 C261.90573,27.4524224 261.46874,28.502552 260.913188,29.3697559 C260.357635,30.2369598 259.666582,30.9009127 258.840029,31.3616148 C258.013475,31.8223168 257.031096,32.0526679 255.89289,32.0526679 C254.808886,32.0526679 253.819731,31.8392544 252.925427,31.4124275 C252.031123,30.9856006 251.255382,30.3419727 250.598204,29.4815439 C249.941026,28.6211151 249.436287,27.5438853 249.083985,26.2498545 C248.731684,24.9558237 248.555533,23.4416045 248.555533,21.7071967 Z M252.153074,19.6543626 L252.153074,21.7071967 C252.153074,22.9267022 252.241149,23.9869944 252.4173,24.8880734 C252.593451,25.7891524 252.871227,26.5344058 253.250629,27.1238334 C253.63003,27.713261 254.114445,28.1502505 254.703873,28.4348017 C255.2933,28.719353 256.001291,28.8616286 256.827845,28.8616286 C257.830549,28.8616286 258.650328,28.6177275 259.287181,28.1299254 C259.924033,27.6421232 260.435548,26.9951078 260.821725,26.1888792 C261.207902,25.3826506 261.516166,24.5120592 261.746517,23.5771051 L261.746517,17.8047794 C261.611016,17.1137263 261.41454,16.4463858 261.157089,15.8027579 C260.899638,15.1591301 260.577824,14.5832525 260.191647,14.0751252 C259.80547,13.566998 259.337993,13.1638837 258.789216,12.8657823 C258.240438,12.567681 257.600198,12.4186303 256.868495,12.4186303 C256.041941,12.4186303 255.327175,12.567681 254.724198,12.8657823 C254.12122,13.1638837 253.633418,13.6110357 253.260791,14.2072383 C252.888165,14.803441 252.610388,15.5554693 252.427463,16.4633234 C252.244537,17.3711774 252.153074,18.4348572 252.153074,19.6543626 Z" id="Shape"></path>
                        <path d="M287.559382,9.65441803 L287.559382,12.5405809 L277.295211,12.5405809 L277.295211,9.65441803 L287.559382,9.65441803 Z M280.648851,4.3089192 L284.246392,4.3089192 L284.246392,26.1990418 C284.246392,26.9442951 284.337855,27.5066226 284.520781,27.8860243 C284.703706,28.265426 284.937445,28.5161021 285.221996,28.6380526 C285.506547,28.7600032 285.811424,28.8209784 286.136625,28.8209784 C286.380526,28.8209784 286.651528,28.7904908 286.949629,28.7295155 C287.24773,28.6685403 287.450981,28.6177275 287.559382,28.5770774 L287.539057,31.646166 C287.295155,31.7410165 286.969954,31.8324794 286.563452,31.9205548 C286.15695,32.0086302 285.642048,32.0526679 285.018745,32.0526679 C284.246392,32.0526679 283.528239,31.869742 282.864286,31.5038904 C282.200333,31.1380388 281.665105,30.5248985 281.258604,29.6644697 C280.852102,28.8040409 280.648851,27.6421232 280.648851,26.1787167 L280.648851,4.3089192 Z" id="Shape"></path>
                        <path d="M290.689446,21.7071967 L290.689446,19.6137124 C290.689446,17.9064048 290.906247,16.4057356 291.339848,15.1117049 C291.77345,13.8176741 292.376428,12.7370568 293.148782,11.8698529 C293.921135,11.002649 294.822214,10.3488586 295.852019,9.90848166 C296.881823,9.4681047 297.986153,9.24791622 299.165008,9.24791622 C300.370964,9.24791622 301.488844,9.4681047 302.518648,9.90848166 C303.548453,10.3488586 304.452919,11.002649 305.232048,11.8698529 C306.011176,12.7370568 306.617542,13.8176741 307.051143,15.1117049 C307.484745,16.4057356 307.701546,17.9064048 307.701546,19.6137124 L307.701546,21.7071967 C307.701546,23.4145044 307.484745,24.9151735 307.051143,26.2092043 C306.617542,27.5032351 306.014564,28.5838524 305.24221,29.4510563 C304.469857,30.3182601 303.568778,30.968663 302.538973,31.402265 C301.509169,31.8358669 300.398064,32.0526679 299.205659,32.0526679 C298.013253,32.0526679 296.902148,31.8358669 295.872344,31.402265 C294.842539,30.968663 293.938073,30.3182601 293.158944,29.4510563 C292.379816,28.5838524 291.77345,27.5032351 291.339848,26.2092043 C290.906247,24.9151735 290.689446,23.4145044 290.689446,21.7071967 Z M294.286987,19.6137124 L294.286987,21.7071967 C294.286987,22.9131521 294.408937,23.9700568 294.652838,24.8779109 C294.896739,25.7857649 295.242266,26.5445683 295.689418,27.154321 C296.13657,27.7640737 296.658247,28.2213883 297.25445,28.5262646 C297.850652,28.831141 298.501055,28.9835792 299.205659,28.9835792 C300.018662,28.9835792 300.733428,28.831141 301.349956,28.5262646 C301.966483,28.2213883 302.477998,27.7640737 302.8845,27.154321 C303.291002,26.5445683 303.595878,25.7857649 303.799129,24.8779109 C304.00238,23.9700568 304.104005,22.9131521 304.104005,21.7071967 L304.104005,19.6137124 C304.104005,18.407757 303.982055,17.3542398 303.738154,16.4531608 C303.494253,15.5520818 303.148726,14.7932784 302.701574,14.1767507 C302.254422,13.5602229 301.729357,13.0995209 301.12638,12.7946445 C300.523402,12.4897682 299.869611,12.33733 299.165008,12.33733 C298.473955,12.33733 297.830327,12.4897682 297.234125,12.7946445 C296.637922,13.0995209 296.119632,13.5602229 295.679255,14.1767507 C295.238878,14.7932784 294.896739,15.5520818 294.652838,16.4531608 C294.408937,17.3542398 294.286987,18.407757 294.286987,19.6137124 Z" id="Shape"></path>
                        <path d="M326.48193,31.646166 L322.884389,31.646166 L322.884389,7.74385951 C322.884389,6.07720208 323.165553,4.6679958 323.72788,3.51624067 C324.290208,2.36448554 325.096436,1.49050664 326.146566,0.894303986 C327.196696,0.298101329 328.439914,0 329.87622,0 C330.729874,0 331.549653,0.118563028 332.335556,0.355689085 C333.12146,0.592815142 333.934463,0.887528956 334.774567,1.23983053 L334.164814,4.41054466 C333.677012,4.16664357 333.080809,3.93290503 332.376206,3.70932903 C331.671603,3.48575304 330.933125,3.37396504 330.160771,3.37396504 C328.805765,3.37396504 327.853874,3.73642915 327.305096,4.46135738 C326.756319,5.18628561 326.48193,6.28045299 326.48193,7.74385951 L326.48193,31.646166 Z M330.038821,9.65441803 L330.038821,12.5405809 L320.018551,12.5405809 L320.018551,9.65441803 L330.038821,9.65441803 Z M336.5022,9.65441803 L336.5022,31.646166 L332.904659,31.646166 L332.904659,9.65441803 L336.5022,9.65441803 Z" id="Shape"></path>
                        <path d="M350.323261,9.65441803 L350.323261,12.5405809 L340.059091,12.5405809 L340.059091,9.65441803 L350.323261,9.65441803 Z M343.412731,4.3089192 L347.010272,4.3089192 L347.010272,26.1990418 C347.010272,26.9442951 347.101734,27.5066226 347.28466,27.8860243 C347.467586,28.265426 347.701325,28.5161021 347.985876,28.6380526 C348.270427,28.7600032 348.575304,28.8209784 348.900505,28.8209784 C349.144406,28.8209784 349.415407,28.7904908 349.713509,28.7295155 C350.01161,28.6685403 350.214861,28.6177275 350.323261,28.5770774 L350.302936,31.646166 C350.059035,31.7410165 349.733834,31.8324794 349.327332,31.9205548 C348.92083,32.0086302 348.405928,32.0526679 347.782625,32.0526679 C347.010272,32.0526679 346.292118,31.869742 345.628165,31.5038904 C344.964212,31.1380388 344.428985,30.5248985 344.022483,29.6644697 C343.615981,28.8040409 343.412731,27.6421232 343.412731,26.1787167 L343.412731,4.3089192 Z" id="Shape"></path>
                        <path d="M369.266246,29.3697559 L374.164593,9.65441803 L377.98571,9.65441803 L370.729652,35.0404562 C370.553501,35.5824586 370.319763,36.1684987 370.028437,36.7985765 C369.73711,37.4286543 369.367871,38.0282445 368.920719,38.597347 C368.473567,39.1664496 367.93834,39.6305391 367.315037,39.9896157 C366.691734,40.3486923 365.960031,40.5282306 365.119927,40.5282306 C364.862476,40.5282306 364.533887,40.4875804 364.13416,40.4062801 C363.734434,40.3249797 363.446495,40.2572294 363.270344,40.2030292 L363.270344,37.1542656 C363.351644,37.1678157 363.48037,37.1847532 363.656521,37.2050783 C363.832672,37.2254034 363.961397,37.235566 364.042697,37.235566 C364.747301,37.235566 365.346891,37.123778 365.841468,36.900202 C366.336045,36.676626 366.759485,36.3039993 367.111786,35.782322 C367.464088,35.2606447 367.762189,34.545879 368.00609,33.6380249 L369.266246,29.3697559 Z M366.095532,9.65441803 L370.465426,26.7274941 L371.40038,30.6908868 L368.839419,32.0729929 L362.172789,9.65441803 L366.095532,9.65441803 Z" id="Shape"></path>
                        <path d="M380.445046,21.7071967 L380.445046,19.6137124 C380.445046,17.9064048 380.661847,16.4057356 381.095448,15.1117049 C381.52905,13.8176741 382.132028,12.7370568 382.904382,11.8698529 C383.676735,11.002649 384.577814,10.3488586 385.607619,9.90848166 C386.637423,9.4681047 387.741753,9.24791622 388.920608,9.24791622 C390.126564,9.24791622 391.244444,9.4681047 392.274248,9.90848166 C393.304053,10.3488586 394.208519,11.002649 394.987648,11.8698529 C395.766776,12.7370568 396.373142,13.8176741 396.806743,15.1117049 C397.240345,16.4057356 397.457146,17.9064048 397.457146,19.6137124 L397.457146,21.7071967 C397.457146,23.4145044 397.240345,24.9151735 396.806743,26.2092043 C396.373142,27.5032351 395.770164,28.5838524 394.99781,29.4510563 C394.225457,30.3182601 393.324378,30.968663 392.294573,31.402265 C391.264769,31.8358669 390.153664,32.0526679 388.961259,32.0526679 C387.768853,32.0526679 386.657748,31.8358669 385.627944,31.402265 C384.598139,30.968663 383.693673,30.3182601 382.914544,29.4510563 C382.135416,28.5838524 381.52905,27.5032351 381.095448,26.2092043 C380.661847,24.9151735 380.445046,23.4145044 380.445046,21.7071967 Z M384.042587,19.6137124 L384.042587,21.7071967 C384.042587,22.9131521 384.164537,23.9700568 384.408438,24.8779109 C384.652339,25.7857649 384.997866,26.5445683 385.445018,27.154321 C385.89217,27.7640737 386.413847,28.2213883 387.01005,28.5262646 C387.606252,28.831141 388.256655,28.9835792 388.961259,28.9835792 C389.774262,28.9835792 390.489028,28.831141 391.105556,28.5262646 C391.722083,28.2213883 392.233598,27.7640737 392.6401,27.154321 C393.046602,26.5445683 393.351478,25.7857649 393.554729,24.8779109 C393.75798,23.9700568 393.859605,22.9131521 393.859605,21.7071967 L393.859605,19.6137124 C393.859605,18.407757 393.737655,17.3542398 393.493754,16.4531608 C393.249853,15.5520818 392.904326,14.7932784 392.457174,14.1767507 C392.010022,13.5602229 391.484957,13.0995209 390.88198,12.7946445 C390.279002,12.4897682 389.625211,12.33733 388.920608,12.33733 C388.229555,12.33733 387.585927,12.4897682 386.989725,12.7946445 C386.393522,13.0995209 385.875232,13.5602229 385.434855,14.1767507 C384.994478,14.7932784 384.652339,15.5520818 384.408438,16.4531608 C384.164537,17.3542398 384.042587,18.407757 384.042587,19.6137124 Z" id="Shape"></path>
                        <path d="M413.209092,26.5648934 L413.209092,9.65441803 L416.806633,9.65441803 L416.806633,31.646166 L413.392017,31.646166 L413.209092,26.5648934 Z M413.87982,21.9307727 L415.302576,21.8901226 C415.302576,23.3535291 415.177238,24.7051476 414.926562,25.9449781 C414.675886,27.1848087 414.269384,28.2586509 413.707056,29.166505 C413.144729,30.074359 412.402863,30.7823497 411.481459,31.290477 C410.560055,31.7986042 409.428625,32.0526679 408.087169,32.0526679 C407.179315,32.0526679 406.356149,31.8968422 405.61767,31.5851908 C404.879192,31.2735394 404.242339,30.7925122 403.707112,30.1421093 C403.171884,29.4917064 402.758608,28.6448277 402.467281,27.601473 C402.175955,26.5581184 402.030292,25.3047378 402.030292,23.8413313 L402.030292,9.65441803 L405.607508,9.65441803 L405.607508,23.8819814 C405.607508,24.8711358 405.695583,25.687527 405.871734,26.3311549 C406.047885,26.9747827 406.285011,27.48291 406.583112,27.8555366 C406.881213,28.2281633 407.21319,28.489002 407.579042,28.6380526 C407.944893,28.7871033 408.31752,28.8616286 408.696921,28.8616286 C409.970627,28.8616286 410.986882,28.5533648 411.745685,27.936837 C412.504488,27.3203093 413.049878,26.4869805 413.381855,25.4368509 C413.713831,24.3867212 413.87982,23.2180285 413.87982,21.9307727 Z" id="Shape"></path>
                        <path d="M425.810648,13.1096834 L425.810648,31.646166 L422.213107,31.646166 L422.213107,9.65441803 L425.688697,9.65441803 L425.810648,13.1096834 Z M431.278097,9.53246748 L431.298422,13.0283831 C431.000321,12.9606328 430.732707,12.9165951 430.495581,12.89627 C430.258455,12.8759449 429.984066,12.8657823 429.672415,12.8657823 C428.994912,12.8657823 428.402097,13.0012829 427.89397,13.2722842 C427.385842,13.5432854 426.948853,13.9226871 426.583001,14.4104892 C426.21715,14.8982914 425.925823,15.4775565 425.709022,16.1482845 C425.492221,16.8190125 425.343171,17.5541032 425.26187,18.3535568 L424.326916,18.9633095 C424.326916,17.6354036 424.431929,16.388798 424.641955,15.2234928 C424.851981,14.0581877 425.18057,13.0249956 425.627722,12.1239165 C426.074874,11.2228375 426.647364,10.5182344 427.345192,10.0101071 C428.04302,9.50197985 428.879736,9.24791622 429.855341,9.24791622 C430.072142,9.24791622 430.339755,9.27840385 430.658182,9.33937912 C430.976608,9.4003544 431.183247,9.46471718 431.278097,9.53246748 Z" id="Shape"></path>
                        <path d="M455.119428,26.0161159 C455.119428,25.4605635 454.983928,24.9727613 454.712927,24.5527094 C454.441925,24.1326576 453.998161,23.7261557 453.381633,23.333204 C452.765105,22.9402522 451.935164,22.5202004 450.89181,22.0730484 C449.875555,21.6529965 448.964313,21.2363321 448.158085,20.8230553 C447.351856,20.4097785 446.670966,19.959239 446.115413,19.4714368 C445.559861,18.9836346 445.136421,18.4179196 444.845095,17.7742917 C444.553769,17.1306638 444.408106,16.368473 444.408106,15.487719 C444.408106,14.6069651 444.574094,13.790574 444.90607,13.0385456 C445.238047,12.2865173 445.708911,11.6259518 446.318664,11.0568493 C446.928417,10.4877467 447.66012,10.0439823 448.513774,9.72555585 C449.367428,9.40712943 450.322707,9.24791622 451.379612,9.24791622 C452.883668,9.24791622 454.164149,9.53924251 455.221054,10.1218951 C456.277959,10.7045477 457.087575,11.5006138 457.649902,12.5100933 C458.21223,13.5195728 458.493393,14.6543903 458.493393,15.9145459 L454.916177,15.9145459 C454.916177,15.3047932 454.780677,14.7289156 454.509676,14.1869132 C454.238674,13.6449108 453.838948,13.2011463 453.310495,12.8556198 C452.782043,12.5100933 452.138415,12.33733 451.379612,12.33733 C450.580158,12.33733 449.929755,12.4796056 449.428403,12.7641569 C448.927051,13.0487082 448.564587,13.4179473 448.341011,13.8718743 C448.117435,14.3258013 448.005647,14.8237661 448.005647,15.3657685 C448.005647,15.7722703 448.063234,16.1211843 448.17841,16.4125106 C448.293585,16.7038369 448.493449,16.9748382 448.778,17.2255143 C449.062551,17.4761904 449.452116,17.7336415 449.946693,17.9978677 C450.44127,18.2620939 451.074735,18.5635827 451.847089,18.9023342 C453.337595,19.4849868 454.590976,20.0744145 455.607231,20.6706171 C456.623485,21.2668198 457.395839,21.9646479 457.924291,22.7641015 C458.452743,23.563555 458.716969,24.5527094 458.716969,25.7315647 C458.716969,26.693619 458.544206,27.5642103 458.19868,28.3433388 C457.853153,29.1224673 457.361963,29.7898078 456.725111,30.3453602 C456.088258,30.9009127 455.326067,31.3243521 454.438538,31.6156784 C453.551009,31.9070047 452.558467,32.0526679 451.460912,32.0526679 C449.807805,32.0526679 448.408761,31.7240789 447.263781,31.066901 C446.118801,30.409723 445.251597,29.5492942 444.662169,28.4856145 C444.072742,27.4219347 443.778028,26.2803421 443.778028,25.0608367 L447.375569,25.0608367 C447.416219,26.0906413 447.649958,26.8900948 448.076784,27.4591974 C448.503611,28.0282999 449.021901,28.4212517 449.631654,28.6380526 C450.241407,28.8548536 450.851159,28.9632541 451.460912,28.9632541 C452.260366,28.9632541 452.931094,28.8446911 453.473096,28.607565 C454.015098,28.3704389 454.424988,28.0282999 454.702764,27.5811479 C454.98054,27.1339959 455.119428,26.6123186 455.119428,26.0161159 Z" id="Path"></path>
                        <path d="M467.029931,0.426826902 L467.029931,31.646166 L463.43239,31.646166 L463.43239,0.426826902 L467.029931,0.426826902 Z M466.155953,19.8169633 L464.692546,19.755988 C464.678996,18.2519313 464.851759,16.8596626 465.210836,15.5791819 C465.569912,14.2987012 466.084815,13.1842088 466.755543,12.2357045 C467.426271,11.2872003 468.229112,10.5521095 469.164066,10.0304322 C470.09902,9.50875488 471.1356,9.24791622 472.273805,9.24791622 C473.168109,9.24791622 473.981112,9.39357937 474.712816,9.68490566 C475.444519,9.97623196 476.067822,10.4403215 476.582724,11.0771744 C477.097626,11.7140272 477.493966,12.5371934 477.771742,13.5466729 C478.049518,14.5561524 478.188406,15.7858204 478.188406,17.2356768 L478.188406,31.646166 L474.590865,31.646166 L474.590865,17.1950266 C474.590865,16.0432715 474.465527,15.1184799 474.214851,14.4206518 C473.964175,13.7228237 473.584773,13.2146964 473.076646,12.89627 C472.568519,12.5778436 471.928278,12.4186303 471.155925,12.4186303 C470.451322,12.4186303 469.794144,12.6151062 469.184391,13.008058 C468.574638,13.4010097 468.042798,13.9430121 467.588871,14.6340652 C467.134944,15.3251183 466.782643,16.1144093 466.531967,17.0019383 C466.281291,17.8894672 466.155953,18.8278089 466.155953,19.8169633 Z" id="Shape"></path>
                        <path d="M491.399715,32.0526679 C490.085359,32.0526679 488.899729,31.856192 487.842824,31.4632402 C486.78592,31.0702885 485.884841,30.4706983 485.139587,29.6644697 C484.394334,28.8582411 483.825231,27.8385991 483.43228,26.6055436 C483.039328,25.3724881 482.842852,23.9158566 482.842852,22.2356491 L482.842852,19.755988 C482.842852,17.8183294 483.069815,16.1787721 483.523742,14.8373161 C483.97767,13.4958601 484.59081,12.4152428 485.363163,11.5954642 C486.135517,10.7756855 487.009496,10.1794829 487.9851,9.80685621 C488.960704,9.43422955 489.963409,9.24791622 490.993213,9.24791622 C492.375319,9.24791622 493.554175,9.47149221 494.529779,9.91864421 C495.505383,10.3657962 496.298062,11.0297492 496.907815,11.9105031 C497.517567,12.791257 497.968107,13.8752618 498.259433,15.1625176 C498.550759,16.4497733 498.696423,17.9335049 498.696423,19.6137124 L498.696423,21.7071967 L484.956661,21.7071967 L484.956661,18.6381081 L495.098882,18.6381081 L495.098882,18.1299808 C495.044681,16.9917757 494.892243,15.9890713 494.641567,15.1218674 C494.390891,14.2546635 493.981002,13.573773 493.411899,13.0791958 C492.842797,12.5846186 492.036568,12.33733 490.993213,12.33733 C490.32926,12.33733 489.71612,12.449118 489.153793,12.672694 C488.591465,12.89627 488.110438,13.2824467 487.710711,13.8312241 C487.310984,14.3800016 486.999333,15.1354175 486.775757,16.0974717 C486.552181,17.059526 486.440393,18.2790315 486.440393,19.755988 L486.440393,22.2356491 C486.440393,23.4145044 486.552181,24.4273714 486.775757,25.2742501 C486.999333,26.1211289 487.331309,26.818957 487.771686,27.3677345 C488.212063,27.9165119 488.754066,28.3230137 489.397694,28.5872399 C490.041322,28.8514661 490.776412,28.9835792 491.602966,28.9835792 C492.808921,28.9835792 493.804851,28.7498406 494.590754,28.2823635 C495.376658,27.8148865 496.060936,27.2152963 496.643588,26.483593 L498.533822,28.7396781 C498.14087,29.2952306 497.629355,29.8270704 496.999278,30.3351977 C496.3692,30.843325 495.596846,31.2566018 494.682217,31.5750282 C493.767588,31.8934546 492.673421,32.0526679 491.399715,32.0526679 Z" id="Path"></path>
                        <polygon id="Path" points="506.907759 0.426826902 506.907759 31.646166 503.330543 31.646166 503.330543 0.426826902"></polygon>
                        <polygon id="Path" points="516.460552 0.426826902 516.460552 31.646166 512.883336 31.646166 512.883336 0.426826902"></polygon>
                        <polygon id="Path" points="535.566137 0.426826902 535.566137 31.646166 531.988921 31.646166 531.988921 0.426826902"></polygon>
                        <path d="M545.118929,9.65441803 L545.118929,31.646166 L541.541714,31.646166 L541.541714,9.65441803 L545.118929,9.65441803 Z M541.338463,3.82111703 C541.338463,3.21136431 541.507838,2.69646202 541.84659,2.27641015 C542.185341,1.85635827 542.693469,1.64633234 543.370972,1.64633234 C544.048475,1.64633234 544.55999,1.85635827 544.905516,2.27641015 C545.251043,2.69646202 545.423806,3.21136431 545.423806,3.82111703 C545.423806,4.40376963 545.251043,4.90173435 544.905516,5.31501119 C544.55999,5.72828803 544.048475,5.93492645 543.370972,5.93492645 C542.693469,5.93492645 542.185341,5.72828803 541.84659,5.31501119 C541.507838,4.90173435 541.338463,4.40376963 541.338463,3.82111703 Z" id="Shape"></path>
                        <path d="M555.992853,31.646166 L552.395312,31.646166 L552.395312,7.3373577 C552.395312,5.75200064 552.649376,4.41393217 553.157503,3.32315231 C553.66563,2.23237245 554.390558,1.40581877 555.332288,0.843491259 C556.274017,0.281163753 557.395284,0 558.69609,0 C559.061942,0 559.431181,0.0271001208 559.803807,0.0813003623 C560.176434,0.135500604 560.532123,0.216800966 560.870875,0.325201449 L560.708274,3.39429013 C560.491473,3.32653983 560.230634,3.27911461 559.925758,3.25201449 C559.620882,3.22491437 559.332943,3.21136431 559.061942,3.21136431 C558.411539,3.21136431 557.855986,3.37057752 557.395284,3.68900394 C556.934582,4.00743036 556.585668,4.47151993 556.348542,5.08127265 C556.111416,5.69102536 555.992853,6.44305372 555.992853,7.3373577 L555.992853,31.646166 Z M559.73267,9.65441803 L559.73267,12.5405809 L549.529474,12.5405809 L549.529474,9.65441803 L559.73267,9.65441803 Z" id="Shape"></path>
                        <path d="M571.358621,32.0526679 C570.044266,32.0526679 568.858635,31.856192 567.801731,31.4632402 C566.744826,31.0702885 565.843747,30.4706983 565.098494,29.6644697 C564.35324,28.8582411 563.784138,27.8385991 563.391186,26.6055436 C562.998234,25.3724881 562.801758,23.9158566 562.801758,22.2356491 L562.801758,19.755988 C562.801758,17.8183294 563.028722,16.1787721 563.482649,14.8373161 C563.936576,13.4958601 564.549716,12.4152428 565.32207,11.5954642 C566.094423,10.7756855 566.968402,10.1794829 567.944006,9.80685621 C568.919611,9.43422955 569.922315,9.24791622 570.95212,9.24791622 C572.334226,9.24791622 573.513081,9.47149221 574.488685,9.91864421 C575.46429,10.3657962 576.256968,11.0297492 576.866721,11.9105031 C577.476474,12.791257 577.927013,13.8752618 578.21834,15.1625176 C578.509666,16.4497733 578.655329,17.9335049 578.655329,19.6137124 L578.655329,21.7071967 L564.915568,21.7071967 L564.915568,18.6381081 L575.057788,18.6381081 L575.057788,18.1299808 C575.003588,16.9917757 574.85115,15.9890713 574.600473,15.1218674 C574.349797,14.2546635 573.939908,13.573773 573.370805,13.0791958 C572.801703,12.5846186 571.995474,12.33733 570.95212,12.33733 C570.288167,12.33733 569.675026,12.449118 569.112699,12.672694 C568.550371,12.89627 568.069344,13.2824467 567.669618,13.8312241 C567.269891,14.3800016 566.958239,15.1354175 566.734663,16.0974717 C566.511087,17.059526 566.399299,18.2790315 566.399299,19.755988 L566.399299,22.2356491 C566.399299,23.4145044 566.511087,24.4273714 566.734663,25.2742501 C566.958239,26.1211289 567.290216,26.818957 567.730593,27.3677345 C568.17097,27.9165119 568.712972,28.3230137 569.3566,28.5872399 C570.000228,28.8514661 570.735319,28.9835792 571.561872,28.9835792 C572.767828,28.9835792 573.763757,28.7498406 574.549661,28.2823635 C575.335564,27.8148865 576.019842,27.2152963 576.602495,26.483593 L578.492728,28.7396781 C578.099776,29.2952306 577.588262,29.8270704 576.958184,30.3351977 C576.328106,30.843325 575.555753,31.2566018 574.641124,31.5750282 C573.726494,31.8934546 572.632327,32.0526679 571.358621,32.0526679 Z" id="Path"></path>
                        <path d="M583.228474,29.6543072 C583.228474,29.0174543 583.428338,28.4788394 583.828065,28.0384625 C584.227791,27.5980855 584.807056,27.377897 585.56586,27.377897 C586.324663,27.377897 586.903928,27.5980855 587.303655,28.0384625 C587.703382,28.4788394 587.903245,29.0174543 587.903245,29.6543072 C587.903245,30.2776099 587.703382,30.8060623 587.303655,31.2396642 C586.903928,31.6732662 586.324663,31.8900671 585.56586,31.8900671 C584.807056,31.8900671 584.227791,31.6732662 583.828065,31.2396642 C583.428338,30.8060623 583.228474,30.2776099 583.228474,29.6543072 Z" id="Path"></path>
                    </g>
                    <g id="dotfiles" transform="translate(5.652962, 0.000000)">
                        <path d="M30.2289529,109.090304 L10.4951377,109.090304 L10.6429565,89.1347609 L30.2289529,89.1347609 C33.9244239,89.1347609 36.9423919,88.3217573 39.2828569,86.69575 C41.6233219,85.0697428 43.3601932,82.3720489 44.493471,78.6026685 C45.6267488,74.8332881 46.1933877,69.7951292 46.1933877,63.488192 L46.1933877,47.0063913 C46.1933877,42.2761884 45.8854318,38.2850797 45.2695199,35.0330652 C44.6536081,31.7810507 43.7051039,29.1695845 42.4240073,27.1986667 C41.1429106,25.2277488 39.442994,23.7865151 37.3242573,22.8749656 C35.2055205,21.9634161 32.6926003,21.5076413 29.7854964,21.5076413 L10.1255906,21.5076413 L10.1255906,1.47818841 L29.7854964,1.47818841 C36.0924336,1.47818841 41.8204137,2.50060205 46.9694366,4.54542935 C52.1184596,6.59025664 56.565343,9.5959064 60.310087,13.5623786 C64.0548309,17.5288509 66.9372983,22.3206449 68.9574891,27.9377609 C70.97768,33.5548768 71.9877754,39.9603599 71.9877754,47.1542102 L71.9877754,63.488192 C71.9877754,70.6327693 70.97768,77.0259342 68.9574891,82.6676866 C66.9372983,88.309439 64.0671492,93.1012331 60.3470417,97.0430689 C56.6269342,100.984905 52.2170054,103.978236 47.1172554,106.023063 C42.0175054,108.067891 36.3880713,109.090304 30.2289529,109.090304 Z M25.2770217,1.47818841 L25.2770217,109.090304 L0,109.090304 L0,1.47818841 L25.2770217,1.47818841 Z" id="Shape"></path>
                        <path d="M163.192,47.2281196 L163.192,63.488192 C163.192,71.2240447 162.231178,78.0237114 160.309533,83.8871921 C158.387888,89.7506727 155.653239,94.6656492 152.105587,98.6321214 C148.557935,102.598594 144.357416,105.579607 139.504031,107.575161 C134.650646,109.570716 129.267576,110.568493 123.354822,110.568493 C117.392796,110.568493 111.972772,109.570716 107.09475,107.575161 C102.216728,105.579607 98.0038913,102.598594 94.4562392,98.6321214 C90.908587,94.6656492 88.1739384,89.7506727 86.2522935,83.8871921 C84.3306486,78.0237114 83.3698261,71.2240447 83.3698261,63.488192 L83.3698261,47.2281196 C83.3698261,39.4922669 84.3306486,32.6679638 86.2522935,26.7552102 C88.1739384,20.8424565 90.8962687,15.9151618 94.4192844,11.9733261 C97.9423001,8.03149034 102.142819,5.05047705 107.020841,3.03028623 C111.898862,1.01009541 117.318887,0 123.280913,0 C129.193667,0 134.601373,1.01009541 139.504031,3.03028623 C144.406689,5.05047705 148.607208,8.03149034 152.105587,11.9733261 C155.603966,15.9151618 158.326297,20.8424565 160.272578,26.7552102 C162.218859,32.6679638 163.192,39.4922669 163.192,47.2281196 Z M137.545431,63.488192 L137.545431,47.0803007 C137.545431,42.2515519 137.249794,38.1372609 136.658518,34.7374275 C136.067243,31.3375942 135.18033,28.5783092 133.997779,26.4595725 C132.815228,24.3408358 131.33704,22.7887379 129.563214,21.803279 C127.789388,20.8178201 125.695287,20.3250906 123.280913,20.3250906 C120.767993,20.3250906 118.62462,20.8178201 116.850794,21.803279 C115.076967,22.7887379 113.611097,24.3408358 112.453183,26.4595725 C111.295269,28.5783092 110.44531,31.3375942 109.903308,34.7374275 C109.361306,38.1372609 109.090304,42.2515519 109.090304,47.0803007 L109.090304,63.488192 C109.090304,68.2676679 109.361306,72.3450042 109.903308,75.7202011 C110.44531,79.095398 111.295269,81.8670012 112.453183,84.0350109 C113.611097,86.2030206 115.101604,87.7920731 116.924703,88.8021685 C118.747802,89.8122639 120.891175,90.3173116 123.354822,90.3173116 C125.719924,90.3173116 127.801706,89.8122639 129.600169,88.8021685 C131.398631,87.7920731 132.876819,86.2030206 134.034734,84.0350109 C135.192648,81.8670012 136.067243,79.095398 136.658518,75.7202011 C137.249794,72.3450042 137.545431,68.2676679 137.545431,63.488192 Z" id="Shape"></path>
                        <path d="M216.998058,1.47818841 L216.998058,109.090304 L191.647127,109.090304 L191.647127,1.47818841 L216.998058,1.47818841 Z M243.088083,1.47818841 L243.088083,21.5076413 L166.296196,21.5076413 L166.296196,1.47818841 L243.088083,1.47818841 Z" id="Shape"></path>
                        <path d="M279.303699,1.47818841 L279.303699,109.090304 L254.026678,109.090304 L254.026678,1.47818841 L279.303699,1.47818841 Z M312.34121,46.2672971 L312.34121,66.2228406 L272.430123,66.2228406 L272.430123,46.2672971 L312.34121,46.2672971 Z M315.371496,1.47818841 L315.371496,21.5076413 L272.430123,21.5076413 L272.430123,1.47818841 L315.371496,1.47818841 Z" id="Shape"></path>
                        <polygon id="Path" points="352.400116 1.47818841 352.400116 109.090304 327.197004 109.090304 327.197004 1.47818841"></polygon>
                        <path d="M430.005007,89.1347609 L430.005007,109.090304 L384.772442,109.090304 L384.772442,89.1347609 L430.005007,89.1347609 Z M393.641573,1.47818841 L393.641573,109.090304 L368.364551,109.090304 L368.364551,1.47818841 L393.641573,1.47818841 Z" id="Shape"></path>
                        <path d="M504.431794,89.1347609 L504.431794,109.090304 L457.351493,109.090304 L457.351493,89.1347609 L504.431794,89.1347609 Z M466.146714,1.47818841 L466.146714,109.090304 L440.869692,109.090304 L440.869692,1.47818841 L466.146714,1.47818841 Z M498.297312,44.1978333 L498.297312,63.488192 L457.351493,63.488192 L457.351493,44.1978333 L498.297312,44.1978333 Z M504.653522,1.47818841 L504.653522,21.5076413 L457.351493,21.5076413 L457.351493,1.47818841 L504.653522,1.47818841 Z" id="Shape"></path>
                        <path d="M559.937768,80.4873587 C559.937768,78.8120785 559.777631,77.2969354 559.457357,75.9419294 C559.137083,74.5869233 558.521171,73.3181449 557.609622,72.1355942 C556.698072,70.9530435 555.330748,69.7581745 553.507649,68.5509873 C551.68455,67.3438001 549.245539,66.0750218 546.190616,64.7446522 C542.347326,63.1679179 538.577946,61.3817736 534.882475,59.3862192 C531.187004,57.3906649 527.873398,55.0501999 524.941658,52.3648243 C522.009917,49.6794487 519.657134,46.5259801 517.883308,42.9044185 C516.109482,39.2828569 515.222569,35.0577017 515.222569,30.2289529 C515.222569,25.5972959 516.1218,21.4214137 517.920263,17.7013062 C519.718725,13.9811987 522.207009,10.8030936 525.385114,8.16699094 C528.563219,5.53088829 532.320282,3.51069746 536.656301,2.10641848 C540.99232,0.702139493 545.722523,0 550.84691,0 C557.646576,0 563.645558,1.36732428 568.843853,4.10197283 C574.042149,6.83662138 578.107167,10.7045477 581.038908,15.7057518 C583.970648,20.7069559 585.436518,26.6073913 585.436518,33.407058 L560.233406,33.407058 C560.233406,30.6970459 559.888495,28.307308 559.198674,26.2378442 C558.508853,24.1683804 557.437166,22.5423732 555.983614,21.3598225 C554.530062,20.1772717 552.620736,19.5859964 550.255634,19.5859964 C548.136897,19.5859964 546.350753,20.0787259 544.897201,21.0641848 C543.443649,22.0496437 542.347326,23.3676951 541.608232,25.0183388 C540.869138,26.6689825 540.499591,28.4797633 540.499591,30.4506812 C540.499591,32.0766884 540.869138,33.5425586 541.608232,34.8482917 C542.347326,36.1540248 543.36974,37.3735302 544.675473,38.506808 C545.981206,39.6400858 547.508667,40.7240906 549.257857,41.7588225 C551.007047,42.7935544 552.891737,43.8036498 554.911928,44.7891087 C559.789949,46.6122077 564.113651,48.6447168 567.883031,50.8866359 C571.652411,53.128555 574.818198,55.6661117 577.380391,58.4993062 C579.942585,61.3325006 581.876548,64.5475604 583.182281,68.1444855 C584.488014,71.7414106 585.140881,75.8064288 585.140881,80.3395399 C585.140881,85.1682887 584.364832,89.455035 582.812734,93.199779 C581.260636,96.944523 579.006399,100.11031 576.050022,102.69714 C573.093645,105.283969 569.533675,107.242569 565.370111,108.572938 C561.206547,109.903308 556.513298,110.568493 551.290366,110.568493 C546.51089,110.568493 541.817642,109.866353 537.210622,108.462074 C532.603601,107.057795 528.440037,104.889786 524.719929,101.958045 C520.999822,99.026305 518.031127,95.2569245 515.813844,90.649904 C513.596562,86.0428835 512.48792,80.5612681 512.48792,74.205058 L537.912761,74.205058 C537.912761,77.3585266 538.159126,80.0192657 538.651855,82.1872754 C539.144585,84.355285 539.920634,86.0921564 540.980002,87.3978895 C542.03937,88.7036226 543.406695,89.6398086 545.081975,90.2064475 C546.757255,90.7730864 548.826719,91.0564058 551.290366,91.0564058 C553.556922,91.0564058 555.318429,90.5759946 556.57489,89.6151721 C557.83135,88.6543497 558.705945,87.373253 559.198674,85.7718823 C559.691404,84.1705115 559.937768,82.4090036 559.937768,80.4873587 Z" id="Path"></path>
                    </g>
                </g>
                <g>
                    <path d="M48.4419391,0 C21.7333164,0 0,21.7326073 0,48.4326279 L0,145.335082 C0,172.025106 21.7326189,193.749111 48.4419391,193.749111 L145.335071,193.749111 C172.025094,193.749111 193.749099,172.025571 193.749099,145.325783 L193.749099,48.4326279 C193.749099,21.7333048 172.025559,0 145.325771,0 L48.4419391,0 Z" id="terminal" fill="#2F3A3E"></path>
                    <path d="M86.9495052,104.112016 L54.3286238,133.10138 C52.485036,134.736074 50.1781856,135.553468 47.898839,135.553468 C45.2289067,135.553468 42.5678091,134.454573 40.6516142,132.311374 C37.1007716,128.306243 37.4548562,122.185207 41.4598941,118.634364 L65.9249739,96.8745554 L41.4598941,75.1238137 C37.4547632,71.5729712 37.1006786,65.4426355 40.6516142,61.4468042 C44.2115239,57.4507404 50.3237253,57.0785215 54.3286238,60.6476147 L86.9402055,89.6276793 C89.0017541,91.4712671 90.1823512,94.1050005 90.1823512,96.8749041 C90.1913665,99.6448078 89.0107515,102.269404 86.9492727,104.113062 L86.9495052,104.112016 Z" id="Path" fill="#FF00FF"></path>
                    <circle id="dot" fill="#00FF00" cx="120.755458" cy="125.201848" r="9.69029366"></circle>
                </g>
            </g>
        </g>
    </g>
</svg>