<svg height="333" viewBox="0 0 1372 333" width="1372" xmlns="http://www.w3.org/2000/svg"><g fill="none" fill-rule="evenodd"><g fill="#2f3a3e" fill-rule="nonzero"><g transform="translate(358.281541 245.29294)"><path d="m24.713989 41.4456036c0-1.185156-.1394301-2.2366915-.4182903-3.1546065-.2788603-.917915-.7668657-1.7486861-1.4640163-2.4923134s-1.6731615-1.4523971-2.9280326-2.1263094c-1.2548711-.6739122-2.8466983-1.3594437-4.7754816-2.0565943-2.0914518-.7436273-3.9853777-1.5743984-5.68177747-2.4923134-1.69639981-.917915-3.14298732-1.9694505-4.33976253-3.1546065s-2.12049977-2.5445997-2.77117367-4.078331c-.6506739-1.5337314-.97601085-3.2882271-.97601085-5.2634871 0-1.9752601.34276572-3.7994708 1.02829715-5.4726323.68553143-1.67316144 1.66154228-3.13136813 2.92803255-4.37462005 1.26649027-1.24325191 2.79441202-2.21345317 4.58376524-2.91060378 1.78935318-.69715061 3.78785168-1.04572591 5.99549518-1.04572591 3.2998462 0 6.0826391.72619855 8.3483786 2.17859565 2.2657394 1.45239709 3.979568 3.34632291 5.1414857 5.68177749 1.1619177 2.3354545 1.7428765 4.8277679 1.7428765 7.4769402h-6.4137856c0-1.905545-.3079082-3.5961352-.9237245-5.0717707-.6158164-1.4756354-1.5685889-2.6375531-2.8583175-3.48575299-1.2897286-.8481999-2.9686997-1.27229986-5.0369132-1.27229986-1.8590682 0-3.38699.36019448-4.5837652 1.08058345-1.1967752.720389-2.07983264 1.6963998-2.64917231 2.9280325-.56933966 1.2316328-.85400949 2.6375532-.85400949 4.2177612 0 1.0689643.18590683 2.0391655.55772048 2.9106038.37181366.8714383.94696291 1.678971 1.72544772 2.4225984.7784849.7436273 1.7544957 1.4291587 2.9280326 2.0565943 1.1735368.6274355 2.5620285 1.2316327 4.1654749 1.8125915 2.4865038.8133424 4.6128131 1.7196382 6.378928 2.7188874s3.2068928 2.1204998 4.3223338 3.3637517 1.9345929 2.6491723 2.4574559 4.2177612c.5228629 1.5685888.7842944 3.3405133.7842944 5.3157733 0 2.0682135-.3427657 3.938901-1.0282971 5.6120624-.6855315 1.6731615-1.6789711 3.1023202-2.9803189 4.2874763-1.3013478 1.185156-2.8699367 2.0972614-4.7057666 2.7363161s-3.9040434.9585821-6.2046404.9585821c-1.9984984 0-3.9563297-.325337-5.8734939-.9760109-1.91716412-.6506739-3.65423105-1.6266847-5.21120074-2.9280325s-2.8002216-2.9106038-3.72975575-4.827768c-.92953414-1.9171642-1.39430121-4.1422365-1.39430121-6.675217h6.41378559c0 1.7428765.25562188 3.2359407.76686566 4.4791926s1.22001357 2.2715491 2.12630935 3.0848914c.9062958.8133424 1.9462121 1.41173 3.119749 1.7951629 1.1735368.3834328 2.4342175.5751492 3.782042.5751492 1.8590683 0 3.4218476-.3253369 4.6883378-.9760108 1.2664903-.6506739 2.2192628-1.5802081 2.8583175-2.7886025.6390548-1.2083944.9585821-2.6375531.9585821-4.2874762z"/><path d="m45.3147895 16.5573269v37.7158479h-6.1349254v-37.7158479zm-6.4835007-10.00411119c0-1.04572591.2904794-1.92878335.8714383-2.64917231.5809588-.72038896 1.4523971-1.08058344 2.6143147-1.08058344 1.1619177 0 2.0391656.36019448 2.6317436 1.08058344s.888867 1.6034464.888867 2.64917231c0 .9992492-.296289 1.85325869-.888867 2.56202848-.592578.70876978-1.4698259 1.06315471-2.6317436 1.06315471-1.1619176 0-2.0333559-.35438493-2.6143147-1.06315471-.5809589-.70876979-.8714383-1.56277928-.8714383-2.56202848z"/><path d="m61.2446808 24.0516959v30.2214789h-6.1349253v-37.7158479h5.78635zm-1.2548711 9.9343962-2.8583175-.1045726c-.0232383-2.5794572.2323836-4.9671981.7668657-7.1632225s1.3420149-4.107379 2.4225984-5.7340637c1.0805834-1.6266848 2.4400271-2.8873655 4.078331-3.7820421 1.638304-.8946766 3.5496585-1.3420149 5.7340638-1.3420149 1.4407779 0 2.7827928.2498123 4.0260447.7494369s2.329645 1.283919 3.2591791 2.3528833c.9295342 1.0689643 1.6557327 2.4400271 2.1785957 4.1131886.5228629 1.6731615.7842944 3.6948982.7842944 6.0652103v25.1322794h-6.1697829v-24.8185617c0-1.97526-.2614315-3.555468-.7842944-4.7406241-.522863-1.185156-1.2606807-2.0507847-2.2134532-2.596886s-2.0914518-.819152-3.416038-.819152c-1.5104929 0-2.7711736.3369562-3.782042 1.0108684-1.0108684.6739123-1.8125916 1.6034464-2.4051696 2.7886025-.592578 1.185156-1.0108684 2.5387901-1.2548711 4.0609022-.2440027 1.5221122-.3660041 3.1313682-.3660041 4.827768zm20.3219402-3.5554681-4.1131885 1.3245862c-.0232384-2.0682135.2323835-4.0550927.7668656-5.9606377.5344822-1.905545 1.3303958-3.6019448 2.3877409-5.0891995 1.057345-1.4872546 2.3761216-2.666601 3.9563296-3.5380393 1.5802081-.8714383 3.416038-1.3071574 5.5074898-1.3071574 1.7196382 0 3.2417504.2672411 4.5663365.8017232 1.3245862.5344821 2.4458367 1.3536341 3.3637517 2.4574559s1.609256 2.5155518 2.0740231 4.2351899c.464767 1.7196382.6971506 3.7646133.6971506 6.1349254v24.7837041h-6.1697829v-24.8534192c0-2.1146902-.2614315-3.7588037-.7842944-4.9323405-.522863-1.1735369-1.2606807-1.9984984-2.2134532-2.4748847-.9527725-.4763862-2.0914518-.7145794-3.416038-.7145794-1.0689643 0-2.0159272.2440028-2.8408887.7320082-.8249616.4880054-1.5163026 1.1561081-2.0740231 2.004308s-.9818204 1.8184011-1.2722998 2.9106038c-.2904795 1.0922026-.4357192 2.2541203-.4357192 3.485753z"/><path d="m114.994993 23.8076932v44.9662142h-6.169783v-52.2165805h5.612062zm21.088806 9.8995387v3.5206105c0 2.9745093-.273051 5.5713953-.819152 7.7906581-.546102 2.2192627-1.347825 4.0667118-2.40517 5.5423473-1.057345 1.4756354-2.352883 2.5794572-3.886615 3.3114654-1.533731.7320081-3.288227 1.0980122-5.263487 1.0980122s-3.689088-.3776233-5.141486-1.1328698c-1.452397-.7552465-2.67241-1.8532587-3.66004-3.2940366s-1.766115-3.1778448-2.335455-5.2112008c-.569339-2.0333559-.958582-4.3165242-1.167727-6.8495047v-5.3680597c.209145-2.6724106.592578-5.0717706 1.150299-7.19808.55772-2.1263093 1.330395-3.9389009 2.318025-5.4377747s2.207644-2.6433627 3.660041-3.4334668c1.452397-.790104 3.154606-1.185156 5.106628-1.185156 2.021737 0 3.805281.3485753 5.350631 1.0457259 1.545351.6971506 2.846698 1.7719245 3.904043 3.2243216 1.057346 1.4523971 1.853259 3.2998462 2.387741 5.5423473s.801724 4.9207214.801724 8.0346608zm-6.169783 3.5206105v-3.5206105c0-2.0914519-.156859-3.9156626-.470577-5.4726323s-.807533-2.8466983-1.481445-3.8691859c-.673912-1.0224875-1.522112-1.7893532-2.5446-2.300597-1.022487-.5112438-2.25412-.7668657-3.694898-.7668657-1.231633 0-2.318026.2556219-3.259179.7668657s-1.748686 1.2025848-2.422598 2.0740231c-.673913.8714382-1.231633 1.8590683-1.673162 2.96289-.441529 1.1038218-.766866 2.2483108-.976011 3.4334668v10.5618317c.395052 1.4872546.917915 2.8873654 1.568589 4.2003324s1.527922 2.3761216 2.631744 3.189464c1.103821.8133424 2.503932 1.2200136 4.200332 1.2200136 1.41754 0 2.637553-.2556219 3.660041-.7668657 1.022487-.5112438 1.864878-1.283919 2.527171-2.3180258.662293-1.0341067 1.150298-2.3354545 1.464016-3.9040434.313718-1.5685888.470577-3.3986092.470577-5.490061z"/><path d="m150.654246.73200814v53.54116666h-6.134925v-53.54116666z"/><path d="m169.163595 50.3691314 8.400665-33.8118045h6.553215l-12.444138 43.5370554c-.302099.9295342-.70296 1.934593-1.202585 3.0151764-.499624 1.0805834-1.13287 2.1088806-1.899735 3.0848914-.766866.9760109-1.684781 1.7719245-2.753745 2.3877409-1.068964.6158163-2.323835.9237245-3.764613.9237245-.441529 0-1.005059-.069715-1.690591-.2091452-.685531-.1394301-1.179346-.2556218-1.481445-.3485753v-5.2286295c.13943.0232383.360195.0522863.662293.0871438.302099.0348575.522863.0522863.662294.0522863 1.208394 0 2.236691-.1917164 3.084891-.5751492.8482-.3834329 1.574398-1.0224876 2.178596-1.9171642.604197-.8946766 1.115441-2.1204998 1.533731-3.6774695zm-5.437775-33.8118045 7.494369 29.2803255 1.603446 6.7972184-4.392048 2.3703121-11.43327-38.447856z"/><path d="m226.295087 46.9530934v-46.22108526h6.134925v53.54116666h-5.612062zm-21.088806-9.725251v-3.5206105c0-3.1139394.302099-5.7921597.906296-8.0346608s1.464016-4.0899502 2.579457-5.5423473 2.451647-2.527171 4.008616-3.2243216c1.55697-.6971506 3.276608-1.0457259 5.158915-1.0457259 1.952021 0 3.630992.395052 5.036913 1.185156 1.40592.7901041 2.585267 1.934593 3.538039 3.4334668.952773 1.4988738 1.70221 3.3114654 2.248311 5.4377747.546101 2.1263094.912105 4.5256694 1.098012 7.19808v4.7057666c-.209145 2.6491723-.586768 5.0311036-1.13287 7.1457938-.546101 2.1146901-1.295538 3.9156625-2.24831 5.4029172-.952773 1.4872546-2.137929 2.6259339-3.555468 3.4160379-1.41754.7901041-3.102321 1.1851561-5.054342 1.1851561-1.859069 0-3.555468-.3660041-5.0892-1.0980122-1.533731-.7320082-2.864127-1.83583-3.991187-3.3114654-1.12706-1.4756355-1.992689-3.3230846-2.596886-5.5423473-.604197-2.2192628-.906296-4.8161488-.906296-7.7906581zm6.169783-3.5206105v3.5206105c0 2.0914518.151049 3.909853.453148 5.4552035s.778485 2.82346 1.429159 3.8343284c.650674 1.0108683 1.481445 1.7603052 2.492313 2.2483107 1.010869.4880054 2.225072.7320081 3.642612.7320081 1.719638 0 3.125559-.4182904 4.217761-1.2548711 1.092203-.8365807 1.969451-1.9462121 2.631744-3.3288941.662293-1.3826821 1.190965-2.8757463 1.586017-4.4791927v-9.8995386c-.232383-1.185156-.569339-2.329645-1.010868-3.4334668-.441529-1.1038217-.99344-2.0914518-1.655733-2.96289-.662293-.8714383-1.464016-1.5627793-2.405169-2.0740231-.941154-.5112438-2.039166-.7668657-3.294037-.7668657-1.417539 0-2.643363.2556219-3.677469.7668657-1.034107.5112438-1.870688 1.2781095-2.509743 2.300597-.639054 1.0224876-1.115441 2.3122162-1.429158 3.8691859-.313718 1.5569697-.470577 3.3811804-.470577 5.4726323z"/><path d="m255.435982 54.9703254c-2.25412 0-4.287476-.3369562-6.100067-1.0108684-1.812592-.6739123-3.357942-1.7022094-4.636052-3.0848914-1.278109-1.3826821-2.25412-3.1313682-2.928032-5.2460584-.673913-2.1146901-1.010869-4.6128132-1.010869-7.494369v-4.2526187c0-3.3230846.389243-6.1349253 1.167727-8.4355223.778485-2.300597 1.830021-4.1538557 3.154607-5.5597761s2.82346-2.428408 4.496621-3.0674627c1.673162-.6390547 3.3928-.9585821 5.158915-.9585821 2.370312 0 4.392049.3834328 6.06521 1.1502985 1.673162.7668657 3.032605 1.905545 4.078331 3.416038s1.818401 3.3695613 2.318026 5.5772048c.499625 2.2076436.749437 4.7522433.749437 7.6337992v3.5903256h-23.563691v-5.2634871h17.393908v-.8714382c-.092953-1.9520217-.354385-3.6716599-.784294-5.1589145-.42991-1.4872546-1.13287-2.6549819-2.108881-3.5031818s-2.358693-1.2722999-4.148046-1.2722999c-1.13868 0-2.190215.1917164-3.154607.5751493-.964391.3834328-1.789353 1.0457259-2.474884 1.9868792-.685532.9411533-1.220014 2.2366915-1.603447 3.8866146s-.575149 3.741375-.575149 6.2743555v4.2526187c0 2.0217368.191716 3.7588037.575149 5.2112008s.952773 2.6491723 1.708019 3.5903256c.755247.9411533 1.684781 1.6383039 2.788603 2.0914518 1.103821.4531479 2.364502.6797219 3.782042.6797219 2.068213 0 3.776232-.4008616 5.124057-1.2025848 1.347824-.8017232 2.521361-1.8300204 3.52061-3.0848914l3.241751 3.8691858c-.673913.9527725-1.551161 1.8648779-2.631744 2.7363162-1.080583.8714382-2.40517 1.580208-3.973758 2.1263093-1.568589.5461013-3.445086.819152-5.629492.819152z"/><path d="m293.709551 44.6176389c0-.9527725-.232384-1.7893533-.697151-2.5097422-.464767-.720389-1.225823-1.4175396-2.283168-2.0914519-1.057345-.6739122-2.480694-1.3943012-4.270048-2.1611668-1.742876-.720389-3.305655-1.4349684-4.688337-2.1437382-1.382682-.7087697-2.55041-1.481445-3.503182-2.3180257-.952773-.8365807-1.678971-1.806782-2.178596-2.9106038-.499624-1.1038218-.749437-2.4109792-.749437-3.9214722s.28467-2.9106038.85401-4.2003324c.569339-1.2897286 1.376872-2.4225983 2.422598-3.3986092 1.045726-.9760108 2.300597-1.7370669 3.764613-2.2831682 1.464017-.5461013 3.102321-.819152 4.914912-.819152 2.579457 0 4.775482.4996246 6.588073 1.4988738 1.812592.9992492 3.201084 2.3645025 4.165475 4.0957598.964392 1.7312574 1.446588 3.6774695 1.446588 5.8386364h-6.134926c0-1.0457259-.232383-2.033356-.69715-2.9628901-.464767-.9295342-1.150299-1.6905902-2.056594-2.2831683-.906296-.592578-2.010118-.888867-3.311466-.888867-1.371063 0-2.486504.2440027-3.346323.7320082-.859819.4880054-1.481445 1.1212505-1.864878 1.8997354-.383432.7784848-.575149 1.6324943-.575149 2.5620284 0 .6971507.098763 1.2955383.296289 1.7951629s.540292.9643916 1.028297 1.3943012c.488006.4299095 1.156108.8714382 2.004308 1.3245861s1.934593.9702013 3.259179 1.5511601c2.556219.9992492 4.705767 2.0101176 6.448643 3.0326052 1.742877 1.0224875 3.067463 2.2192627 3.973759 3.5903256s1.359444 3.0674627 1.359444 5.0891994c0 1.6499231-.296289 3.1429873-.888867 4.4791927-.592578 1.3362053-1.434969 2.4806942-2.527171 3.4334667-1.092203.9527725-2.39936 1.6789711-3.921473 2.1785957-1.522112.4996246-3.224321.7494369-5.106628.7494369-2.835079 0-5.234439-.5635301-7.19808-1.6905903-1.963641-1.1270601-3.450895-2.6026956-4.461764-4.4269063-1.010868-1.8242108-1.516302-3.7820421-1.516302-5.8734939h6.169783c.069715 1.7661149.470576 3.1371778 1.202584 4.1131886.732009.9760109 1.620876 1.6499231 2.666602 2.0217368 1.045725.3718136 2.091451.5577205 3.137177.5577205 1.371063 0 2.521362-.2033356 3.450896-.6100068s1.632494-.9934396 2.10888-1.7603053c.476387-.7668657.71458-1.6615423.71458-2.6840298z"/><path d="m314.589211 16.5573269v37.7158479h-6.134925v-37.7158479zm-6.4835-10.00411119c0-1.04572591.290479-1.92878335.871438-2.64917231s1.452397-1.08058344 2.614315-1.08058344 2.039165.36019448 2.631743 1.08058344.888867 1.6034464.888867 2.64917231c0 .9992492-.296289 1.85325869-.888867 2.56202848-.592578.70876978-1.469825 1.06315471-2.631743 1.06315471s-2.033356-.35438493-2.614315-1.06315471c-.580959-.70876979-.871438-1.56277928-.871438-2.56202848z"/><path d="m344.775833 16.5573269h5.542347v38.0295656c0 3.3230846-.575149 6.0652103-1.725448 8.2263772-1.150298 2.1611669-2.747935 3.7588037-4.79291 4.7929104-2.044975 1.0341068-4.403668 1.5511601-7.076079 1.5511601-.952772 0-2.149547-.1742876-3.590325-.5228629s-2.881556-.8772479-4.322334-1.5860177c-1.440778-.7087697-2.625934-1.5976368-3.555468-2.666601l2.544599-4.2874763c1.324587 1.3478245 2.730507 2.3122162 4.217762 2.893175 1.487254.5809589 2.904794.8714383 4.252618.8714383 1.603447 0 2.997748-.2904794 4.182904-.8714383 1.185156-.5809588 2.103071-1.5279217 2.753745-2.8408887s.976011-3.0616531.976011-5.2460583v-30.0471912zm-21.681384 20.6705155v-3.5206105c0-3.1139394.290479-5.7921597.871438-8.0346608s1.423349-4.0899502 2.527171-5.5423473 2.434218-2.527171 3.991187-3.2243216c1.55697-.6971506 3.299846-1.0457259 5.22863-1.0457259 1.952022 0 3.636802.395052 5.054342 1.185156 1.417539.7901041 2.596886 1.934593 3.538039 3.4334668s1.684781 3.3114654 2.230882 5.4377747c.546101 2.1263094.923725 4.5256694 1.13287 7.19808v4.7057666c-.209145 2.6491723-.586769 5.0311036-1.13287 7.1457938-.546101 2.1146901-1.301348 3.9156625-2.265739 5.4029172-.964392 1.4872546-2.155358 2.6259339-3.572897 3.4160379-1.41754.7901041-3.102321 1.1851561-5.054342 1.1851561-1.905545 0-3.625183-.3660041-5.158915-1.0980122-1.533731-.7320082-2.852508-1.83583-3.956329-3.3114654-1.103822-1.4756355-1.952022-3.3230846-2.5446-5.5423473-.592578-2.2192628-.888867-4.8161488-.888867-7.7906581zm6.169783-3.5206105v3.5206105c0 2.0914518.151049 3.909853.453148 5.4552035.302098 1.5453505.772675 2.82346 1.41173 3.8343284.639054 1.0108683 1.464016 1.7603052 2.474884 2.2483107 1.010869.4880054 2.225073.7320081 3.642612.7320081 1.719638 0 3.125559-.4182904 4.217761-1.2548711 1.092203-.8365807 1.969451-1.9462121 2.631744-3.3288941.662293-1.3826821 1.190966-2.8757463 1.586018-4.4791927v-9.8995386c-.232384-1.185156-.563531-2.329645-.99344-3.4334668-.42991-1.1038217-.981821-2.0914518-1.655733-2.96289-.673912-.8714383-1.481445-1.5627793-2.422598-2.0740231s-2.039166-.7668657-3.294037-.7668657c-1.417539 0-2.637553.2556219-3.66004.7668657-1.022488.5112438-1.859069 1.2781095-2.509743 2.300597-.650674 1.0224876-1.12706 2.3122162-1.429158 3.8691859-.302099 1.5569697-.453148 3.3811804-.453148 5.4726323z"/><path d="m365.725208 24.6094164v29.6637584h-6.169782v-37.7158479h5.821207zm-1.498873 9.3766757-2.509743-.1045726c-.023238-2.5794572.273051-4.9671981.888868-7.1632225.615816-2.1960244 1.498873-4.107379 2.649172-5.7340637 1.150298-1.6266848 2.527171-2.8873655 4.130617-3.7820421 1.603447-.8946766 3.381181-1.3420149 5.333202-1.3420149 1.533732 0 2.928033.2498123 4.182904.7494369s2.323835 1.2955382 3.206893 2.3877408c.883057 1.0922027 1.562779 2.5039326 2.039165 4.23519.476387 1.7312573.71458 3.8401379.71458 6.3266417v24.7139891h-6.169783v-24.7837041c0-1.9752601-.214955-3.5612777-.644865-4.7580529-.429909-1.1967752-1.080583-2.0682135-1.952021-2.6143148-.871439-.5461013-1.969451-.819152-3.294037-.819152-1.208394 0-2.335454.3369562-3.38118 1.0108684-1.045726.6739123-1.957832 1.6034464-2.736316 2.7886025-.778485 1.185156-1.382682 2.5387901-1.812592 4.0609022-.42991 1.5221122-.644864 3.1313682-.644864 4.827768z"/><path d="m407.62396 54.9703254c-2.25412 0-4.287476-.3369562-6.100068-1.0108684-1.812591-.6739123-3.357942-1.7022094-4.636051-3.0848914-1.27811-1.3826821-2.254121-3.1313682-2.928033-5.2460584-.673912-2.1146901-1.010868-4.6128132-1.010868-7.494369v-4.2526187c0-3.3230846.389242-6.1349253 1.167727-8.4355223s1.83002-4.1538557 3.154606-5.5597761c1.324587-1.4059204 2.82346-2.428408 4.496622-3.0674627 1.673161-.6390547 3.392799-.9585821 5.158914-.9585821 2.370312 0 4.392049.3834328 6.065211 1.1502985 1.673161.7668657 3.032605 1.905545 4.078331 3.416038s1.818401 3.3695613 2.318025 5.5772048c.499625 2.2076436.749437 4.7522433.749437 7.6337992v3.5903256h-23.56369v-5.2634871h17.393907v-.8714382c-.092953-1.9520217-.354384-3.6716599-.784294-5.1589145-.429909-1.4872546-1.13287-2.6549819-2.108881-3.5031818-.97601-.8481999-2.358692-1.2722999-4.148046-1.2722999-1.138679 0-2.190214.1917164-3.154606.5751493-.964392.3834328-1.789353 1.0457259-2.474885 1.9868792-.685531.9411533-1.220013 2.2366915-1.603446 3.8866146s-.575149 3.741375-.575149 6.2743555v4.2526187c0 2.0217368.191716 3.7588037.575149 5.2112008s.952772 2.6491723 1.708019 3.5903256c.755246.9411533 1.68478 1.6383039 2.788602 2.0914518s2.364503.6797219 3.782042.6797219c2.068214 0 3.776233-.4008616 5.124057-1.2025848 1.347825-.8017232 2.521362-1.8300204 3.520611-3.0848914l3.24175 3.8691858c-.673912.9527725-1.55116 1.8648779-2.631743 2.7363162-1.080584.8714382-2.40517 1.580208-3.973759 2.1263093s-3.445086.819152-5.629491.819152z"/><path d="m447.361545 46.9530934v-46.22108526h6.134925v53.54116666h-5.612062zm-21.088806-9.725251v-3.5206105c0-3.1139394.302098-5.7921597.906295-8.0346608.604198-2.2425011 1.464017-4.0899502 2.579458-5.5423473s2.451646-2.527171 4.008616-3.2243216c1.556969-.6971506 3.276608-1.0457259 5.158914-1.0457259 1.952022 0 3.630993.395052 5.036913 1.185156 1.405921.7901041 2.585267 1.934593 3.53804 3.4334668.952772 1.4988738 1.702209 3.3114654 2.24831 5.4377747.546102 2.1263094.912106 4.5256694 1.098013 7.19808v4.7057666c-.209146 2.6491723-.586769 5.0311036-1.13287 7.1457938-.546101 2.1146901-1.295538 3.9156625-2.248311 5.4029172-.952772 1.4872546-2.137928 2.6259339-3.555468 3.4160379-1.41754.7901041-3.10232 1.1851561-5.054342 1.1851561-1.859068 0-3.555468-.3660041-5.089199-1.0980122-1.533732-.7320082-2.864127-1.83583-3.991188-3.3114654-1.12706-1.4756355-1.992688-3.3230846-2.596886-5.5423473-.604197-2.2192628-.906295-4.8161488-.906295-7.7906581zm6.169783-3.5206105v3.5206105c0 2.0914518.151049 3.909853.453147 5.4552035.302099 1.5453505.778485 2.82346 1.429159 3.8343284.650674 1.0108683 1.481445 1.7603052 2.492314 2.2483107 1.010868.4880054 2.225072.7320081 3.642612.7320081 1.719638 0 3.125558-.4182904 4.217761-1.2548711 1.092202-.8365807 1.96945-1.9462121 2.631743-3.3288941.662293-1.3826821 1.190966-2.8757463 1.586018-4.4791927v-9.8995386c-.232384-1.185156-.56934-2.329645-1.010868-3.4334668-.441529-1.1038217-.99344-2.0914518-1.655733-2.96289-.662293-.8714383-1.464016-1.5627793-2.40517-2.0740231-.941153-.5112438-2.039165-.7668657-3.294036-.7668657-1.41754 0-2.643363.2556219-3.67747.7668657s-1.870687 1.2781095-2.509742 2.300597c-.639055 1.0224876-1.115441 2.3122162-1.429159 3.8691859s-.470576 3.3811804-.470576 5.4726323z"/><path d="m493.164339 16.5573269v4.9497693h-17.603052v-4.9497693zm-11.85156-9.16753047h6.169783v37.54156017c0 1.2781095.156859 2.2425011.470577 2.893175.313717.6506739.714579 1.0805835 1.202584 1.2897287.488006.2091452 1.010869.3137177 1.568589.3137177.418291 0 .883058-.0522863 1.394302-.1568588.511243-.1045726.859819-.1917165 1.045725-.2614315l-.034857 5.2634871c-.41829.1626684-.976011.3195273-1.673162.4705766-.69715.1510493-1.580208.226574-2.649172.226574-1.324586 0-2.556219-.3137178-3.694898-.9411534-1.138679-.6274355-2.056594-1.678971-2.753745-3.1546064-.697151-1.4756355-1.045726-3.4683243-1.045726-5.9780665z"/><path d="m498.532399 37.2278424v-3.5903256c0-2.9280326.371814-5.5016802 1.115441-7.720943.743627-2.2192627 1.777734-4.0725214 3.10232-5.5597761 1.324586-1.4872546 2.869937-2.6085052 4.636052-3.3637517 1.766115-.7552464 3.660041-1.1328697 5.681777-1.1328697 2.068214 0 3.985378.3776233 5.751493 1.1328697 1.766115.7552465 3.317275 1.8764971 4.65348 3.3637517 1.336205 1.4872547 2.376122 3.3405134 3.119749 5.5597761.743627 2.2192628 1.115441 4.7929104 1.115441 7.720943v3.5903256c0 2.9280326-.371814 5.5016802-1.115441 7.720943s-1.777734 4.0725215-3.10232 5.5597761-2.869937 2.6026956-4.636052 3.3463229-3.67166 1.115441-5.716635 1.115441-3.95052-.3718137-5.716635-1.115441-3.317275-1.8590683-4.65348-3.3463229-2.376122-3.3405133-3.119749-5.5597761-1.115441-4.7929104-1.115441-7.720943zm6.169783-3.5903256v3.5903256c0 2.0682135.209145 3.8808051.627436 5.4377748.41829 1.5569696 1.010868 2.8583174 1.777734 3.9040434.766865 1.0457259 1.661542 1.8300203 2.684029 2.3528833 1.022488.5228629 2.137929.7842944 3.346323.7842944 1.394302 0 2.620125-.2614315 3.67747-.7842944 1.057345-.522863 1.934593-1.3071574 2.631743-2.3528833.697151-1.045726 1.220014-2.3470738 1.568589-3.9040434.348575-1.5569697.522863-3.3695613.522863-5.4377748v-3.5903256c0-2.0682135-.209145-3.8749955-.627435-5.420346-.418291-1.5453505-1.010869-2.8466983-1.777734-3.9040434-.766866-1.0573451-1.667352-1.8474491-2.701459-2.370312-1.034107-.522863-2.155357-.7842945-3.363752-.7842945-1.185156 0-2.288978.2614315-3.311465.7842945-1.022488.5228629-1.911355 1.3129669-2.666601 2.370312-.755247 1.0573451-1.342015 2.3586929-1.760305 3.9040434-.418291 1.5453505-.627436 3.3521325-.627436 5.420346z"/><path d="m559.91651 54.2731748h-6.169783v-40.9924557c0-2.8583175.482196-5.2751063 1.446588-7.25036635.964391-1.97526005 2.347073-3.47413386 4.148046-4.49662141 1.800972-1.02248756 3.933091-1.53373134 6.396357-1.53373134 1.464016 0 2.869936.20333559 4.217761.61000678 1.347824.40667119 2.742126.91210538 4.182903 1.51630257l-1.045725 5.43777474c-.836581-.41829037-1.859069-.81915197-3.067463-1.2025848-1.208395-.38343283-2.474885-.57514925-3.799471-.57514925-2.323835 0-3.95633.62162596-4.897483 1.86487787-.941153 1.24325192-1.41173 3.11974899-1.41173 5.62949119zm6.100068-37.7158479v4.9497693h-17.184763v-4.9497693zm11.084695 0v37.7158479h-6.169783v-37.7158479z"/><path d="m600.804393 16.5573269v4.9497693h-17.603053v-4.9497693zm-11.85156-9.16753047h6.169783v37.54156017c0 1.2781095.156859 2.2425011.470576 2.893175.313718.6506739.71458 1.0805835 1.202585 1.2897287.488006.2091452 1.010869.3137177 1.568589.3137177.41829 0 .883057-.0522863 1.394301-.1568588.511244-.1045726.859819-.1917165 1.045726-.2614315l-.034857 5.2634871c-.418291.1626684-.976011.3195273-1.673162.4705766-.69715.1510493-1.580208.226574-2.649172.226574-1.324586 0-2.556219-.3137178-3.694898-.9411534-1.13868-.6274355-2.056595-1.678971-2.753745-3.1546064-.697151-1.4756355-1.045726-3.4683243-1.045726-5.9780665z"/><path d="m633.291611 50.3691314 8.400665-33.8118045h6.553216l-12.444138 43.5370554c-.302099.9295342-.702961 1.934593-1.202585 3.0151764-.499625 1.0805834-1.13287 2.1088806-1.899736 3.0848914-.766865.9760109-1.68478 1.7719245-2.753744 2.3877409-1.068965.6158163-2.323836.9237245-3.764614.9237245-.441528 0-1.005059-.069715-1.69059-.2091452-.685531-.1394301-1.179346-.2556218-1.481445-.3485753v-5.2286295c.13943.0232383.360194.0522863.662293.0871438s.522863.0522863.662293.0522863c1.208395 0 2.236692-.1917164 3.084892-.5751492.8482-.3834329 1.574398-1.0224876 2.178595-1.9171642s1.115441-2.1204998 1.533732-3.6774695zm-5.437774-33.8118045 7.494369 29.2803255 1.603446 6.7972184-4.392049 2.3703121-11.43327-38.447856z"/><path d="m652.463253 37.2278424v-3.5903256c0-2.9280326.371814-5.5016802 1.115441-7.720943.743627-2.2192627 1.777734-4.0725214 3.10232-5.5597761 1.324586-1.4872546 2.869937-2.6085052 4.636052-3.3637517 1.766115-.7552464 3.660041-1.1328697 5.681777-1.1328697 2.068214 0 3.985378.3776233 5.751493 1.1328697 1.766115.7552465 3.317275 1.8764971 4.65348 3.3637517 1.336205 1.4872547 2.376122 3.3405134 3.119749 5.5597761.743627 2.2192628 1.115441 4.7929104 1.115441 7.720943v3.5903256c0 2.9280326-.371814 5.5016802-1.115441 7.720943s-1.777734 4.0725215-3.10232 5.5597761-2.869937 2.6026956-4.636052 3.3463229-3.67166 1.115441-5.716635 1.115441-3.95052-.3718137-5.716635-1.115441c-1.766114-.7436273-3.317275-1.8590683-4.65348-3.3463229s-2.376122-3.3405133-3.119749-5.5597761-1.115441-4.7929104-1.115441-7.720943zm6.169783-3.5903256v3.5903256c0 2.0682135.209145 3.8808051.627436 5.4377748.41829 1.5569696 1.010868 2.8583174 1.777734 3.9040434.766865 1.0457259 1.661542 1.8300203 2.684029 2.3528833 1.022488.5228629 2.137929.7842944 3.346323.7842944 1.394302 0 2.620125-.2614315 3.67747-.7842944 1.057345-.522863 1.934593-1.3071574 2.631743-2.3528833.697151-1.045726 1.220014-2.3470738 1.568589-3.9040434.348576-1.5569697.522863-3.3695613.522863-5.4377748v-3.5903256c0-2.0682135-.209145-3.8749955-.627435-5.420346-.418291-1.5453505-1.010869-2.8466983-1.777734-3.9040434-.766866-1.0573451-1.667352-1.8474491-2.701459-2.370312-1.034107-.522863-2.155357-.7842945-3.363752-.7842945-1.185156 0-2.288978.2614315-3.311465.7842945-1.022488.5228629-1.911355 1.3129669-2.666601 2.370312-.755247 1.0573451-1.342015 2.3586929-1.760305 3.9040434-.418291 1.5453505-.627436 3.3521325-.627436 5.420346z"/><path d="m708.653592 45.5587922v-29.0014653h6.169783v37.7158479h-5.856065zm1.150299-7.9475169 2.440027-.0697151c0 2.5097422-.214955 4.8277679-.644865 6.9540773-.429909 2.1263093-1.12706 3.9679489-2.091451 5.5249186-.964392 1.5569696-2.236692 2.7711736-3.8169 3.6426119-1.580208.8714382-3.520611 1.3071574-5.821208 1.3071574-1.556969 0-2.968699-.2672411-4.235189-.8017232-1.266491-.5344822-2.358693-1.3594437-3.276608-2.4748847s-1.626685-2.5678381-2.12631-4.3571913c-.499624-1.7893532-.749437-3.9389009-.749437-6.4486431v-24.3305562h6.134926v24.4002713c0 1.6963998.151049 3.0965106.453148 4.2003324.302098 1.1038218.708769 1.97526 1.220013 2.6143147.511244.6390548 1.080584 1.0863931 1.708019 1.342015.627436.2556219 1.26649.3834328 1.917164.3834328 2.184406 0 3.927282-.5286725 5.22863-1.5860176s2.236691-2.4865039 2.806031-4.2874763.85401-3.8052804.85401-6.0129239z"/><path d="m730.265261 22.4831071v31.7900677h-6.169783v-37.7158479h5.960638zm9.376676-6.1349254.034857 5.9954953c-.511244-.1161918-.970201-.1917165-1.376872-.226574-.406672-.0348575-.877248-.0522863-1.41173-.0522863-1.161918 0-2.178596.2323835-3.050034.6971506s-1.620875 1.115441-2.248311 1.9520217c-.627435.8365807-1.12706 1.8300204-1.498874 2.9803189-.371813 1.1502985-.627435 2.4109791-.766865 3.782042l-1.603447 1.0457259c0-2.2773586.180097-4.4152872.540292-6.4137856.360194-1.9984984.923724-3.7704228 1.69059-5.3157733.766866-1.5453506 1.748686-2.7537449 2.945461-3.6251832 1.196776-.8714383 2.631744-1.3071574 4.304905-1.3071574.371814 0 .830772.0522863 1.376873.1568589s.900486.2149548 1.063155.3311465z"/><path d="m780.52982 44.6176389c0-.9527725-.232384-1.7893533-.697151-2.5097422-.464767-.720389-1.225823-1.4175396-2.283168-2.0914519-1.057345-.6739122-2.480694-1.3943012-4.270048-2.1611668-1.742876-.720389-3.305655-1.4349684-4.688337-2.1437382-1.382683-.7087697-2.55041-1.481445-3.503182-2.3180257-.952773-.8365807-1.678971-1.806782-2.178596-2.9106038s-.749437-2.4109792-.749437-3.9214722.28467-2.9106038.85401-4.2003324c.569339-1.2897286 1.376872-2.4225983 2.422598-3.3986092 1.045726-.9760108 2.300597-1.7370669 3.764613-2.2831682 1.464017-.5461013 3.102321-.819152 4.914912-.819152 2.579457 0 4.775482.4996246 6.588073 1.4988738 1.812592.9992492 3.201084 2.3645025 4.165475 4.0957598.964392 1.7312574 1.446588 3.6774695 1.446588 5.8386364h-6.134926c0-1.0457259-.232383-2.033356-.69715-2.9628901-.464767-.9295342-1.150299-1.6905902-2.056595-2.2831683-.906295-.592578-2.010117-.888867-3.311465-.888867-1.371063 0-2.486504.2440027-3.346323.7320082-.859819.4880054-1.481445 1.1212505-1.864878 1.8997354-.383433.7784848-.575149 1.6324943-.575149 2.5620284 0 .6971507.098763 1.2955383.296289 1.7951629s.540292.9643916 1.028297 1.3943012c.488006.4299095 1.156108.8714382 2.004308 1.3245861s1.934593.9702013 3.259179 1.5511601c2.556219.9992492 4.705767 2.0101176 6.448643 3.0326052 1.742877 1.0224875 3.067463 2.2192627 3.973759 3.5903256s1.359444 3.0674627 1.359444 5.0891994c0 1.6499231-.296289 3.1429873-.888867 4.4791927-.592578 1.3362053-1.434969 2.4806942-2.527171 3.4334667-1.092203.9527725-2.39936 1.6789711-3.921473 2.1785957-1.522112.4996246-3.224321.7494369-5.106628.7494369-2.835079 0-5.234439-.5635301-7.19808-1.6905903-1.963641-1.1270601-3.450895-2.6026956-4.461764-4.4269063-1.010868-1.8242108-1.516302-3.7820421-1.516302-5.8734939h6.169783c.069715 1.7661149.470576 3.1371778 1.202584 4.1131886.732009.9760109 1.620876 1.6499231 2.666601 2.0217368 1.045726.3718136 2.091452.5577205 3.137178.5577205 1.371063 0 2.521362-.2033356 3.450896-.6100068s1.632494-.9934396 2.10888-1.7603053c.476387-.7668657.71458-1.6615423.71458-2.6840298z"/><path d="m800.956332.73200814v53.54116666h-6.169782v-53.54116666zm-1.498873 33.25408396-2.509743-.1045726c-.023238-2.5794572.273051-4.9671981.888868-7.1632225.615816-2.1960244 1.498873-4.107379 2.649172-5.7340637 1.150298-1.6266848 2.527171-2.8873655 4.130617-3.7820421 1.603447-.8946766 3.381181-1.3420149 5.333202-1.3420149 1.533732 0 2.928033.2498123 4.182904.7494369s2.323835 1.2955382 3.206893 2.3877408c.883057 1.0922027 1.562779 2.5039326 2.039165 4.23519.476387 1.7312573.71458 3.8401379.71458 6.3266417v24.7139891h-6.169783v-24.7837041c0-1.9752601-.214955-3.5612777-.644865-4.7580529-.429909-1.1967752-1.080583-2.0682135-1.952021-2.6143148-.871439-.5461013-1.969451-.819152-3.294037-.819152-1.208394 0-2.335454.3369562-3.38118 1.0108684-1.045726.6739123-1.957832 1.6034464-2.736316 2.7886025-.778485 1.185156-1.382682 2.5387901-1.812592 4.0609022-.42991 1.5221122-.644864 3.1313682-.644864 4.827768z"/><path d="m842.750511 54.9703254c-2.25412 0-4.287476-.3369562-6.100067-1.0108684-1.812592-.6739123-3.357943-1.7022094-4.636052-3.0848914-1.278109-1.3826821-2.25412-3.1313682-2.928033-5.2460584-.673912-2.1146901-1.010868-4.6128132-1.010868-7.494369v-4.2526187c0-3.3230846.389243-6.1349253 1.167727-8.4355223.778485-2.300597 1.830021-4.1538557 3.154607-5.5597761s2.82346-2.428408 4.496621-3.0674627c1.673162-.6390547 3.3928-.9585821 5.158915-.9585821 2.370312 0 4.392049.3834328 6.06521 1.1502985s3.032605 1.905545 4.078331 3.416038 1.818401 3.3695613 2.318026 5.5772048c.499624 2.2076436.749437 4.7522433.749437 7.6337992v3.5903256h-23.563691v-5.2634871h17.393908v-.8714382c-.092954-1.9520217-.354385-3.6716599-.784295-5.1589145-.429909-1.4872546-1.132869-2.6549819-2.10888-3.5031818s-2.358693-1.2722999-4.148046-1.2722999c-1.13868 0-2.190215.1917164-3.154607.5751493-.964391.3834328-1.789353 1.0457259-2.474884 1.9868792-.685532.9411533-1.220014 2.2366915-1.603447 3.8866146s-.575149 3.741375-.575149 6.2743555v4.2526187c0 2.0217368.191716 3.7588037.575149 5.2112008s.952773 2.6491723 1.708019 3.5903256c.755247.9411533 1.684781 1.6383039 2.788603 2.0914518 1.103821.4531479 2.364502.6797219 3.782042.6797219 2.068213 0 3.776232-.4008616 5.124057-1.2025848 1.347824-.8017232 2.521361-1.8300204 3.52061-3.0848914l3.241751 3.8691858c-.673913.9527725-1.551161 1.8648779-2.631744 2.7363162-1.080583.8714382-2.40517 1.580208-3.973758 2.1263093-1.568589.5461013-3.445086.819152-5.629492.819152z"/><path d="m869.346807.73200814v53.54116666h-6.134925v-53.54116666z"/><path d="m885.729846.73200814v53.54116666h-6.134925v-53.54116666z"/><path d="m918.495925.73200814v53.54116666h-6.134926v-53.54116666z"/><path d="m934.878964 16.5573269v37.7158479h-6.134925v-37.7158479zm-6.483501-10.00411119c0-1.04572591.29048-1.92878335.871439-2.64917231s1.452397-1.08058344 2.614314-1.08058344c1.161918 0 2.039166.36019448 2.631744 1.08058344s.888867 1.6034464.888867 2.64917231c0 .9992492-.296289 1.85325869-.888867 2.56202848-.592578.70876978-1.469826 1.06315471-2.631744 1.06315471-1.161917 0-2.033355-.35438493-2.614314-1.06315471-.580959-.70876979-.871439-1.56277928-.871439-2.56202848z"/><path d="m953.527743 54.2731748h-6.169783v-41.6896063c0-2.71888741.435719-5.01367482 1.307157-6.88436229.871439-1.87068746 2.114691-3.28822703 3.729756-4.2526187 1.615066-.96439167 3.538039-1.44658751 5.768921-1.44658751.627436 0 1.260681.04647671 1.899736.13943012.639054.09295342 1.249061.23238354 1.83002.41829037l-.27886 5.26348708c-.371814-.11619177-.819152-.19752601-1.342015-.24400271-.522863-.04647671-1.016678-.06971506-1.481445-.06971506-1.115441 0-2.068214.27305065-2.858318.81915196s-1.388491 1.34201492-1.795162 2.38774083c-.406672 1.04572591-.610007 2.33545451-.610007 3.86918591zm6.413785-37.7158479v4.9497693h-17.49848v-4.9497693z"/><path d="m979.880036 54.9703254c-2.254121 0-4.287476-.3369562-6.100068-1.0108684-1.812592-.6739123-3.357942-1.7022094-4.636052-3.0848914-1.278109-1.3826821-2.25412-3.1313682-2.928032-5.2460584-.673912-2.1146901-1.010869-4.6128132-1.010869-7.494369v-4.2526187c0-3.3230846.389243-6.1349253 1.167728-8.4355223s1.83002-4.1538557 3.154606-5.5597761 2.82346-2.428408 4.496622-3.0674627c1.673161-.6390547 3.392799-.9585821 5.158914-.9585821 2.370312 0 4.392049.3834328 6.06521 1.1502985 1.673162.7668657 3.032606 1.905545 4.078331 3.416038 1.045726 1.510493 1.818402 3.3695613 2.318026 5.5772048.499625 2.2076436.749437 4.7522433.749437 7.6337992v3.5903256h-23.56369v-5.2634871h17.393907v-.8714382c-.092953-1.9520217-.354385-3.6716599-.784294-5.1589145-.42991-1.4872546-1.13287-2.6549819-2.108881-3.5031818s-2.358693-1.2722999-4.148046-1.2722999c-1.138679 0-2.190215.1917164-3.154606.5751493-.964392.3834328-1.789354 1.0457259-2.474885 1.9868792s-1.220014 2.2366915-1.603446 3.8866146c-.383433 1.6499231-.57515 3.741375-.57515 6.2743555v4.2526187c0 2.0217368.191717 3.7588037.57515 5.2112008.383432 1.4523971.952772 2.6491723 1.708019 3.5903256.755246.9411533 1.68478 1.6383039 2.788602 2.0914518s2.364503.6797219 3.782042.6797219c2.068214 0 3.776233-.4008616 5.124057-1.2025848 1.347825-.8017232 2.521361-1.8300204 3.520611-3.0848914l3.24175 3.8691858c-.673912.9527725-1.55116 1.8648779-2.631744 2.7363162-1.080583.8714382-2.405169 1.580208-3.973758 2.1263093s-3.445086.819152-5.629491.819152z"/><path d="m1000.23683 50.8571368c0-1.0922026.34277-2.0159272 1.0283-2.7711737s1.67897-1.1328697 2.98032-1.1328697 2.29479.3776232 2.98032 1.1328697 1.0283 1.6789711 1.0283 2.7711737c0 1.0689643-.34277 1.97526-1.0283 2.7188874-.68553.7436273-1.67897 1.1154409-2.98032 1.1154409s-2.29479-.3718136-2.98032-1.1154409c-.68553-.7436274-1.0283-1.6499231-1.0283-2.7188874z"/></g><g transform="translate(367.976371 33.684755)"><path d="m51.8426542 187.089872h-33.8434931l.2535093-34.223757h33.5899838c6.3377328 0 11.5135479-1.394301 15.5274454-4.182904 4.0138974-2.788602 6.9926318-7.415147 8.9362032-13.879635 1.9435714-6.464487 2.9153571-15.104929 2.9153571-25.921327v-28.2662879c0-8.112298-.5281444-14.9570494-1.5844332-20.5342542-1.0562888-5.5772049-2.6829736-10.0558694-4.8800543-13.4359936-2.1970807-3.3801241-5.1124377-5.8518399-8.7460712-7.4151473s-7.9432918-2.3449612-12.9289749-2.3449612h-33.7167385v-34.35051168h33.7167385c10.8163973 0 20.6398831 1.7534394 29.4704575 5.26031821 8.8305743 3.50687877 16.4569795 8.66156817 22.8792152 15.46406797 6.422236 6.8024999 11.365668 15.0204268 14.830295 24.6537806s5.196941 20.6187574 5.196941 32.9562105v28.0127786c0 12.25295-1.732314 23.217228-5.196941 32.892834-3.464627 9.675605-8.386933 17.893532-14.766918 24.65378-6.3799839 6.760248-13.9430117 11.893812-22.6890829 15.400691-8.7460713 3.506879-18.4005509 5.260318-28.9634389 5.260318zm-8.4925619-184.55477888v184.55477888h-43.3500923v-184.55477888z"/><path d="m279.87428 80.9962251v27.8860239c0 13.266988-1.64781 24.928416-4.943432 34.984285-3.295621 10.05587-7.985543 18.485054-14.069766 25.287554-6.084224 6.8025-13.288113 11.914938-21.611669 15.337314-8.323556 3.422375-17.55552 5.133563-27.695892 5.133563-10.224876 0-19.520217-1.711188-27.886025-5.133563-8.365807-3.422376-15.590822-8.534814-21.675046-15.337314-6.084223-6.8025-10.774146-15.231684-14.069767-25.287554-3.295621-10.055869-4.943431-21.717297-4.943431-34.984285v-27.8860239c0-13.2669873 1.64781-24.9706672 4.943431-35.1110397s7.964418-18.5906828 14.00639-25.3509312c6.041972-6.7602483 13.245861-11.87268605 21.611669-15.33731331 8.365807-3.46462726 17.661148-5.19694089 27.886024-5.19694089 10.140372 0 19.414588 1.73231363 27.822647 5.19694089s15.611948 8.57706501 21.611669 15.33731331c5.99972 6.7602484 10.668517 15.2105587 14.006389 25.3509312 3.337873 10.1403725 5.006809 21.8440524 5.006809 35.1110397zm-43.983865 27.8860239v-28.1395332c0-8.2813042-.507019-15.3373134-1.521056-21.1680276-1.014038-5.8307141-2.535093-10.5628879-4.563168-14.1965214-2.028074-3.6336335-4.563168-6.2954813-7.605279-7.9855433-3.042112-1.6900621-6.633494-2.5350931-10.774146-2.5350931-4.309658 0-7.985543.845031-11.027655 2.5350931-3.042112 1.690062-5.556079 4.3519098-7.541902 7.9855433s-3.443502 8.3658073-4.373036 14.1965214c-.929534 5.8307142-1.394301 12.8867234-1.394301 21.1680276v28.1395332c0 8.196801.464767 15.189433 1.394301 20.977896s2.387213 10.541762 4.373036 14.259899c1.985823 3.718136 4.542042 6.443361 7.668657 8.175675 3.126614 1.732314 6.802499 2.59847 11.027655 2.59847 4.056149 0 7.626405-.866156 10.710768-2.59847s5.619456-4.457539 7.605279-8.175675c1.985823-3.718137 3.485753-8.471436 4.499791-14.259899 1.014037-5.788463 1.521056-12.781095 1.521056-20.977896z"/><path d="m372.15167 2.53509312v184.55477888h-43.476847v-184.55477888zm44.744393 0v34.35051168h-131.698087v-34.35051168z"/><path d="m479.005844 2.53509312v184.55477888h-43.350092v-184.55477888zm56.659332 76.81332148v34.2237574h-68.447515v-34.2237574zm5.19694-76.81332148v34.35051168h-73.644455v-34.35051168z"/><path d="m604.366199 2.53509312v184.55477888h-43.223338v-184.55477888z"/><path d="m737.458588 152.866115v34.223757h-77.57385v-34.223757zm-62.363291-150.33102188v184.55477888h-43.350092v-184.55477888z"/><path d="m865.100526 152.866115v34.223757h-80.742716v-34.223757zm-65.658912-150.33102188v184.55477888h-43.350092v-184.55477888zm55.138276 73.26419108v33.0829648h-70.22208v-33.0829648zm10.9009-73.26419108v34.35051168h-81.12298v-34.35051168z"/><path d="m960.293273 138.03582c0-2.873105-.274636-5.471576-.823906-7.795411s-1.605559-4.49979-3.168866-6.527865c-1.563308-2.028074-3.908269-4.077275-7.034883-6.147601-3.126615-2.070326-7.309519-4.246281-12.548711-6.527864-6.591243-2.7041-13.05573-5.767337-19.393463-9.189713-6.337733-3.4223757-12.020566-7.4362732-17.048501-12.0416923-5.027935-4.6054192-9.062958-10.0136179-12.10507-16.224596-3.042111-6.2109781-4.563167-13.4571193-4.563167-21.7384235 0-7.9432917 1.542181-15.1049298 4.626545-21.4849141 3.084363-6.3799844 7.35177-11.8304346 12.80222-16.3513506 5.45045-4.52091609 11.893812-7.98554335 19.330085-10.39388181s15.548571-3.61250769 24.336894-3.61250769c11.661428 0 21.949681 2.34496113 30.864759 7.0348834 8.915077 4.6899223 15.886583 11.3234159 20.914518 19.900481 5.027933 8.577065 7.541903 18.6963117 7.541903 30.35774h-43.223339c0-4.6476707-.591522-8.7460712-1.774565-12.2952016-1.183043-3.5491303-3.020986-6.3377328-5.513828-8.3658073-2.492841-2.0280745-5.767336-3.0421117-9.823485-3.0421117-3.633634 0-6.696871.845031-9.189713 2.5350931-2.492841 1.6900621-4.373036 3.9505201-5.640582 6.7813741-1.267547 2.830854-1.90132 5.936343-1.90132 9.3164672 0 2.7886024.633773 5.3025698 1.90132 7.541902 1.267546 2.2393323 3.020986 4.3307841 5.260318 6.2743555s4.858929 3.8026397 7.858789 5.5772048c2.99986 1.7745652 6.232104 3.5068789 9.696731 5.1969409 8.365807 3.1266149 15.780955 6.6123679 22.245442 10.4572591 6.464488 3.8448913 11.893812 8.1968011 16.287973 13.0557295 4.394162 4.858929 7.710909 10.372756 9.950239 16.541483 2.23933 6.168726 3.359 13.140232 3.359 20.914518 0 8.281304-1.33092 15.633074-3.992771 22.05531-2.661848 6.422236-6.527865 11.85156-11.598051 16.287973-5.070187 4.436413-11.175536 7.795412-18.316048 10.076995-7.140512 2.281584-15.189433 3.422376-24.146762 3.422376-8.196801 0-16.245722-1.204169-24.146762-3.612508-7.90104-2.408338-15.041553-6.126475-21.421537-11.154409-6.379984-5.027935-11.471296-11.492422-15.273936-19.393463-3.80264-7.90104-5.703959-17.30201-5.703959-28.202911h43.603601c0 5.408199.422516 9.971367 1.267547 13.689503.845031 3.718137 2.175955 6.696871 3.992771 8.936204 1.816817 2.239332 4.161778 3.844891 7.034884 4.816676 2.873105.971786 6.422236 1.457679 10.647391 1.457679 3.887143 0 6.908129-.823905 9.062958-2.471716 2.154829-1.64781 3.654759-3.844891 4.49979-6.591242s1.267547-5.767337 1.267547-9.062958z"/></g></g><path d="m83.0779256 0c-45.805288 0-83.0779256 37.2714215-83.0779256 83.0619568v166.1877092c0 45.77339 37.2714415 83.030059 83.0779256 83.030059h166.1717204c45.77339 0 83.030059-37.255871 83.030059-83.046008v-166.1717602c0-45.7893391-37.255871-83.0619568-83.046008-83.0619568z" fill="#2f3a3e"/><path d="m149.118401 178.552107-55.9448113 49.716759c-3.161753 2.803501-7.1180014 4.205331-11.0270808 4.205331-4.5789339 0-9.1427163-1.884604-12.4289906-5.560191-6.089695-6.8688-5.48244-17.366376 1.3862001-23.456071l41.9576116-37.318073-41.9576116-37.302521c-6.8687996-6.089695-7.4760546-16.603221-1.3862001-23.456072 6.1052453-6.8532492 16.5876706-7.4916046 23.4560714-1.37061l55.9288623 49.700811c3.535556 3.161753 5.56028 7.678606 5.56028 12.428991.015462 4.750384-2.009293 9.251567-5.544729 12.41344z" fill="#f0f"/><circle cx="207.09561" cy="214.72117" fill="#0f0" r="16.618854"/></g></svg>