<svg width="800" height="450" viewBox="0 0 800 450" xmlns="http://www.w3.org/2000/svg">
  <!-- Background Shadow -->
  <rect x="10" y="10" width="780" height="430" rx="12" fill="rgba(0,0,0,0.3)" filter="blur(10px)" />

  <!-- Terminal Window -->
  <rect x="20" y="20" width="760" height="410" rx="10" fill="#1e1e2e" stroke="#313244" stroke-width="1" />

  <!-- Window Title Bar -->
  <path d="M20 30 a10 10 0 0 1 10 -10 h740 a10 10 0 0 1 10 10 v20 h-760 z" fill="#181825" />

  <!-- macOS Buttons -->
  <circle cx="40" cy="35" r="6" fill="#f38ba8" />
  <circle cx="60" cy="35" r="6" fill="#fab387" />
  <circle cx="80" cy="35" r="6" fill="#a6e3a1" />

  <!-- Title -->
  <text x="400" y="38" font-family="JetBrains Mono, monospace" font-size="12" fill="#bac2de" text-anchor="middle">~/.dotfiles — zsh</text>

  <!-- Mock Terminal Content -->
  <g font-family="JetBrains Mono, monospace" font-size="13">
    <!-- Prompt + command -->
    <text x="40" y="75" fill="#a6e3a1">&#10148;</text>
    <text x="60" y="75" fill="#cdd6f4">dot doctor</text>

    <!-- Section: Dotfiles Core -->
    <text x="40" y="105" fill="#89b4fa" font-weight="bold">Dotfiles Core</text>
    <text x="40" y="125" fill="#a6e3a1">  &#10003; chezmoi</text>
    <text x="220" y="125" fill="#585b70">2.47.1 (mise)</text>
    <text x="40" y="145" fill="#a6e3a1">  &#10003; git</text>
    <text x="220" y="145" fill="#585b70">2.49.0 (system)</text>
    <text x="40" y="165" fill="#a6e3a1">  &#10003; age encryption</text>
    <text x="220" y="165" fill="#585b70">key present</text>

    <!-- Section: Shell Environment -->
    <text x="40" y="195" fill="#89b4fa" font-weight="bold">Shell Environment</text>
    <text x="40" y="215" fill="#a6e3a1">  &#10003; zsh</text>
    <text x="220" y="215" fill="#585b70">5.9.0 (system)</text>
    <text x="40" y="235" fill="#a6e3a1">  &#10003; starship</text>
    <text x="220" y="235" fill="#585b70">1.22.1 (mise)</text>
    <text x="40" y="255" fill="#a6e3a1">  &#10003; zoxide</text>
    <text x="220" y="255" fill="#585b70">0.9.7 (mise)</text>

    <!-- Section: CLI Tools -->
    <text x="420" y="105" fill="#89b4fa" font-weight="bold">CLI Tools</text>
    <text x="420" y="125" fill="#a6e3a1">  &#10003; rg (ripgrep)</text>
    <text x="600" y="125" fill="#585b70">14.1.1</text>
    <text x="420" y="145" fill="#a6e3a1">  &#10003; bat</text>
    <text x="600" y="145" fill="#585b70">0.25.0</text>
    <text x="420" y="165" fill="#a6e3a1">  &#10003; fzf</text>
    <text x="600" y="165" fill="#585b70">0.60.3</text>

    <!-- Section: Security -->
    <text x="420" y="195" fill="#89b4fa" font-weight="bold">Security</text>
    <text x="420" y="215" fill="#a6e3a1">  &#10003; SSH keys</text>
    <text x="600" y="215" fill="#585b70">ed25519</text>
    <text x="420" y="235" fill="#a6e3a1">  &#10003; GPG signing</text>
    <text x="600" y="235" fill="#585b70">configured</text>
    <text x="420" y="255" fill="#a6e3a1">  &#10003; secrets (age)</text>
    <text x="600" y="255" fill="#585b70">encrypted</text>

    <!-- Performance line -->
    <text x="40" y="290" fill="#89b4fa" font-weight="bold">Performance</text>
    <text x="40" y="310" fill="#a6e3a1">  &#10003; zsh startup</text>
    <text x="220" y="310" fill="#585b70">12ms</text>

    <!-- Score -->
    <text x="40" y="350" fill="#a6e3a1" font-weight="bold">Score: 95/100 — Excellent</text>
    <text x="40" y="370" fill="#585b70">18 passed, 0 errors, 1 warning</text>

    <!-- New prompt -->
    <text x="40" y="405" fill="#a6e3a1">&#10148;</text>
    <text x="60" y="405" fill="#cdd6f4">~/.dotfiles</text>
    <text x="170" y="405" fill="#f5c2e7">on master</text>
    <rect x="275" y="393" width="8" height="16" fill="#cdd6f4">
      <animate attributeName="opacity" values="1;0;1" dur="1s" repeatCount="indefinite" />
    </rect>
  </g>
</svg>
