<svg viewBox="0 0 583.6 533.9" xmlns="http://www.w3.org/2000/svg"><path d="m143.6 25c-3-.1-5.9 1-8 3.1s-3.4 4.9-3.4 7.9c0 116.9 12.2 209.3 48.1 276.5 34.8 65.3 93 105.6 179.1 118.2 23 25.8 47.4 50.9 73.2 75.1 2.1 2 4.9 3.1 7.9 3 2.9-.1 5.7-1.3 7.7-3.4s3.1-5 3-7.9-1.4-5.7-3.5-7.7c-23.9-22.4-46.7-45.4-68.1-69.1 12.4-154.6-33.3-228.6-97.6-278-2.7-2-6.1-2.7-9.4-1.9s-5.9 3.1-7.3 6.2l-12.9 28.2-10.3-58.6c-.5-2.8-2.1-5.4-4.5-7-32.4-23.4-61.9-45.4-85.2-79.8-2-2.9-5.2-4.7-8.8-4.8zm11.7 43.8c20.2 22.2 43 39.1 65.8 55.7l15.8 89.4c.9 4.7 4.7 8.3 9.5 8.9 4.7.6 9.3-2 11.3-6.3l21.5-47.3c51.1 42.9 85.1 102.7 79.6 227.4-36.3-42.9-68.5-87.9-96.1-135.3-1.8-3.1-5-5.2-8.6-5.5-4.1-.3-8.1 1.7-10.3 5.2s-2.2 7.9 0 11.5c26.7 45.8 57.6 89.5 92.1 131-65.4-15.2-108.1-48.6-136.3-101.4-29.5-55.5-41.9-134.4-44.3-233.3z" fill="#7ad1f0" stroke="#fff" stroke-linejoin="round" stroke-miterlimit="10" stroke-width="10"/></svg>