<?xml version="1.0" encoding="UTF-8"?>
<svg width="171px" height="171px" viewBox="0 0 171 171" version="1.1" xmlns="http://www.w3.org/2000/svg" xmlns:xlink="http://www.w3.org/1999/xlink">
    <title>dotfiles</title>
    <g id="Page-1" stroke="none" stroke-width="1" fill="none" fill-rule="evenodd">
        <g id="dotfiles">
            <path d="M42.7541167,0 C19.1814936,0 0,19.1808678 0,42.7458987 L0,128.270527 C0,151.826735 19.180878,171.00001 42.7541167,171.00001 L128.270517,171.00001 C151.826724,171.00001 171,151.827145 171,128.262319 L171,42.7458987 C171,19.1814833 151.827135,0 128.262309,0 L42.7541167,0 Z" id="terminal" fill="#2F3A3E"></path>
            <path d="M76.7403072,91.8876771 L47.9496147,117.473248 C46.3224923,118.916004 44.2865013,119.637423 42.2747848,119.637423 C39.9183433,119.637423 37.5696991,118.667556 35.8784947,116.776001 C32.7445752,113.241133 33.0570848,107.8388 36.5918702,104.704881 L58.1843766,85.5000051 L36.5918702,66.3031323 C33.0570027,63.1692128 32.7444931,57.758672 35.8784947,54.2320122 C39.0204167,50.7051473 44.4149524,50.3766326 47.9496147,53.5266598 L76.7320994,79.1040228 C78.5515908,80.7311453 79.5935678,83.0556382 79.5935678,85.5003129 C79.6015246,87.9449876 78.5595317,90.2614165 76.740102,91.8886005 L76.7403072,91.8876771 Z" id="Path" fill="#FF00FF"></path>
            <circle id="dot" fill="#00FF00" cx="106.576925" cy="110.501242" r="8.5525054"></circle>
        </g>
    </g>
</svg>